<?xml version="1.0" encoding="utf-8"?>
<!-- Generator: Adobe Illustrator 22.0.0, SVG Export Plug-In . SVG Version: 6.00 Build 0)  -->
<svg version="1.1" xmlns="http://www.w3.org/2000/svg" xmlns:xlink="http://www.w3.org/1999/xlink" x="0px" y="0px"
	 viewBox="0 0 600 600" style="enable-background:new 0 0 600 600;" xml:space="preserve">
<style type="text/css">
	.st0{fill:#808739;}
	.st1{fill:#8E9B57;}
	.st2{fill:#FFFFFF;}
	.st3{fill:#282624;}
	.st4{fill:#E88B3F;}
	.st5{fill:#B6C176;}
	.st6{fill:#BF5D2C;}
	.st7{fill:#D36B31;}
	.st8{fill:#E8926D;}
	.st9{fill:#DD7D5B;}
	.st10{fill:#79599E;}
	.st11{fill:#ED9B85;}
	.st12{fill:#9B71BC;}
	.st13{fill:#44342C;}
	.st14{fill:#B899D6;}
	.st15{fill:#8865AA;}
	.st16{fill:#E583AB;}
	.st17{fill:#CE6F9A;}
	.st18{fill:#EDB254;}
	.st19{fill:#5984C1;}
	.st20{fill:#E09E3F;}
	.st21{fill:#426DA0;}
	.st22{fill:#EFA3C6;}
	.st23{fill:#4D527A;}
	.st24{fill:#3B4163;}
	.st25{fill:#F9CB8F;}
	.st26{fill:#D8983D;}
	.st27{fill:#DD9D40;}
	.st28{fill:#C44747;}
	.st29{fill:#D85959;}
	.st30{fill:#E87979;}
	.st31{fill:#A59C4A;}
	.st32{fill:#B7B15C;}
	.st33{fill:#D1C875;}
	.st34{fill:#8259AA;}
	.st35{fill:#87D8D5;}
	.st36{fill:#73C6C6;}
	.st37{fill:#66B5B3;}
	.st38{fill:#F9E9D4;}
	.st39{fill:#F7A4C9;}
	.st40{fill:#EF8854;}
	.st41{fill:#EA7DB1;}
	.st42{fill:#9B5072;}
	.st43{fill:#F7ADCF;}
	.st44{fill:#825B38;}
	.st45{fill:#92DDDB;}
	.st46{fill:#775E96;}
	.st47{fill:#655284;}
	.st48{fill:#755593;}
</style>
<g id="Monster_1">
</g>
<g id="Monster_2">
</g>
<g id="Monster_3">
</g>
<g id="Monster_4">
</g>
<g id="Monster_5">
</g>
<g id="Monster_6">
</g>
<g id="Monster_7">
</g>
<g id="Monster_8">
</g>
<g id="Monster_9">
	<g>
		<path class="st38" d="M89.7,276.7l-3.5,10.8c0,0-1.1,33.4,3.5,36.9c4.6,3.5,20.6-19.3,20.6-19.3s1.4,18.3,4.6,19.7
			c3.2,1.3,17.4-12.5,17.4-12.5s6.4,9.7,9.6,8.1c3.2-1.6,17.8-17.6,17.8-17.6L89.7,276.7z"/>
		<path class="st18" d="M513.5,485.3c-29,17-241.3,16.7-330.9,10.2c0,0,0,0,0,0c-5.5-0.4-10.5-0.8-15-1.3
			c-40.4-4-63.9-24.5-75.9-55.9c-5.4-14.2-8.6-30.6-9.8-48.6c-0.9-12.2-0.9-25.2-0.3-38.9l87.3-35.5l-82.6-27.8
			c5.9-41.5,16.6-79.5,27.2-102.9c33.5-74.4,176.7-114.9,255.1-56.4c26.8,20,40.5,56.3,47.5,97c2.3,13.3,3.9,27.1,5,41
			c1.5,18.8,2,37.8,2.2,55.7v0c0.2,14.4,0.1,28.2,0.1,40.8c0,6.3,0,12.3,0.1,17.9c0,0.1,0,0.2,0,0.3c0.2,19.6,1,34.8,3.9,42.9
			C433.4,441,544.2,467.2,513.5,485.3z"/>
		<path class="st7" d="M385.5,259.6c-17.5-2.2-19.8,51-9.9,58.9c9.9,7.9,24.7-9.4,27.7-22.8S393.4,260.6,385.5,259.6z"/>
		<path class="st7" d="M423.3,362.8c-8.2,0.6-16.4-0.9-20.4-4.9c-8.9-8.9-6.7-34.4,7.9-37.2c4-0.8,8.3-0.2,12.5,1.2v0
			C423.4,336.5,423.3,350.2,423.3,362.8z"/>
		<path class="st7" d="M421,266.3c-2.8,1.1-5.3,1.8-7.3,1.9c-9.9,0.8-21.1-28.8-12.9-37.4c3.7-3.9,9.2-5.5,15.2-5.6
			C418.3,238.7,419.9,252.5,421,266.3z"/>
		<path class="st7" d="M343,328.4c-16,5.1-4.9,34.5,7.9,34.6c18.8,0.3,35.1-8.9,31.2-21.3C378.1,329.3,355.4,324.4,343,328.4z"/>
		<path class="st7" d="M348.4,284.8c-17.4-4.2-27.4,18.6-19,25.5c8.4,6.9,24,8.4,27.9-2.5C361.3,297,357.3,286.9,348.4,284.8z"/>
		<path class="st27" d="M307.9,170.3c0,0,11.4-3.7,8.6-9.8c-2.9-6.1-27.7-9-27.7-9s9-6.9,6.9-10.9c-2-3.9-36.7-1.8-36.7-1.8
			s1.6-9.8-3.3-11.4c-4.9-1.6-29.3,11-29.3,11s-5.3-8.6-11-5.7c-4.2,2.1-14,13.8-17.3,18.9c-21.8,11.4-36.5,33.2-36.5,58.2
			c0,36.8,31.9,66.7,71.3,66.7c37.5,0,68.2-27,71.1-61.4c3.2,0.7,7.3,1.1,8.8-1.1c2.4-3.8-6.1-24.3-6.1-24.3s9,5.7,10.2,0
			C318.2,184.2,307.9,170.3,307.9,170.3z"/>
		<g>
			<ellipse class="st2" cx="228.3" cy="208.4" rx="62.6" ry="58.5"/>
			<ellipse class="st3" cx="207.8" cy="210" rx="25.2" ry="23.5"/>
			<ellipse class="st2" cx="197.8" cy="207.1" rx="7.6" ry="7.1"/>
		</g>
		<path class="st27" d="M513.5,485.3c-29,17-241.3,16.7-330.9,10.2c2.7-0.3,176.3-20,209.7-47.8c27.2-22.6,30.7-55,31-66.7
			c0.2,19.6,1,34.8,3.9,42.9C433.4,441,544.2,467.2,513.5,485.3z"/>
		<path class="st7" d="M114.1,387.6c0.7,19.2,9.8,24.5,18.4,22.6c8.6-1.8,16.5-28.8,10.4-36.1C136.7,366.8,113.5,371.7,114.1,387.6z
			"/>
		<path class="st7" d="M91.7,438.3c-5.4-14.2-8.6-30.6-9.8-48.6c7.2-0.4,15.4,10.6,21.2,20.9C108.7,420.6,101.2,433.2,91.7,438.3z"
			/>
		<path class="st7" d="M122.9,423.3c-14.9,3-15,16.3-8.8,20.6c6.1,4.3,24.5-0.4,30.9-10.3C151.4,423.7,134.1,421,122.9,423.3z"/>
	</g>
</g>
<g id="Monster_10">
</g>
<g id="Monster_11">
</g>
<g id="Monster_12">
</g>
<g id="Monster_13">
</g>
<g id="Monster_14">
</g>
<g id="Monster_15">
</g>
<g id="Monster_16">
</g>
<g id="Monster_17">
</g>
<g id="Monster_18">
</g>
<g id="Monster_19">
</g>
<g id="Monster_20">
</g>
</svg>
