<?xml version="1.0" encoding="utf-8"?>
<!-- Generator: Adobe Illustrator 22.0.0, SVG Export Plug-In . SVG Version: 6.00 Build 0)  -->
<svg version="1.1" xmlns="http://www.w3.org/2000/svg" xmlns:xlink="http://www.w3.org/1999/xlink" x="0px" y="0px"
	 viewBox="0 0 600 600" style="enable-background:new 0 0 600 600;" xml:space="preserve">
<style type="text/css">
	.st0{fill:#808739;}
	.st1{fill:#8E9B57;}
	.st2{fill:#FFFFFF;}
	.st3{fill:#282624;}
	.st4{fill:#E88B3F;}
	.st5{fill:#B6C176;}
	.st6{fill:#BF5D2C;}
	.st7{fill:#D36B31;}
	.st8{fill:#E8926D;}
	.st9{fill:#DD7D5B;}
	.st10{fill:#79599E;}
	.st11{fill:#ED9B85;}
	.st12{fill:#9B71BC;}
	.st13{fill:#44342C;}
	.st14{fill:#B899D6;}
	.st15{fill:#8865AA;}
	.st16{fill:#E583AB;}
	.st17{fill:#CE6F9A;}
	.st18{fill:#EDB254;}
	.st19{fill:#5984C1;}
	.st20{fill:#E09E3F;}
	.st21{fill:#426DA0;}
	.st22{fill:#EFA3C6;}
	.st23{fill:#4D527A;}
	.st24{fill:#3B4163;}
	.st25{fill:#F9CB8F;}
	.st26{fill:#D8983D;}
	.st27{fill:#DD9D40;}
	.st28{fill:#C44747;}
	.st29{fill:#D85959;}
	.st30{fill:#E87979;}
	.st31{fill:#A59C4A;}
	.st32{fill:#B7B15C;}
	.st33{fill:#D1C875;}
	.st34{fill:#8259AA;}
	.st35{fill:#87D8D5;}
	.st36{fill:#73C6C6;}
	.st37{fill:#66B5B3;}
	.st38{fill:#F9E9D4;}
	.st39{fill:#F7A4C9;}
	.st40{fill:#EF8854;}
	.st41{fill:#EA7DB1;}
	.st42{fill:#9B5072;}
	.st43{fill:#F7ADCF;}
	.st44{fill:#825B38;}
	.st45{fill:#92DDDB;}
	.st46{fill:#775E96;}
	.st47{fill:#655284;}
	.st48{fill:#755593;}
</style>
<g id="Monster_1">
	<g>
		<path class="st0" d="M248.9,389.3c-7.3,10.9-2.2,30.6-6.2,36c-3.9,5.4-22.2,6.4-30.6,17.7c-8.4,11.3,10.2,15.3,27,16.8
			c16.8,1.5,35.8-1,36.9-7.4c1.1-6.4,1.5-52.3,0-61.1C274.5,381.9,251.9,384.9,248.9,389.3z"/>
		<path class="st0" d="M338.9,389.3c7.3,10.9,2.2,30.6,6.2,36c3.9,5.4,22.2,6.4,30.6,17.7c8.4,11.3-10.2,15.3-27,16.8
			c-16.8,1.5-35.8-1-36.9-7.4c-1.1-6.4-1.5-52.3,0-61.1C313.3,381.9,336,384.9,338.9,389.3z"/>
		<path class="st1" d="M421.6,325.3c1.3,11.4,1.4,20.7,0,26.5c-10.7,44.2-61,71-101.9,71c-40.9,0-78.6,0-108-19.5
			c-14.5-9.6-39.5-44.7-38.2-68.4c0.1-2.2,0.4-4.8,0.8-7.5c-9.1,3.9-25,7.1-23.3,0.3c1.4-5.5,20.2-26.8,32.2-37.3
			c2.1-7.2,4.5-14.7,6.9-22.2c-8.6,3.5-18.1,6.3-18.1-0.4c0-5.9,19.9-30.1,34.5-46.8c2.8-7.8,5.4-14.5,7.2-19.5
			c0.2-0.5,0.4-0.9,0.5-1.4c-6.6-0.7-12.5-3.7-11.7-6.4c1-3.3,13-12.3,25-18c11.8-16,29.2-28.9,53.9-33.8
			c16.9-3.4,48.7-3.9,72.9,11.3c6.6,4.1,12.6,9.5,17.6,16.2c0.9,1.2,1.8,2.5,2.7,4c13.5,5.3,29.2,16.6,30.4,20.4
			c1.1,3.5-8.8,7.4-17.2,6.4c2.4,5.9,4.8,12.2,7.2,18.9c14.6,16.6,36.3,42.8,36.3,48.9c0,7.6-12.3,2.9-21.6-1.1
			c2,7.6,3.8,15.1,5.5,22.4c11.9,10,32.3,32.8,33.7,38.6C451,335.6,428.5,329.9,421.6,325.3z"/>
		<path class="st0" d="M421.6,325.3c1.3,11.4,1.4,20.7,0,26.5c-10.7,44.2-61,71-101.9,71c20.5-9.9,67.4-23.2,78.5-60.7
			c10.6-35.7-3.5-114-9.7-133.4c-11.2-35.4-34.2-75.6-34.2-75.6c6.6,4.1,12.6,9.5,17.6,16.2c0.9,1.2,1.8,2.5,2.7,4
			c13.5,5.3,29.2,16.6,30.4,20.4c1.1,3.5-8.8,7.4-17.2,6.4c2.4,5.9,4.8,12.2,7.2,18.9c14.6,16.6,36.3,42.8,36.3,48.9
			c0,7.6-12.3,2.9-21.6-1.1c2,7.6,3.8,15.1,5.5,22.4c11.9,10,32.3,32.8,33.7,38.6C451,335.6,428.5,329.9,421.6,325.3z"/>
		<g>
			<ellipse class="st2" cx="265.6" cy="237.1" rx="27.8" ry="29.7"/>
			<ellipse class="st3" cx="272.2" cy="246" rx="13.9" ry="14.9"/>
			<circle class="st2" cx="276.4" cy="245.4" r="4.2"/>
		</g>
		<g>
			<ellipse class="st2" cx="336.4" cy="219.8" rx="27.8" ry="29.7"/>
			<ellipse class="st3" cx="329.7" cy="228.7" rx="13.9" ry="14.9"/>
			<path class="st2" d="M329.7,224.5c0,2.3-1.9,4.2-4.2,4.2c-2.3,0-4.2-1.9-4.2-4.2c0-2.3,1.9-4.2,4.2-4.2
				C327.9,220.3,329.7,222.2,329.7,224.5z"/>
		</g>
		<path class="st3" d="M370.9,337.1c-2.3,4-7.4,7.4-14,10.2c-4.3,1.8-9.3,3.4-14.7,4.8c-11.2,2.8-23.9,4.6-34.9,5.2
			c-9.3,0.6-17.4,0.4-22.6-0.5c-1-0.2-1.9-0.4-2.7-0.6c-31.8-9.7-33.7-51.3-30.3-53.5c2.5-1.6,7.8-3.6,14.8-5.7
			c21.8-6.6,59.9-14.7,81.7-17.2c9.1-1.1,15.4-1.1,16.4,0.3C368.9,285.9,381,319.5,370.9,337.1z"/>
		<path class="st2" d="M348.2,279.9c-2.2,5.6-9.9,18.9-11.4,19.2c-1.2,0.2-7.7-7.2-11.8-12.5c-3.8,9.2-13.6,27-15.6,27.4
			c-2,0.4-14.7-14.4-19.8-21.8c-2.8,6.4-9.3,18.2-10.6,18.4c-1.2,0.2-8.6-8.1-12.6-13.5C288.2,290.4,326.4,282.4,348.2,279.9z"/>
		<path class="st4" d="M356.9,347.3c-4.3,1.8-9.3,3.4-14.7,4.8c-11.2,2.8-23.9,4.6-34.9,5.2c-9.3,0.6-17.4,0.4-22.6-0.5
			c1.7-6.2,4.1-11.8,7.2-16.4c13.4-19.8,43-26.1,60.7,0C354,342.7,355.5,345,356.9,347.3z"/>
		<path class="st5" d="M243.6,179.4c6.1-8.4,12.1-12.8,18.9-13c4.5-0.2,4.2,6-1,11.6c-5.3,5.5-8.3,13.9-15,14.8
			C239.7,193.6,240.4,183.8,243.6,179.4z"/>
		<path class="st5" d="M230.4,210.4c2,1.2,7.8,0.2,8.3-3.3c0.5-3.5-3-5.8-6.6-4.6C227.9,203.8,228.4,209.2,230.4,210.4z"/>
		<path class="st0" d="M208.7,362.7c-8.6,2.9-4.3,9.7,0,14.2c4.3,4.5,11.6-3.7,11.6-7.1C220.3,366.4,212.9,361.3,208.7,362.7z"/>
		<path class="st0" d="M206.1,328.3c-5.5,1-6.8,12-2.4,15.9c4.4,3.9,12.8,3.5,15.1-3.8C221.1,333.1,213.5,326.9,206.1,328.3z"/>
		<path class="st0" d="M387.4,279.6c-3.6-3.3-11.8,1.5-12.3,6.6c-0.4,5.1,4.2,10.7,10.4,8.5C391.8,292.5,392.2,284,387.4,279.6z"/>
		<path class="st0" d="M234.5,291.8c-4.2,0.8-6.1,7.8-2.7,10.8c3.4,3,9.8,2.7,11.5-2.9C245.1,294.1,240.1,290.7,234.5,291.8z"/>
		<path class="st0" d="M236.7,341.1c-2.7,0.5-3.9,4.9-1.7,6.9c2.2,1.9,6.2,1.7,7.4-1.8C243.4,342.6,240.3,340.5,236.7,341.1z"/>
		<path class="st0" d="M359.7,252.8c-2.7,0.5-3.9,4.9-1.7,6.9s6.2,1.7,7.4-1.8C366.5,254.2,363.3,252.1,359.7,252.8z"/>
	</g>
</g>
<g id="Monster_2">
</g>
<g id="Monster_3">
</g>
<g id="Monster_4">
</g>
<g id="Monster_5">
</g>
<g id="Monster_6">
</g>
<g id="Monster_7">
</g>
<g id="Monster_8">
</g>
<g id="Monster_9">
</g>
<g id="Monster_10">
</g>
<g id="Monster_11">
</g>
<g id="Monster_12">
</g>
<g id="Monster_13">
</g>
<g id="Monster_14">
</g>
<g id="Monster_15">
</g>
<g id="Monster_16">
</g>
<g id="Monster_17">
</g>
<g id="Monster_18">
</g>
<g id="Monster_19">
</g>
<g id="Monster_20">
</g>
</svg>
