<?xml version="1.0" encoding="utf-8"?>
<!-- Generator: Adobe Illustrator 22.0.0, SVG Export Plug-In . SVG Version: 6.00 Build 0)  -->
<svg version="1.1" xmlns="http://www.w3.org/2000/svg" xmlns:xlink="http://www.w3.org/1999/xlink" x="0px" y="0px"
	 viewBox="0 0 600 600" style="enable-background:new 0 0 600 600;" xml:space="preserve">
<style type="text/css">
	.st0{fill:#808739;}
	.st1{fill:#8E9B57;}
	.st2{fill:#FFFFFF;}
	.st3{fill:#282624;}
	.st4{fill:#E88B3F;}
	.st5{fill:#B6C176;}
	.st6{fill:#BF5D2C;}
	.st7{fill:#D36B31;}
	.st8{fill:#E8926D;}
	.st9{fill:#DD7D5B;}
	.st10{fill:#79599E;}
	.st11{fill:#ED9B85;}
	.st12{fill:#9B71BC;}
	.st13{fill:#44342C;}
	.st14{fill:#B899D6;}
	.st15{fill:#8865AA;}
	.st16{fill:#E583AB;}
	.st17{fill:#CE6F9A;}
	.st18{fill:#EDB254;}
	.st19{fill:#5984C1;}
	.st20{fill:#E09E3F;}
	.st21{fill:#426DA0;}
	.st22{fill:#EFA3C6;}
	.st23{fill:#4D527A;}
	.st24{fill:#3B4163;}
	.st25{fill:#F9CB8F;}
	.st26{fill:#D8983D;}
	.st27{fill:#DD9D40;}
	.st28{fill:#C44747;}
	.st29{fill:#D85959;}
	.st30{fill:#E87979;}
	.st31{fill:#A59C4A;}
	.st32{fill:#B7B15C;}
	.st33{fill:#D1C875;}
	.st34{fill:#8259AA;}
	.st35{fill:#87D8D5;}
	.st36{fill:#73C6C6;}
	.st37{fill:#66B5B3;}
	.st38{fill:#F9E9D4;}
	.st39{fill:#F7A4C9;}
	.st40{fill:#EF8854;}
	.st41{fill:#EA7DB1;}
	.st42{fill:#9B5072;}
	.st43{fill:#F7ADCF;}
	.st44{fill:#825B38;}
	.st45{fill:#92DDDB;}
	.st46{fill:#775E96;}
	.st47{fill:#655284;}
	.st48{fill:#755593;}
</style>
<g id="Monster_1">
</g>
<g id="Monster_2">
</g>
<g id="Monster_3">
</g>
<g id="Monster_4">
</g>
<g id="Monster_5">
</g>
<g id="Monster_6">
</g>
<g id="Monster_7">
</g>
<g id="Monster_8">
</g>
<g id="Monster_9">
</g>
<g id="Monster_10">
</g>
<g id="Monster_11">
</g>
<g id="Monster_12">
	<g>
		<path class="st32" d="M424.7,274.2c-9.4,18.9-11.2,137.6-19.7,162.3c-3,8.6-14.5,22.2-13.3,30.3c1.2,8.1,11.6,0,11.6,0
			s-15.8,17.3-11.7,24.9c4.1,7.5,18.6-10.4,18.6-10.4s-5.2,15.1,4.6,15.7c9.9,0.6,15.1-30.7,16.8-45.2c1.7-14.5,9.3-126,9.9-145.9
			C442.1,285.8,427.6,268.4,424.7,274.2z"/>
		<path class="st32" d="M147,226.6c7.7,19.6-1.2,138.1,5.1,163.4c2.2,8.8,12.4,23.4,10.6,31.3c-1.9,7.9-11.6-1-11.6-1
			s14.2,18.7,9.4,25.8c-4.8,7.1-17.6-12.1-17.6-12.1s3.8,15.5-6,15.2c-9.9-0.3-12.3-32-12.7-46.6c-0.4-14.6,2.1-126.3,3.3-146.2
			C128.6,236.6,144.6,220.6,147,226.6z"/>
		<path class="st32" d="M238,405.9c0.9,16.2,2.8,95.9,3.4,101.3c0.6,5.4-24.3-0.5-38.5,13.4c-14.2,13.9-6.5,19.4-2,20.1
			c6,1,62.2-1.3,63.2-4s12.3-119,9.2-126.5C270.3,402.7,237.7,400.6,238,405.9z"/>
		<path class="st32" d="M315.1,405.9c-0.9,16.2-2.8,95.9-3.4,101.3c-0.6,5.4,24.3-0.5,38.5,13.4c14.2,13.9,6.5,19.4,2,20.1
			c-6,1-62.2-1.3-63.2-4s-12.3-119-9.2-126.5C282.9,402.7,315.4,400.6,315.1,405.9z"/>
		<path class="st12" d="M383.6,404.8c-43.5,31.7-103.5,49.8-155.6,26c-12.9-5.9-25.3-14.3-36.8-25.7c-63.6-62.8-92.1-193.8-68-238.9
			c24.1-45.1,74.3-15.7,74.3-15.7s9.9-57.8,60.1-79.3c78.7-33.6,138.3,9.7,158.6,43.7c20.6,34.5,15.3,59.4,15.3,59.4
			s34.2-23.3,50.7,14.2c0.1,0.2,0.2,0.5,0.3,0.7C499,227.7,437.8,365.2,383.6,404.8z"/>
		
			<ellipse transform="matrix(0.7071 -0.7071 0.7071 0.7071 -108.0067 239.5483)" class="st2" cx="235.2" cy="250.1" rx="60.7" ry="60.7"/>
		
			<ellipse transform="matrix(0.9789 -0.2043 0.2043 0.9789 -46.2617 52.6922)" class="st3" cx="232.1" cy="250.4" rx="38.7" ry="38.7"/>
		<path class="st2" d="M261.5,243.7c0.4,4.4-2.9,8.2-7.2,8.5s-8.2-2.9-8.5-7.2c-0.4-4.4,2.9-8.2,7.2-8.5
			C257.4,236.1,261.2,239.4,261.5,243.7z"/>
		<g>
			
				<ellipse transform="matrix(0.9979 -6.411189e-02 6.411189e-02 0.9979 -17.9954 25.0373)" class="st2" cx="381.1" cy="292.9" rx="50.9" ry="50.9"/>
			
				<ellipse transform="matrix(0.523 -0.8524 0.8524 0.523 -67.8576 464.591)" class="st3" cx="381.1" cy="292.9" rx="29.7" ry="29.7"/>
			<path class="st2" d="M374.5,297.4c0.4,4.4-2.9,8.2-7.2,8.5c-4.4,0.4-8.2-2.9-8.5-7.2s2.9-8.2,7.2-8.5S374.2,293,374.5,297.4z"/>
		</g>
		<g>
			
				<ellipse transform="matrix(0.7071 -0.7071 0.7071 0.7071 -12.1454 283.6258)" class="st2" cx="336.3" cy="156.5" rx="63.5" ry="63.5"/>
			
				<ellipse transform="matrix(0.7071 -0.7071 0.7071 0.7071 -15.2495 285.2222)" class="st3" cx="336.7" cy="161" rx="41.6" ry="41.6"/>
			<path class="st2" d="M342.8,178.2c0.5,6.1-4,11.5-10.1,12c-6.1,0.5-11.5-4-12-10.1c-0.5-6.1,4-11.5,10.1-12
				C337,167.6,342.3,172.1,342.8,178.2z"/>
		</g>
		<path class="st3" d="M326.4,395.1c-19.5,9-73.2,3.8-92.7-17.2c-11.5-12.3-16-46.9-11.1-46.3c2,0.3,5.6,0.8,10.3,1.5
			c5,0.7,11.4,1.7,18.5,2.8c2.9,0.4,5.9,0.9,9,1.4c4.2,0.7,8.6,1.4,13,2.1c4.6,0.7,9.3,1.5,13.9,2.3c3.8,0.6,7.5,1.3,11.3,1.9
			c5.1,0.9,10.1,1.8,15,2.7c4.4,0.8,8.7,1.7,12.7,2.5c3.5,0.7,6.9,1.4,10,2.2c7,1.6,12.6,3.1,16.2,4.5c2.5,1,4,1.8,4.2,2.6
			C358.5,365.4,345.9,386.1,326.4,395.1z"/>
		<path class="st2" d="M251.4,335.9c-2.7,11.3-9,29.4-12.5,28.4c-3.3-1-5.4-19.4-6-31.2C237.9,333.9,244.3,334.8,251.4,335.9z"/>
		<path class="st2" d="M352.5,355.5c-4,10.4-9.9,22.3-12.7,21.1c-2.7-1.1-3.5-14.4-3.4-25.6C343.3,352.6,348.9,354.1,352.5,355.5z"
			/>
		<path class="st2" d="M273.4,339.4c-3.6,8-7.6,14.9-9.7,14c-2-0.8-2.9-7.9-3.3-16.1C264.6,338,268.9,338.7,273.4,339.4z"/>
		<path class="st2" d="M298.6,343.6c-3.1,6.4-6.3,11.4-8.2,10.7c-1.7-0.7-2.6-6-3.1-12.6C291.1,342.3,294.9,343,298.6,343.6z"/>
		<path class="st2" d="M326.3,348.9c-3.5,7.7-7.4,14.3-9.5,13.4c-1.9-0.8-2.9-7.9-3.3-15.9C318,347.2,322.3,348,326.3,348.9z"/>
		<path class="st34" d="M383.6,404.8c-43.5,31.7-103.5,49.8-155.6,26c62.5,6.8,126.9-14,171.8-58.7c53.5-53.3,74.1-143.1,82.5-183.6
			c0.1,0.2,0.2,0.5,0.3,0.7C499,227.7,437.8,365.2,383.6,404.8z"/>
		<path class="st14" d="M145.7,160.9c-13.5,5.9-15.9,45.7-14.3,54.9c1.6,9.1,11-1,14.9-10.4c4.5-10.6,10.5-27.3,11.2-35.8
			C158.2,161.4,152.1,158.1,145.7,160.9z"/>
		<path class="st14" d="M172.5,162.9c-4.8,4.5-7.8,18.2-5.1,20.9c2.7,2.7,12.7-6.9,14.7-13.7C184.1,163.3,177.6,158.1,172.5,162.9z"
			/>
	</g>
</g>
<g id="Monster_13">
</g>
<g id="Monster_14">
</g>
<g id="Monster_15">
</g>
<g id="Monster_16">
</g>
<g id="Monster_17">
</g>
<g id="Monster_18">
</g>
<g id="Monster_19">
</g>
<g id="Monster_20">
</g>
</svg>
