<?xml version="1.0" encoding="utf-8"?>
<!-- Generator: Adobe Illustrator 22.0.0, SVG Export Plug-In . SVG Version: 6.00 Build 0)  -->
<svg version="1.1" xmlns="http://www.w3.org/2000/svg" xmlns:xlink="http://www.w3.org/1999/xlink" x="0px" y="0px"
	 viewBox="0 0 600 600" style="enable-background:new 0 0 600 600;" xml:space="preserve">
<style type="text/css">
	.st0{fill:#808739;}
	.st1{fill:#8E9B57;}
	.st2{fill:#FFFFFF;}
	.st3{fill:#282624;}
	.st4{fill:#E88B3F;}
	.st5{fill:#B6C176;}
	.st6{fill:#BF5D2C;}
	.st7{fill:#D36B31;}
	.st8{fill:#E8926D;}
	.st9{fill:#DD7D5B;}
	.st10{fill:#79599E;}
	.st11{fill:#ED9B85;}
	.st12{fill:#9B71BC;}
	.st13{fill:#44342C;}
	.st14{fill:#B899D6;}
	.st15{fill:#8865AA;}
	.st16{fill:#E583AB;}
	.st17{fill:#CE6F9A;}
	.st18{fill:#EDB254;}
	.st19{fill:#5984C1;}
	.st20{fill:#E09E3F;}
	.st21{fill:#426DA0;}
	.st22{fill:#EFA3C6;}
	.st23{fill:#4D527A;}
	.st24{fill:#3B4163;}
	.st25{fill:#F9CB8F;}
	.st26{fill:#D8983D;}
	.st27{fill:#DD9D40;}
	.st28{fill:#C44747;}
	.st29{fill:#D85959;}
	.st30{fill:#E87979;}
	.st31{fill:#A59C4A;}
	.st32{fill:#B7B15C;}
	.st33{fill:#D1C875;}
	.st34{fill:#8259AA;}
	.st35{fill:#87D8D5;}
	.st36{fill:#73C6C6;}
	.st37{fill:#66B5B3;}
	.st38{fill:#F9E9D4;}
	.st39{fill:#F7A4C9;}
	.st40{fill:#EF8854;}
	.st41{fill:#EA7DB1;}
	.st42{fill:#9B5072;}
	.st43{fill:#F7ADCF;}
	.st44{fill:#825B38;}
	.st45{fill:#92DDDB;}
	.st46{fill:#775E96;}
	.st47{fill:#655284;}
	.st48{fill:#755593;}
</style>
<g id="Monster_1">
</g>
<g id="Monster_2">
</g>
<g id="Monster_3">
</g>
<g id="Monster_4">
</g>
<g id="Monster_5">
	<g>
		<g>
			<path class="st23" d="M366.5,532c-5.6,16.8-62.6,14.4-66-1.2c-1.3-5.9-4.5-35.7-8-72.4c-0.4-4.1-0.8-8.3-1.2-12.5
				c-0.3-3.6-0.7-7.2-1-10.8c-0.4-4.1-0.8-8.3-1.1-12.5c-1.6-18.4-3.2-37.1-4.6-54.4c-2.5-31.9-4.3-59-4.3-70.6
				c0-8.7,20.1-16.3,23.5-1.6c1.3,5.6,4.4,36.3,7.7,72.2c1.7,17.6,3.4,36.5,5,54.4c0.4,4.2,0.8,8.4,1.1,12.5c0.3,3.7,0.6,7.3,1,10.8
				c0.4,4.3,0.8,8.5,1.1,12.5c2.2,24.6,3.6,41.9,3.6,41.9s19-2.2,30.5,4.2C361.7,508.7,372.1,515.2,366.5,532z"/>
			<path class="st23" d="M255.5,297.6c0,11.6-1.7,38.8-4.3,70.6c-1.4,17.3-3,36-4.6,54.4c-0.4,4.2-0.8,8.4-1.1,12.5
				c-0.3,3.6-0.7,7.2-1,10.8c-0.4,4.2-0.8,8.4-1.2,12.5c-3.5,36.6-6.7,66.4-8,72.4c-3.4,15.7-60.4,18-66,1.2
				c-5.6-16.8,4.8-23.2,12.6-27.5c11.6-6.4,30.6-4.2,30.6-4.2s1.5-17.3,3.6-41.9c0.4-4,0.7-8.2,1.1-12.5c0.3-3.5,0.6-7.1,0.9-10.8
				c0.4-4.1,0.7-8.3,1.1-12.5c1.6-17.8,3.3-36.7,5-54.4c3.4-35.9,6.5-66.6,7.7-72.2C235.4,281.3,255.5,288.9,255.5,297.6z"/>
		</g>
		<path class="st24" d="M255.5,297.6c0,11.6-1.7,38.8-4.3,70.6h-26.9c3.4-35.9,6.5-66.6,7.7-72.2
			C235.4,281.3,255.5,288.9,255.5,297.6z"/>
		<path class="st24" d="M311.6,368.2h-26.9c-2.5-31.9-4.3-59-4.3-70.6c0-8.7,20.1-16.3,23.5-1.6
			C305.1,301.6,308.2,332.3,311.6,368.2z"/>
		<path class="st18" d="M361.7,321.3c-2.6,3.5-6.3,6.6-11,9.5C308.9,356.3,192.3,356,169,310.1c-19.1-37.6-8.9-143.1,53.3-166.5
			c26.3-9.9,77.8-10.9,110.4,10.4c3.6,2.3,7,5,10.1,7.9C368.7,186.3,390.9,282.2,361.7,321.3z"/>
		<path class="st18" d="M174.5,199c-34.3,21.5-104.4,48.8-104.4,70.3c0,32,89.2,33.1,84.1,44.3c-5.1,11.1-14,19.3-5.1,27
			c8.9,7.7,25.8-18.6,24.8-30.8c-1.4-18.9-74.5-32.9-71.3-40.5c3.2-7.6,70.1-40.6,75.8-48.3C184.2,213.3,182.3,194.2,174.5,199z"/>
		<path class="st18" d="M348.8,182.2c14.7,7.1,72.7,17.1,90.4,14c17.7-3.1,41.4-87,42.9-97c1.5-10-7.5-26-1.7-30.2
			c5.8-4.2,8.9,12.1,8.9,12.1s3.2-22,8.3-24.5c5.8-2.9,4.8,20.7,4.8,20.7s8.5-17.6,13.6-15.3c5.2,2.3-6.8,24.5-6.8,24.5
			s15.3-9.8,16.1-3.7c0.8,6.1-15,14.4-15,14.4s23.2-1.5,19,6.2c-4.3,7.7-22.9,1.9-27.2,7.7c-4.2,5.8-22,75-32,96.8
			c-6.9,14.9-11.1,25-30.9,25c-17.7,0-73.6-8.1-83.2-8.8C346.5,223.3,348.8,182.2,348.8,182.2z"/>
		<path class="st13" d="M317.6,254c-1.2,2.1-3.5,4.1-6.5,5.9c-13.7,8.3-42.2,13-54.9,10.3c-9.9-2.1-17.3-5.5-22.7-9.3
			c-5.4-3.8-8.9-8-11.2-11.7c-3.6-5.9-4.2-31.5,0-34.5c0.9-0.6,2.8-1.1,5.6-1.5c3.4-0.5,8-0.8,13.3-0.9c2-0.1,4-0.1,6.2-0.1
			c4-0.1,8.2-0.1,12.6,0c2.3,0,4.7,0.1,7.1,0.1c4.2,0.1,8.5,0.2,12.7,0.3c1.4,0,2.9,0.1,4.3,0.1c4.6,0.2,9.1,0.3,13.2,0.5h0
			c2.4,0.1,4.7,0.2,6.8,0.4c4.8,0.2,8.8,0.5,11.7,0.7c2.1,0.2,3.6,0.3,4.2,0.5C325.8,215.8,326.2,239.6,317.6,254z"/>
		<path class="st2" d="M241.3,212.1c-1.6,5.6-4.8,12.3-7.1,12.1c-1.7-0.2-4.9-5.9-6.2-11.1C231.3,212.6,235.9,212.3,241.3,212.1z"/>
		<path class="st2" d="M260.1,212c-1.5,5.5-4.2,12.2-6.7,12.2c-1.8,0-4.8-6.8-5.9-12.2C251.5,211.9,255.7,211.9,260.1,212z"/>
		<path class="st2" d="M279.9,212.4c-1.5,5.2-4.3,11.8-6.8,11.8c-1.8,0-4.7-6.7-5.9-12.1C271.4,212.1,275.7,212.2,279.9,212.4z"/>
		<path class="st2" d="M297.3,213c-1.7,5.4-4.6,11.4-6.8,11.2c-1.7-0.2-5.2-6.4-6.4-11.7C288.8,212.7,293.2,212.9,297.3,213z"/>
		<path class="st2" d="M315.8,214.1c-1.6,5-3.9,10.1-6.1,10.1c-1.6,0-4.3-5.7-5.6-10.8C308.9,213.6,312.9,213.9,315.8,214.1z"/>
		<path class="st17" d="M311.1,259.9c-13.7,8.3-42.2,13-54.9,10.3c-9.9-2.1-17.3-5.5-22.7-9.3c4.3-8.8,17.9-16.8,25-17.6
			c9.7-1.1,14.2,7.4,15.1,6.1c1.9-2.9,5.4-11.1,17-10.4C299.3,239.4,309,250.7,311.1,259.9z"/>
		<path class="st23" d="M201.7,161.9c-7.8-10.2-12.6-62,0-69.2c12.6-7.2,35.8,49.2,34.4,56.8C234.7,157.2,204.5,165.6,201.7,161.9z"
			/>
		<path class="st2" d="M250.4,162.8c15.5-12,41.8-4.5,44.4,8.1c2.6,12.6,1.7,27-15.8,29.2c-17.5,2.1-27.2-2.4-31.4-8.8
			C241.3,181.9,244,167.7,250.4,162.8z"/>
		
			<ellipse transform="matrix(0.1567 -0.9876 0.9876 0.1567 52.0182 416.6327)" class="st13" cx="270" cy="177.9" rx="12.9" ry="12.9"/>
		<path class="st2" d="M274.1,176c0,1.9-1.6,3.5-3.5,3.5c-1.9,0-3.5-1.6-3.5-3.5c0-1.9,1.6-3.5,3.5-3.5
			C272.6,172.5,274.1,174.1,274.1,176z"/>
		<path class="st25" d="M201.2,177.9c-9-1.3-16.3,28.3-18.8,37c-2.5,8.7-3.2,11.9,0,13.7c3.2,1.8,12.5-18.3,17.1-26.5
			S207.8,178.8,201.2,177.9z"/>
		<path class="st17" d="M246.7,422.6c-0.4,4.2-0.8,8.4-1.1,12.5h-27.3c0.4-4.1,0.7-8.3,1.1-12.5H246.7z"/>
		<path class="st17" d="M244.5,445.9c-0.4,4.2-0.8,8.4-1.2,12.5h-27.2c0.4-4,0.7-8.2,1.1-12.5H244.5z"/>
		<path class="st17" d="M317.6,435.1h-27.3c-0.4-4.1-0.8-8.3-1.1-12.5h27.3C316.9,426.8,317.3,431,317.6,435.1z"/>
		<path class="st17" d="M319.7,458.4h-27.2c-0.4-4.1-0.8-8.3-1.2-12.5h27.2C319,450.2,319.4,454.4,319.7,458.4z"/>
		<g>
			<path class="st26" d="M348.6,284.6c-0.1,3,1.7,6,4.8,6.8c2.1,0.5,4.3-0.2,5.8-1.7c1.5-1.5,2.2-3.8,1.6-5.8c-0.5-1.6-1.5-3-3-3.8
				c-0.9-0.5-2-0.8-3-0.8c-1.1,0-2.1,0.3-3,0.7c-1.5,0.7-2.5,2.2-3,3.8c-0.2,0.6-0.3,1.3-0.3,2c0,1.2,0.3,2,0.8,3.1
				c0.5,1.1,1.9,2,3,2.3c1.2,0.3,2.8,0.2,3.9-0.5c1.1-0.7,2-1.7,2.3-3c0.1-0.4,0.1-0.9,0.2-1.3c0-0.9-0.2-1.7-0.7-2.5
				c0,0,0-0.1-0.1-0.1c0.2,0.4,0.3,0.8,0.5,1.2c0-0.1-0.1-0.2-0.1-0.4c0.1,0.4,0.1,0.9,0.2,1.3c0-0.1,0-0.2,0-0.4
				c-0.1,0.4-0.1,0.9-0.2,1.3c0-0.1,0-0.2,0.1-0.4c-0.2,0.4-0.3,0.8-0.5,1.2c0-0.1,0.1-0.2,0.2-0.3c-0.3,0.3-0.5,0.7-0.8,1
				c0.1-0.1,0.2-0.2,0.2-0.3c-0.3,0.3-0.7,0.5-1,0.8c0.1-0.1,0.2-0.1,0.3-0.2c-0.4,0.2-0.8,0.3-1.2,0.5c0.1,0,0.2,0,0.2-0.1
				c-0.4,0.1-0.9,0.1-1.3,0.2c0.1,0,0.2,0,0.4,0c-0.4-0.1-0.9-0.1-1.3-0.2c0.1,0,0.2,0.1,0.4,0.1c-0.4-0.2-0.8-0.3-1.2-0.5
				c0.1,0.1,0.2,0.1,0.3,0.2c-0.3-0.3-0.7-0.5-1-0.8c0.1,0.1,0.1,0.1,0.2,0.2c-0.3-0.3-0.5-0.7-0.8-1c0.1,0.1,0.1,0.1,0.1,0.2
				c-0.2-0.4-0.3-0.8-0.5-1.2c0.1,0.1,0.1,0.2,0.1,0.4c-0.1-0.4-0.1-0.9-0.2-1.3c0,0.1,0,0.2,0,0.3c0.1-0.4,0.1-0.9,0.2-1.3
				c0,0.1,0,0.2-0.1,0.2c0.2-0.4,0.3-0.8,0.5-1.2c0,0.1-0.1,0.2-0.1,0.2c0.3-0.3,0.5-0.7,0.8-1c-0.1,0.1-0.2,0.2-0.3,0.3
				c0.3-0.3,0.7-0.5,1-0.8c-0.1,0.1-0.1,0.1-0.2,0.1c0.4-0.2,0.8-0.3,1.2-0.5c-0.1,0-0.2,0.1-0.2,0.1c0.4-0.1,0.9-0.1,1.3-0.2
				c-0.1,0-0.2,0-0.3,0c0.4,0.1,0.9,0.1,1.3,0.2c-0.1,0-0.2,0-0.2-0.1c0.4,0.2,0.8,0.3,1.2,0.5c-0.1-0.1-0.2-0.1-0.3-0.2
				c0.3,0.3,0.7,0.5,1,0.8c-0.1-0.1-0.1-0.1-0.2-0.2c0.3,0.3,0.5,0.7,0.8,1c-0.1-0.1-0.2-0.3-0.2-0.4c0.2,0.4,0.3,0.8,0.5,1.2
				c-0.1-0.2-0.1-0.4-0.2-0.6c0.1,0.4,0.1,0.9,0.2,1.3c0-0.2,0-0.3,0-0.5c0-1.3-0.6-2.7-1.5-3.5c-0.9-0.9-2.3-1.5-3.5-1.5
				c-1.3,0.1-2.6,0.5-3.5,1.5C349.1,282.1,348.6,283.3,348.6,284.6L348.6,284.6z"/>
		</g>
		<g>
			<path class="st26" d="M343.1,270.7c0.8,0.7,1.5,1.2,2.5,1.5c1,0.3,2.1,0.3,3,0c2.5-0.7,4.2-3.2,3.8-5.8c-0.3-2.2-1.8-3.8-3.9-4.5
				c-0.9-0.3-2-0.3-2.9,0c-0.4,0.1-0.9,0.4-1.3,0.5c-0.8,0.5-1.3,1.1-1.8,1.9c-0.7,1-0.8,2.7-0.5,3.9c0.3,1.2,1.2,2.4,2.3,3
				c1.2,0.6,2.6,0.9,3.9,0.5c0.4-0.2,0.8-0.3,1.2-0.5c0.8-0.4,1.3-1,1.8-1.8c0,0,0,0,0.1-0.1c-0.6,0.6-1.2,1.2-1.8,1.8
				c0,0,0,0,0.1,0c-0.4,0.2-0.8,0.3-1.2,0.5c0,0,0.1,0,0.1,0c-0.4,0.1-0.9,0.1-1.3,0.2c0,0,0.1,0,0.1,0c-0.4-0.1-0.9-0.1-1.3-0.2
				c0,0,0.1,0,0.1,0c-0.4-0.2-0.8-0.3-1.2-0.5c0.1,0,0.1,0.1,0.2,0.1c-0.3-0.3-0.7-0.5-1-0.8c0,0,0,0,0.1,0.1
				c-0.3-0.3-0.5-0.7-0.8-1c0,0,0,0,0,0.1c-0.2-0.4-0.3-0.8-0.5-1.2c0,0,0,0.1,0,0.1c-0.1-0.4-0.1-0.9-0.2-1.3c0,0,0,0.1,0,0.1
				c0.2-0.8,0.5-1.7,0.7-2.5c0,0,0,0.1,0,0.1c0.6-0.6,1.2-1.2,1.8-1.8c0,0-0.1,0-0.1,0.1c0.4-0.2,0.8-0.3,1.2-0.5
				c-0.1,0-0.2,0.1-0.2,0.1c0.4-0.1,0.9-0.1,1.3-0.2c0,0-0.1,0-0.1,0c0.4,0.1,0.9,0.1,1.3,0.2c-0.1,0-0.2,0-0.2-0.1
				c0.4,0.2,0.8,0.3,1.2,0.5c0,0-0.1,0-0.1-0.1c0.3,0.3,0.7,0.5,1,0.8c0,0-0.1-0.1-0.1-0.1c-1.1-0.9-2.1-1.5-3.5-1.5
				c-1.2,0-2.7,0.5-3.5,1.5c-0.9,1-1.5,2.2-1.5,3.5C341.7,268.4,342.1,269.9,343.1,270.7L343.1,270.7z"/>
		</g>
		<g>
			<path class="st26" d="M336.8,302.9c-5.9-2-10.9,5.3-7.7,10.3c2.7,4.4,9.3,5,12.8,1.1c3.8-4.3,2-11.5-3.8-12.9
				c-5.4-1.4-11.1,3.8-9.3,9.4c1.1,3.3,4.3,5.4,7.8,5c3.3-0.4,6.1-3.6,5.9-7c-0.2-2.6-2.2-5.1-5-5c-2.6,0.1-5.2,2.2-5,5
				c-0.1-0.8,0.9-2.1,1.5-2.4c1.1-0.5,2.5-0.6,3.5,0.2c0.4,0.3,0.7,0.8,0.9,1.3c0.2,0.7,0.2,1.4-0.1,2c-0.2,0.4-0.2,0.4,0,0
				c-0.4,0.6-0.8,1-1.4,1.2c-0.2,0-0.5,0.1-0.7,0.1c-0.7-0.1-0.9-0.2-0.5-0.1c0.4,0.1-0.7-0.4-0.9-0.6c-0.5-0.5-0.7-1.1-0.7-1.8
				c0,0.8,0.1-0.3,0.2-0.6c0.2-0.5,0.6-0.9,1-1.1c-0.9,0.5,1-0.2,0,0c0.2,0,0.4-0.1,0.7-0.1c0.8,0.2,1,0.2,0.4,0
				c0.2,0.1,0.4,0.2,0.6,0.3c-0.3-0.2-0.3-0.2,0,0c0.4,0.5,0.8,0.8,1,1.4c0.6,2.1-1.4,4.6-3.8,3.8c2.5,0.8,5.6-0.9,6.2-3.5
				C340.9,306.3,339.4,303.7,336.8,302.9L336.8,302.9z"/>
		</g>
		<g>
			<path class="st26" d="M341.6,206.7c1.2,0.1,2.3-0.9,2.6-1.9c0.3-0.9,0-1.8-0.5-2.6c-0.7-1-2.1-1.3-3.2-0.8
				c-0.7,0.3-1.3,0.9-1.7,1.6c-0.6,1.2-0.3,2.8,0.9,3.4c1.1,0.6,2.8,0.3,3.4-0.9c0-0.1,0.1-0.2,0.1-0.2c-0.7,0.6-0.9,0.8-0.5,0.6
				c-0.4,0.1-0.8,0.2-1.3,0.3c-0.3-0.1-0.7-0.2-1-0.3c-0.3-0.3-0.6-0.6-0.9-0.9c-0.3-0.7-0.3-1.4,0-2.1c0.3-0.3,0.6-0.6,0.9-0.9
				c0,0,0,0-0.1,0c0.4-0.1,0.8-0.2,1.3-0.3c0,0-0.1,0-0.1,0c-0.6-0.1-1.4,0.3-1.8,0.7c-0.4,0.4-0.8,1.1-0.7,1.8
				c0,0.6,0.2,1.3,0.7,1.8C340.3,206.5,340.9,206.7,341.6,206.7L341.6,206.7z"/>
		</g>
		<g>
			<path class="st26" d="M325.2,289.8c0.3,1.6,2.2,2.6,3.7,2.1c1.6-0.6,2.2-2.2,1.5-3.7c-0.6-1.2-2.2-1.8-3.4-1.4
				c-1.2,0.4-2.4,1.5-2.2,2.9c0.1,0.7,0.2,1.3,0.7,1.8c0.4,0.4,1.1,0.8,1.8,0.7c1.2-0.1,2.6-1.1,2.5-2.5c0,0.4-0.2,0.8-0.6,1.1
				c-0.2,0.4-0.5,0.7-0.9,0.8c-0.8,0.2-1.9-0.1-2.2-0.9c0.5-1.2,1-2.4,1.5-3.7c0.8,0.5,1.6,0.9,2.5,1.4c-0.3-1.3-1.9-2.1-3.1-1.7
				C325.6,287.1,324.9,288.4,325.2,289.8L325.2,289.8z"/>
		</g>
		<g>
			<path class="st26" d="M269.4,332.2c1.1,0.7,2.4,0.6,3.5,0.1c1-0.5,1.4-1.8,1.1-2.8c-0.2-0.8-0.7-1.4-1.4-1.8
				c-0.6-0.4-1.6-0.5-2.3-0.3c-0.6,0.3-1.1,0.5-1.5,1.1c-0.3,0.5-0.4,1.3-0.3,1.9c0.4,1.2,1.8,2.3,3.1,1.7c-0.8-0.5-1.6-1-2.5-1.4
				c0.4-0.9,0.8-1.9,1.1-2.8c0.4-0.3,0.9-0.3,1.3-0.1c0.4,0.2,0.6,0.2,0.3,0c-1.1-0.7-2.8-0.2-3.4,0.9
				C267.8,330.1,268.3,331.4,269.4,332.2L269.4,332.2z"/>
		</g>
		<path class="st27" d="M361.7,321.3c-2.6,3.5-6.3,6.6-11,9.5c8.3-17.2,16.5-43.2,13.5-75.9c-5.5-61.6-40-94.5-40-94.5l8.5-6.5
			c3.6,2.3,7,5,10.1,7.9C368.7,186.3,390.9,282.2,361.7,321.3z"/>
		<path class="st23" d="M333.3,163.7c7.8-10.2,12.6-62,0-69.2c-12.6-7.2-35.8,49.2-34.4,56.8C300.2,159,330.5,167.4,333.3,163.7z"/>
	</g>
</g>
<g id="Monster_6">
</g>
<g id="Monster_7">
</g>
<g id="Monster_8">
</g>
<g id="Monster_9">
</g>
<g id="Monster_10">
</g>
<g id="Monster_11">
</g>
<g id="Monster_12">
</g>
<g id="Monster_13">
</g>
<g id="Monster_14">
</g>
<g id="Monster_15">
</g>
<g id="Monster_16">
</g>
<g id="Monster_17">
</g>
<g id="Monster_18">
</g>
<g id="Monster_19">
</g>
<g id="Monster_20">
</g>
</svg>
