<?xml version="1.0" encoding="utf-8"?>
<!-- Generator: Adobe Illustrator 22.0.0, SVG Export Plug-In . SVG Version: 6.00 Build 0)  -->
<svg version="1.1" xmlns="http://www.w3.org/2000/svg" xmlns:xlink="http://www.w3.org/1999/xlink" x="0px" y="0px"
	 viewBox="0 0 600 600" style="enable-background:new 0 0 600 600;" xml:space="preserve">
<style type="text/css">
	.st0{fill:#808739;}
	.st1{fill:#8E9B57;}
	.st2{fill:#FFFFFF;}
	.st3{fill:#282624;}
	.st4{fill:#E88B3F;}
	.st5{fill:#B6C176;}
	.st6{fill:#BF5D2C;}
	.st7{fill:#D36B31;}
	.st8{fill:#E8926D;}
	.st9{fill:#DD7D5B;}
	.st10{fill:#79599E;}
	.st11{fill:#ED9B85;}
	.st12{fill:#9B71BC;}
	.st13{fill:#44342C;}
	.st14{fill:#B899D6;}
	.st15{fill:#8865AA;}
	.st16{fill:#E583AB;}
	.st17{fill:#CE6F9A;}
	.st18{fill:#EDB254;}
	.st19{fill:#5984C1;}
	.st20{fill:#E09E3F;}
	.st21{fill:#426DA0;}
	.st22{fill:#EFA3C6;}
	.st23{fill:#4D527A;}
	.st24{fill:#3B4163;}
	.st25{fill:#F9CB8F;}
	.st26{fill:#D8983D;}
	.st27{fill:#DD9D40;}
	.st28{fill:#C44747;}
	.st29{fill:#D85959;}
	.st30{fill:#E87979;}
	.st31{fill:#A59C4A;}
	.st32{fill:#B7B15C;}
	.st33{fill:#D1C875;}
	.st34{fill:#8259AA;}
	.st35{fill:#87D8D5;}
	.st36{fill:#73C6C6;}
	.st37{fill:#66B5B3;}
	.st38{fill:#F9E9D4;}
	.st39{fill:#F7A4C9;}
	.st40{fill:#EF8854;}
	.st41{fill:#EA7DB1;}
	.st42{fill:#9B5072;}
	.st43{fill:#F7ADCF;}
	.st44{fill:#825B38;}
	.st45{fill:#92DDDB;}
	.st46{fill:#775E96;}
	.st47{fill:#655284;}
	.st48{fill:#755593;}
</style>
<g id="Monster_1">
</g>
<g id="Monster_2">
</g>
<g id="Monster_3">
</g>
<g id="Monster_4">
</g>
<g id="Monster_5">
</g>
<g id="Monster_6">
</g>
<g id="Monster_7">
</g>
<g id="Monster_8">
</g>
<g id="Monster_9">
</g>
<g id="Monster_10">
	<g>
		<path class="st6" d="M308.9,160.6c-11.4-9.8-26.5-56.9-21.7-61.6c4.7-4.7,30.7,47.4,31.6,54.9
			C319.5,161.4,314.4,165.4,308.9,160.6z"/>
		<path class="st6" d="M326.8,153.8c-0.9-8.8-2.1-62.2,4.8-66.4c6.9-4.2,12,60.4,10.5,66.4C340.6,159.8,327.3,158.6,326.8,153.8z"/>
		<path class="st6" d="M350.2,153.5c2.4-8.2,14.7-36.3,24.6-44.8c9.9-8.4,9.9,0.6,7.5,8.1c-2.4,7.5-14.1,38.6-21,41
			C354.4,160.3,348.4,159.5,350.2,153.5z"/>
		<path class="st18" d="M251,393.1c-4.5,11.1-46,60.9-61.6,63.8c-15.6,3-50.5-14.9-66.1-28.2c-12.5-10.7-13.1-24.4-6.3-34.7
			c1.7-2.5,3.8-4.9,6.3-6.9c6-4.9,14.7-4.7,23.1-3.3c9.4,1.5,18.6,4.5,23.6,3.3c9.6-2.2,12.8-24.9,34.9-33.4
			C214.6,350,255.4,382,251,393.1z"/>
		<path class="st18" d="M403.5,511.1c-20.2,3.7-59.3,1.4-71.3-9c-12-10.4-22.7-74.4-20.9-86.2c1.8-11.9,53.1-18.8,59.6-10.7
			c14.8,18.5,6,39.6,13.2,46.4c4,3.8,14.4,5.9,23.8,9.8c7.4,3,14.1,7.1,16.6,13.8c0.7,2,1.2,3.9,1.6,5.9
			C428.3,494.7,421.2,508,403.5,511.1z"/>
		<path class="st7" d="M465.9,394.4c-20.4,34.4-78.1,54.1-137.3,54.7h-0.1c-49.4,0.5-99.7-12.2-130.3-40.6
			c-67.2-62.4-35.2-254.6,91.1-263.4c44.5-3.1,123.2,3.8,160.7,40c4.8,4.6,9.2,10.4,13.2,17.1C490.7,248.5,498.6,339.3,465.9,394.4z
			"/>
		
			<ellipse transform="matrix(0.7071 -0.7071 0.7071 0.7071 -83.6657 323.9711)" class="st6" cx="349.2" cy="263" rx="65.2" ry="65.2"/>
		<circle class="st2" cx="351.3" cy="260.1" r="57.9"/>
		
			<ellipse transform="matrix(0.2298 -0.9732 0.9732 0.2298 -2.3279 557.8928)" class="st3" cx="351.3" cy="280.4" rx="33.8" ry="33.8"/>
		
			<ellipse transform="matrix(0.1602 -0.9871 0.9871 0.1602 1.5508 581.58)" class="st2" cx="342.6" cy="289.9" rx="13.9" ry="13.9"/>
		<path class="st3" d="M382.8,367.9c-2,1.6-5.2,3.2-9.2,4.7c-18,6.6-53.4,10.7-80.2,0.3c-21-8.1-32.4-22.2-39.8-35.2
			c-3.1-5.5-5.6-10.8-7.8-15.4c-3.9-8.3-7.1-19.3-8.2-28.2c-0.1-0.8-0.2-1.5-0.2-2.2c-0.3-3.7-0.1-6.9,0.6-9.3
			c0.6-1.9,1.5-3.2,2.9-3.7c3.7-1.4,5.8,0.4,7.6,4.4c0.6,1.2,1.1,2.5,1.6,4.1c0.9,2.4,1.8,5.2,2.9,8.4c0.5,1.3,1,2.7,1.5,4.2
			c2.8,7.5,8.5,17.6,16.4,27.3c10,12.3,23.7,24,40,29.5c18.2,6.1,38.3,4.3,53.1,3.3c6.3-0.4,11.7-0.7,15.5,0
			c2.8,0.5,4.8,1.4,5.6,3.1C385.8,364.6,384.9,366.2,382.8,367.9z"/>
		<path class="st39" d="M270.8,327.2c-3.7,2.6-10,6.4-17.3,10.5c-18,10.1-34.6,26.5-48.3,20c-8.4-4,0.9-15.9,2-21.5
			c1.5-7.3-15.4-10.5-6-24c5.1-7.3,21.7-14.8,36.1-20.3c4.6-1.7,9-3.3,12.7-4.5c1.2,3.4,2.6,7.7,4.4,12.5c0.5,1.2,1,2.5,1.6,3.9
			c1.1,2.4,2.4,4.9,3.9,7.5C262.8,316.4,266.5,321.9,270.8,327.2z"/>
		<path class="st2" d="M252.9,295.7c-3.2-0.1-9.2-0.7-15.3-1.7c-10.1-1.6-20.8-4.1-20.8-6.7c0-4.5,11.9-5,21.1-4.8
			c5.1,0.1,9.4,0.6,10.5,0.7c0.6,1.2,1.1,2.5,1.6,4.1C250.9,289.8,251.8,292.6,252.9,295.7z"/>
		<path class="st2" d="M386.6,385.1c-1,1.6-7.3-5.5-13-12.6c-4.5-5.6-8.7-11.2-9.7-12.6c6.3-0.4,11.7-0.7,15.5,0
			c1.1,2.1,2.3,4.9,3.4,7.9C385.5,375.2,387.7,383.5,386.6,385.1z"/>
		<path class="st40" d="M409.7,361c-4.5,1.2-2.8,13.1,0,14.6c2.8,1.6,5.9-1.6,5-5.6C413.7,366,413.1,360.1,409.7,361z"/>
		<path class="st40" d="M419.2,332.9c-4.6,0.2-5.5,12.2-3.1,14.3c2.4,2.1,6.1-0.3,6-4.4S422.7,332.7,419.2,332.9z"/>
		<path class="st40" d="M450.5,343.4c-4.6,0.2-5.5,12.2-3.1,14.3s6.1-0.3,6-4.4C453.4,349.2,454,343.2,450.5,343.4z"/>
		<path class="st40" d="M429.5,353.4c-4.6,0.2-5.5,12.2-3.1,14.3c2.4,2.1,6.1-0.3,6-4.4S433,353.2,429.5,353.4z"/>
		<path class="st40" d="M200.7,264.6c-4.6-0.5-7.3,11.2-5.3,13.6c2.1,2.5,6.1,0.7,6.7-3.4C202.7,270.7,204.3,265,200.7,264.6z"/>
		<path class="st40" d="M186.3,310.7c-4.6-0.5-7.3,11.2-5.3,13.6c2.1,2.5,6.1,0.7,6.7-3.4C188.3,316.8,189.9,311,186.3,310.7z"/>
		<path class="st40" d="M190.4,246.7c-4.6-0.5-7.3,11.2-5.3,13.6c2.1,2.5,6.1,0.7,6.7-3.4C192.4,252.8,194,247,190.4,246.7z"/>
		<path class="st40" d="M183.3,278.5c-6.6-0.7-10.5,16.1-7.6,19.6c3,3.5,8.7,1,9.6-4.9C186.2,287.3,188.4,279.1,183.3,278.5z"/>
		<path class="st40" d="M440.6,321.1c-6.1,0.3-7.2,16.1-4.1,18.9s8.1-0.4,8-5.8C444.5,328.6,445.3,320.8,440.6,321.1z"/>
		<path class="st40" d="M427.9,378.8c-6.1,0.3-7.2,16.1-4.1,18.9s8.1-0.4,8-5.8C431.8,386.3,432.6,378.5,427.9,378.8z"/>
		<path class="st6" d="M465.9,394.4c-20.4,34.4-78.1,54.1-137.3,54.7c0,0,0.1,0,0.1,0c59.7-5.1,111.8-40.6,131.6-88.2
			s2.9-158.7,2.9-158.7C490.7,248.5,498.6,339.3,465.9,394.4z"/>
		<path class="st8" d="M232.8,177.9c9.9-12.3,36.1-18,49.4-18.8c13.3-0.8,18.2,1.1,16.8,4.9c-1.4,3.8-19.9,6.2-33,12.2
			c-13.1,6-23,17.4-28.8,17.1C231.4,193.1,227.1,185,232.8,177.9z"/>
		<path class="st8" d="M313.2,159c5.3-2.1,17.9-2.5,17.8,1.3c-0.1,3.8-3.1,4.6-8.1,5.4C317.8,166.5,306.9,161.5,313.2,159z"/>
		<path class="st41" d="M259.9,311.4c-7.7,1.9-18.8,4.9-24.3,7.7c-9,4.5-9.4,6.6-11.6,6.4c-3.1-0.3,2.3-6.2,6.3-9.1
			c5-3.6,16.5-9,25.8-12.5C257.1,306.2,258.4,308.7,259.9,311.4z"/>
		<path class="st7" d="M426.1,481.2c-4.7,1.1-10.2,1.1-15.2-1.2c-6.3-2.8-6.8-12.8-2.9-18.6c7.4,3,14.1,7.1,16.6,13.8
			C425.2,477.2,425.8,479.2,426.1,481.2z"/>
		<path class="st7" d="M146.5,383.9c-0.7,1.7-1.6,3.3-2.8,4.9c-6.7,8.6-17.5,10.3-26.6,5.3c1.7-2.5,3.8-4.9,6.3-6.9
			C129.3,382.2,138,382.5,146.5,383.9z"/>
	</g>
</g>
<g id="Monster_11">
</g>
<g id="Monster_12">
</g>
<g id="Monster_13">
</g>
<g id="Monster_14">
</g>
<g id="Monster_15">
</g>
<g id="Monster_16">
</g>
<g id="Monster_17">
</g>
<g id="Monster_18">
</g>
<g id="Monster_19">
</g>
<g id="Monster_20">
</g>
</svg>
