<?xml version="1.0" encoding="utf-8"?>
<!-- Generator: Adobe Illustrator 22.0.0, SVG Export Plug-In . SVG Version: 6.00 Build 0)  -->
<svg version="1.1" xmlns="http://www.w3.org/2000/svg" xmlns:xlink="http://www.w3.org/1999/xlink" x="0px" y="0px"
	 viewBox="0 0 600 600" style="enable-background:new 0 0 600 600;" xml:space="preserve">
<style type="text/css">
	.st0{fill:#808739;}
	.st1{fill:#8E9B57;}
	.st2{fill:#FFFFFF;}
	.st3{fill:#282624;}
	.st4{fill:#E88B3F;}
	.st5{fill:#B6C176;}
	.st6{fill:#BF5D2C;}
	.st7{fill:#D36B31;}
	.st8{fill:#E8926D;}
	.st9{fill:#DD7D5B;}
	.st10{fill:#79599E;}
	.st11{fill:#ED9B85;}
	.st12{fill:#9B71BC;}
	.st13{fill:#44342C;}
	.st14{fill:#B899D6;}
	.st15{fill:#8865AA;}
	.st16{fill:#E583AB;}
	.st17{fill:#CE6F9A;}
	.st18{fill:#EDB254;}
	.st19{fill:#5984C1;}
	.st20{fill:#E09E3F;}
	.st21{fill:#426DA0;}
	.st22{fill:#EFA3C6;}
	.st23{fill:#4D527A;}
	.st24{fill:#3B4163;}
	.st25{fill:#F9CB8F;}
	.st26{fill:#D8983D;}
	.st27{fill:#DD9D40;}
	.st28{fill:#C44747;}
	.st29{fill:#D85959;}
	.st30{fill:#E87979;}
	.st31{fill:#A59C4A;}
	.st32{fill:#B7B15C;}
	.st33{fill:#D1C875;}
	.st34{fill:#8259AA;}
	.st35{fill:#87D8D5;}
	.st36{fill:#73C6C6;}
	.st37{fill:#66B5B3;}
	.st38{fill:#F9E9D4;}
	.st39{fill:#F7A4C9;}
	.st40{fill:#EF8854;}
	.st41{fill:#EA7DB1;}
	.st42{fill:#9B5072;}
	.st43{fill:#F7ADCF;}
	.st44{fill:#825B38;}
	.st45{fill:#92DDDB;}
	.st46{fill:#775E96;}
	.st47{fill:#655284;}
	.st48{fill:#755593;}
</style>
<g id="Monster_1">
</g>
<g id="Monster_2">
</g>
<g id="Monster_3">
</g>
<g id="Monster_4">
</g>
<g id="Monster_5">
</g>
<g id="Monster_6">
</g>
<g id="Monster_7">
</g>
<g id="Monster_8">
</g>
<g id="Monster_9">
</g>
<g id="Monster_10">
</g>
<g id="Monster_11">
</g>
<g id="Monster_12">
</g>
<g id="Monster_13">
</g>
<g id="Monster_14">
</g>
<g id="Monster_15">
</g>
<g id="Monster_16">
</g>
<g id="Monster_17">
	<g>
		<g>
			<path class="st7" d="M336.3,178.2c0-28.1-22.8-50.8-50.8-50.8c-28.1,0-50.8,22.8-50.8,50.8c0,28.1,22.8,50.8,50.8,50.8
				c6.9,0,13.5-1.4,19.5-3.9c13.9,16.2,52.9,60.8,56.5,56.4c4.4-5.5,6.3-15.6,6.3-15.6s-26.7-35.7-42.5-56.1
				C332.1,201.2,336.3,190.2,336.3,178.2z"/>
			<path class="st7" d="M495.1,145.2c0-28.1-22.8-50.8-50.8-50.8c-28.1,0-50.8,22.8-50.8,50.8c0,21.5,13.4,39.9,32.3,47.3
				c-7,25-16,59.6-11.5,60.1c7,0.7,16.5-3.2,16.5-3.2s11.1-29.8,19.7-53.8C475.5,192.7,495.1,171.3,495.1,145.2z"/>
		</g>
		<path class="st1" d="M480.5,497.5c-47.3,10.5-131.3,8.2-194.1,7c-55.1-1-161-7.4-195.7-12.9c-4.9-0.8-8.3-1.5-10-2.2
			c-14-5.8-23.4-28-11.7-33.9c11.6-5.8,4.7,15.2,22.8,14c18.1-1.2,28.6-17.5,50.8-25.7c20.9-7.7,24.2,8.4,44.8,7.4
			c1.3,0,2.7-0.2,4.2-0.4c8.9-1.3,14.4-4.7,19.1-8.7c8.2-7,14-15.9,31-18.1c15.9-2.1,29.4,3.3,42.5,8.9c7.9,3.4,15.6,6.9,23.6,9
			c1,0.3,2.1,0.5,3.1,0.7c14.7,3,31.9-3.4,42.1-12.8c5.4-5,8.8-10.9,8.8-16.7c0-1.7-0.2-3.3-0.5-4.9c-2.8-14.2-16.5-26.1-28-51.8
			c-19.6-43.8,0.5-106.8,45.1-128.8c46.8-23.1,94.5-7,118.6,24.9c21.9,29.2,18.1,58.7,12.4,78.6c-3.1,10.8-6.6,18.7-6.9,22.3
			c-0.9,10.2,21.9,33,31.2,59.6C543,439.9,527.8,487,480.5,497.5z"/>
		<g>
			<circle class="st2" cx="285.8" cy="178.2" r="40"/>
			<circle class="st3" cx="277.8" cy="175.3" r="20"/>
			<path class="st2" d="M265.9,175.3c0,3.5-2.9,6.4-6.4,6.4c-3.5,0-6.4-2.9-6.4-6.4c0-3.5,2.9-6.4,6.4-6.4
				C263,168.9,265.9,171.8,265.9,175.3z"/>
		</g>
		<g>
			<circle class="st2" cx="444.2" cy="144.7" r="40"/>
			<circle class="st3" cx="436.3" cy="141.7" r="20"/>
			<path class="st2" d="M424.3,141.7c0,3.5-2.9,6.4-6.4,6.4c-3.5,0-6.4-2.9-6.4-6.4c0-3.5,2.9-6.4,6.4-6.4
				C421.5,135.4,424.3,138.2,424.3,141.7z"/>
		</g>
		<path class="st3" d="M456.4,282.2c-3.6,2.7-53,6.5-60.6,2.5c-7.6-4-15.7-15.4-7.3-17.3c3.2-0.7,7.4-1.4,12.1-2
			c14.9-1.9,35-3.1,48-2.6c6.8,0.2,11.7,0.9,12.7,2.2C464.8,269.6,460,279.5,456.4,282.2z"/>
		<path class="st2" d="M448.6,262.9c-1.5,4-4,9.2-6.2,9.8c-3.5,1-10.6-4.4-10.6-4.4s-5,5.2-6.7,6.4c-1.7,1.2-8.5-6.4-8.5-6.4
			s-5,5.8-6.9,6.4c-1.5,0.5-6.1-4.5-9.1-9.1C415.4,263.6,435.6,262.5,448.6,262.9z"/>
		<path class="st0" d="M480.5,497.5c-47.3,10.5-131.3,8.2-194.1,7c-55.1-1-161-7.4-195.7-12.9c0,0,238.6-0.9,302.7-4.4
			c64.1-3.4,97.6-22.3,107.9-40.4c10.3-18-4.8-70.6-6.2-85.6c-1-9.7,7.4-19.2,14.3-30c-3.1,10.8-6.6,18.7-6.9,22.3
			c-0.9,10.2,21.9,33,31.2,59.6C543,439.9,527.8,487,480.5,497.5z"/>
		<path class="st5" d="M342.2,299.8c-8.2,10.9-3.2,39.6,3.9,46.4c7.1,6.7,6.3-7.1,5.5-17.1c-0.8-10,5-18.9,4-26.8
			C355.2,298.7,348.1,292,342.2,299.8z"/>
		<path class="st5" d="M357.4,354.2c-6.8-0.7-4.1,10.1,0,12.3C361.5,368.7,363.4,354.8,357.4,354.2z"/>
		<g>
			<path class="st0" d="M358.7,451.2c-11.6,0-11.6,18,0,18C370.3,469.2,370.3,451.2,358.7,451.2z"/>
			<path class="st0" d="M370,426.1c-3.5,5.5-10.7,7.4-16.4,4.1c-0.2-0.1-0.4-0.2-0.5-0.3c5.4-5,8.8-10.9,8.8-16.7
				c0-1.7-0.2-3.3-0.5-4.9c1.4,0.2,2.8,0.6,4.1,1.4C370.9,412.9,373.5,420.4,370,426.1z"/>
			<path class="st0" d="M284.2,432.9c-0.9,1.6-1.4,3.5-1.4,5.4c0.1,3.7,1.6,6.9,4,9.5c2.5,2.7,5.8,4.4,9.5,4.5
				c4,0.1,7.9-2.4,9.8-5.8c0.8-1.4,1.3-3,1.7-4.6C299.8,439.8,292.1,436.3,284.2,432.9z"/>
			<path class="st0" d="M252.6,450.7c-1.5-0.9-3.5-1.5-5.3-1.5c-1.7,0-2.9,0.3-4.4,1c-2.7,1.2-4.8,3.4-6,6.1
				c-0.8,1.3-1.3,2.8-1.1,4.3c0.2,2,0.4,3.6,1.5,5.4c1.1,1.7,2.2,2.7,3.8,3.9c1.7,1.3,4.3,1.9,6.5,1.8c3.7-0.1,7.3-2,9.2-5.3
				c1.5-2.7,1.9-5.8,1.1-8.8C257,454.8,255.1,452.2,252.6,450.7z"/>
			<path class="st0" d="M212.6,448.4c-0.1,3.5-1.7,6.7-4.3,8.8c-2,2-4.7,3.3-7.7,3.4c-4.8,0.1-9.3-2.7-11.2-7
				c-0.7-0.6-1.3-1.3-1.8-2c-0.1-0.1-0.1-0.2-0.2-0.3c1.3,0,2.7-0.2,4.2-0.4c8.9-1.3,14.4-4.7,19.1-8.7
				C211.9,443.9,212.6,446.1,212.6,448.4z"/>
		</g>
	</g>
</g>
<g id="Monster_18">
</g>
<g id="Monster_19">
</g>
<g id="Monster_20">
</g>
</svg>
