<?xml version="1.0" encoding="utf-8"?>
<!-- Generator: Adobe Illustrator 22.0.0, SVG Export Plug-In . SVG Version: 6.00 Build 0)  -->
<svg version="1.1" xmlns="http://www.w3.org/2000/svg" xmlns:xlink="http://www.w3.org/1999/xlink" x="0px" y="0px"
	 viewBox="0 0 600 600" style="enable-background:new 0 0 600 600;" xml:space="preserve">
<style type="text/css">
	.st0{fill:#808739;}
	.st1{fill:#8E9B57;}
	.st2{fill:#FFFFFF;}
	.st3{fill:#282624;}
	.st4{fill:#E88B3F;}
	.st5{fill:#B6C176;}
	.st6{fill:#BF5D2C;}
	.st7{fill:#D36B31;}
	.st8{fill:#E8926D;}
	.st9{fill:#DD7D5B;}
	.st10{fill:#79599E;}
	.st11{fill:#ED9B85;}
	.st12{fill:#9B71BC;}
	.st13{fill:#44342C;}
	.st14{fill:#B899D6;}
	.st15{fill:#8865AA;}
	.st16{fill:#E583AB;}
	.st17{fill:#CE6F9A;}
	.st18{fill:#EDB254;}
	.st19{fill:#5984C1;}
	.st20{fill:#E09E3F;}
	.st21{fill:#426DA0;}
	.st22{fill:#EFA3C6;}
	.st23{fill:#4D527A;}
	.st24{fill:#3B4163;}
	.st25{fill:#F9CB8F;}
	.st26{fill:#D8983D;}
	.st27{fill:#DD9D40;}
	.st28{fill:#C44747;}
	.st29{fill:#D85959;}
	.st30{fill:#E87979;}
	.st31{fill:#A59C4A;}
	.st32{fill:#B7B15C;}
	.st33{fill:#D1C875;}
	.st34{fill:#8259AA;}
	.st35{fill:#87D8D5;}
	.st36{fill:#73C6C6;}
	.st37{fill:#66B5B3;}
	.st38{fill:#F9E9D4;}
	.st39{fill:#F7A4C9;}
	.st40{fill:#EF8854;}
	.st41{fill:#EA7DB1;}
	.st42{fill:#9B5072;}
	.st43{fill:#F7ADCF;}
	.st44{fill:#825B38;}
	.st45{fill:#92DDDB;}
	.st46{fill:#775E96;}
	.st47{fill:#655284;}
	.st48{fill:#755593;}
</style>
<g id="Monster_1">
</g>
<g id="Monster_2">
</g>
<g id="Monster_3">
</g>
<g id="Monster_4">
</g>
<g id="Monster_5">
</g>
<g id="Monster_6">
</g>
<g id="Monster_7">
	<g>
		<path class="st31" d="M281.9,462.7c0,0,3.1,63.8,0,75.1c-1.4,5-57.5,11.8-70.6,2.6c-13.1-9.1-2.9-28.1,13.6-36.6
			c16.5-8.5,23.7-9.5,23.7-9.5l1.3-42.8L281.9,462.7z"/>
		<path class="st31" d="M291,462.7c0,0-3.1,63.8,0,75.1c1.4,5,57.5,11.8,70.6,2.6c13.1-9.1,2.9-28.1-13.6-36.6
			c-16.5-8.5-23.7-9.5-23.7-9.5l-1.3-42.8L291,462.7z"/>
		<path class="st32" d="M456.4,299.9c9.6,19.3,42.3,32,37.9,65.1c-4.3,33.1-36.5-4.2-45.1,1.1c-8.7,5.3-22.7,72.9-77.7,94.5
			c-45,17.7-108,18.9-154.9,1.5c-10.4-3.9-19.9-8.6-28.3-14.3c-31.7-21.5-42.2-52-42.5-61.9c-0.3-10-49.5,31.6-48.3-21.6
			c1.3-53.2,29-91.9,27.2-98.9c-1.8-7-32.8,20-26.3-21.1c6.5-41.1,34.6-60.7,36.8-68.2c2.2-7.6-28.2,17.3-23.9-14
			c4.3-31.3,68.3-74.2,99.4-88.8c14.4-6.8,40.7-21.4,58.7-17.5c30.4,6.6,2.2,27.2,3.2,33c1.1,5.8,72.4-26.8,109.5-13.5
			c37.1,13.3-2.1,33.3-2.1,33.3s88.5,20.9,98.3,53.5c9.7,32.6-44.3,25.6-44.3,25.6s0,0,0,0c1.6,1.4,61.3,54.1,67.7,84.2
			C508.4,302.3,450.6,288.2,456.4,299.9z"/>
		<g>
			<g>
				<circle class="st2" cx="241.6" cy="220.9" r="54.8"/>
				
					<ellipse transform="matrix(1 -4.729290e-03 4.729290e-03 1 -1.0195 1.1448)" class="st3" cx="241.6" cy="216.1" rx="28.5" ry="28.5"/>
			</g>
		</g>
		<g>
			
				<ellipse transform="matrix(1.563197e-02 -0.9999 0.9999 1.563197e-02 130.8062 574.6526)" class="st2" cx="357.3" cy="220.9" rx="39.9" ry="39.9"/>
			
				<ellipse transform="matrix(0.7071 -0.7071 0.7071 0.7071 -49.1102 316.3032)" class="st3" cx="357.3" cy="217.4" rx="20.8" ry="20.8"/>
		</g>
		<path class="st3" d="M358.1,353.8c-2.1,1.9-4.5,3.7-7.1,5.4c-22.6,14.4-67.4,13-92.2,6.5c-7.1-1.8-12.5-4.1-15.4-6.5
			c-20.7-17.5-25.5-54-18.8-54.5c2.3-0.2,8.6-0.7,17.4-1.3c5.9-0.4,12.9-1,20.6-1.5c26.2-1.8,60.1-4,84.2-5c8-0.3,14.8-0.5,20-0.5
			c5.8,0,9.5,0.3,10,0.9C379.8,301,380.1,334,358.1,353.8z"/>
		<path class="st2" d="M262.6,301.8c-1.1,8.7-4.9,23.4-12.2,23.3c-3.5-0.1-8.8-13-8.4-21.8C247.9,302.9,254.9,302.4,262.6,301.8z"/>
		<path class="st2" d="M366.8,296.4c-1.6,8.6-5.2,19.9-11.6,19.8c-3.2-0.1-7.9-10.8-8.4-19.3C354.8,296.5,361.7,296.4,366.8,296.4z"
			/>
		<path class="st29" d="M358.1,353.8c-2.1,1.9-4.5,3.7-7.1,5.4c-22.6,14.4-67.4,13-92.2,6.5c2.5-10.5,12-21.2,20.1-22.8
			c11.7-2.2,19.6,7.3,26.3,5c6.7-2.2,19.6-16.9,34.1-11C347.1,340.2,354.8,346.4,358.1,353.8z"/>
		<path class="st33" d="M290.9,104.5C308.2,92.9,342.9,88.4,351,91c8.1,2.6-47.2,23.7-60.2,27C277.9,121.3,282.6,110,290.9,104.5z"
			/>
		<path class="st33" d="M319.3,122.9c21.5-5.1,61.4-2,71.2,7.7c9.8,9.8-78.1,14.5-85.7,7.5C297,131,310.6,125,319.3,122.9z"/>
		<path class="st33" d="M421.8,134.8c-10.6-3.3-13.2,2.1-11.6,5.9c1.6,3.8,17.8,9.3,19.7,7.1C433.4,143.8,429.7,137.3,421.8,134.8z"
			/>
		<path class="st31" d="M456.4,299.9c9.6,19.3,42.3,32,37.9,65.1c-4.3,33.1-36.5-4.2-45.1,1.1c-8.7,5.3-22.7,72.9-77.7,94.5
			c-45,17.7-108,18.9-154.9,1.5c33-2.8,135.2-5.2,171.8-49.4c41.2-49.7,45.3-97.1,51.6-133.9c9.1-52.6-14-91.7-9.5-91.7
			c0.6,0,1.9,0.2,3.6,0.5c1.6,1.4,61.3,54.1,67.7,84.2C508.4,302.3,450.6,288.2,456.4,299.9z"/>
	</g>
</g>
<g id="Monster_8">
</g>
<g id="Monster_9">
</g>
<g id="Monster_10">
</g>
<g id="Monster_11">
</g>
<g id="Monster_12">
</g>
<g id="Monster_13">
</g>
<g id="Monster_14">
</g>
<g id="Monster_15">
</g>
<g id="Monster_16">
</g>
<g id="Monster_17">
</g>
<g id="Monster_18">
</g>
<g id="Monster_19">
</g>
<g id="Monster_20">
</g>
</svg>
