<?xml version="1.0" encoding="utf-8"?>
<!-- Generator: Adobe Illustrator 22.0.0, SVG Export Plug-In . SVG Version: 6.00 Build 0)  -->
<svg version="1.1" xmlns="http://www.w3.org/2000/svg" xmlns:xlink="http://www.w3.org/1999/xlink" x="0px" y="0px"
	 viewBox="0 0 600 600" style="enable-background:new 0 0 600 600;" xml:space="preserve">
<style type="text/css">
	.st0{fill:#808739;}
	.st1{fill:#8E9B57;}
	.st2{fill:#FFFFFF;}
	.st3{fill:#282624;}
	.st4{fill:#E88B3F;}
	.st5{fill:#B6C176;}
	.st6{fill:#BF5D2C;}
	.st7{fill:#D36B31;}
	.st8{fill:#E8926D;}
	.st9{fill:#DD7D5B;}
	.st10{fill:#79599E;}
	.st11{fill:#ED9B85;}
	.st12{fill:#9B71BC;}
	.st13{fill:#44342C;}
	.st14{fill:#B899D6;}
	.st15{fill:#8865AA;}
	.st16{fill:#E583AB;}
	.st17{fill:#CE6F9A;}
	.st18{fill:#EDB254;}
	.st19{fill:#5984C1;}
	.st20{fill:#E09E3F;}
	.st21{fill:#426DA0;}
	.st22{fill:#EFA3C6;}
	.st23{fill:#4D527A;}
	.st24{fill:#3B4163;}
	.st25{fill:#F9CB8F;}
	.st26{fill:#D8983D;}
	.st27{fill:#DD9D40;}
	.st28{fill:#C44747;}
	.st29{fill:#D85959;}
	.st30{fill:#E87979;}
	.st31{fill:#A59C4A;}
	.st32{fill:#B7B15C;}
	.st33{fill:#D1C875;}
	.st34{fill:#8259AA;}
	.st35{fill:#87D8D5;}
	.st36{fill:#73C6C6;}
	.st37{fill:#66B5B3;}
	.st38{fill:#F9E9D4;}
	.st39{fill:#F7A4C9;}
	.st40{fill:#EF8854;}
	.st41{fill:#EA7DB1;}
	.st42{fill:#9B5072;}
	.st43{fill:#F7ADCF;}
	.st44{fill:#825B38;}
	.st45{fill:#92DDDB;}
	.st46{fill:#775E96;}
	.st47{fill:#655284;}
	.st48{fill:#755593;}
</style>
<g id="Monster_1">
</g>
<g id="Monster_2">
</g>
<g id="Monster_3">
</g>
<g id="Monster_4">
</g>
<g id="Monster_5">
</g>
<g id="Monster_6">
</g>
<g id="Monster_7">
</g>
<g id="Monster_8">
</g>
<g id="Monster_9">
</g>
<g id="Monster_10">
</g>
<g id="Monster_11">
</g>
<g id="Monster_12">
</g>
<g id="Monster_13">
</g>
<g id="Monster_14">
</g>
<g id="Monster_15">
</g>
<g id="Monster_16">
</g>
<g id="Monster_17">
</g>
<g id="Monster_18">
</g>
<g id="Monster_19">
</g>
<g id="Monster_20">
	<g>
		<path class="st16" d="M248.6,309.8c-12.5-2.8-52-4.6-108.6,13c-25.4,7.9-61.3,32.5-70.1,45.9s-0.5,11.6,3.7,10.2
			c0,0-4.2,8.8,0,10.2c4.2,1.4,9.3-4.6,9.3-4.6s-0.5,8.4,5.1,7.4c5.6-0.9,22.9-24.3,42.7-35.7c38.5-22.3,84.5-8.4,103-17.6
			C252.3,329.3,258.1,312,248.6,309.8z"/>
		<path class="st16" d="M343.7,322.8c12-4.5,50.8-11.9,109.4-2.4c26.2,4.2,65.2,23.5,75.9,35.6s2.1,11.4-2.2,10.6
			c0,0,5.4,8.1,1.4,10.1s-9.8-3.3-9.8-3.3s1.6,8.2-4,8.1c-5.6-0.1-26.1-20.8-47.3-29.4c-41.3-16.6-84.8,3.6-104.5-2.9
			C342.7,342.6,334.5,326.3,343.7,322.8z"/>
		<path class="st16" d="M262.4,87.2c-3.7-7.8-15.9-23.9-28.4-16.8c-12.4,7.1,0,33.7,0,33.7C237.9,106.5,264.3,91.2,262.4,87.2z"/>
		<path class="st16" d="M295.3,81.9c-0.1-8.6-4.7-28.4-18.9-27c-14.2,1.4-13.8,30.7-13.8,30.7C265,89.5,295.3,86.3,295.3,81.9z"/>
		<path class="st16" d="M330.8,89.1c2.8-8.1,5.4-28.2-8.4-31.9c-13.8-3.6-23.6,24-23.6,24C299.8,85.8,329.3,93.3,330.8,89.1z"/>
		<path class="st16" d="M361.4,103.3c4.8-7.1,12.6-25.8,0.2-33c-12.4-7.1-29.1,17-29.1,17C332.3,92,358.9,106.9,361.4,103.3z"/>
		<path class="st12" d="M365.9,316.4c-24-9.9-21.7-49.8-6.5-60.9c37.5-27.4,55.9-73.3,29.9-126.3c-25.9-53-116.9-67.7-157.3-27.1
			c-40.5,40.6-38.1,96.6-4.1,145.7c10.2,14.7,42.2,27.9,10.1,59.1c-20.3,19.7-55.7,13.1-89.7,45.9c-34,32.9-49.3,98,10.5,132.1
			c8.1,4.6,19.5,8.7,33.1,12c3.2,12.5,10.8,27.8,16,40.5c5.2,12.9,22.9,7.8,27.4,0c3.5-6.1,11.9-19.4,18.5-31
			c27.6,2.3,57.6,2.8,86.7,1.1c3.7,9.9,8.8,20.6,12.5,29.9c5.2,12.9,22.9,7.8,27.4,0c4.2-7.2,15.1-24.6,21.9-37.2
			c39.4-7.6,70.5-20.7,81-40.3C545.6,343.6,389.9,326.2,365.9,316.4z"/>
		<circle class="st2" cx="295.9" cy="177.5" r="75.6"/>
		<circle class="st3" cx="267.9" cy="172" r="31.2"/>
		<circle class="st2" cx="253.1" cy="172" r="8.2"/>
		<path class="st3" d="M442,400.5c-5.4,17.3-35.3,30-69,38c-30.6,7.2-64.5,10.5-86.2,9.7c-9.3-0.3-18.1-1.2-26.3-2.5
			c-31.8-5.2-54.8-17.7-68.1-34.3c-16.8-20.8-15-51.6,15.2-58.6c18.3-4.2,36.2,6,58.8,12.2c4,1.1,8.2,2.1,12.5,2.8
			c2.3,0.4,4.7,0.8,7.2,1.1c2.7,0.3,5.4,0.6,8.1,0.8c6.3,0.5,12.7,0.8,19.1,0.8h0c2.8,0,5.7,0,8.6-0.1c6.5-0.1,12.9-0.5,19.3-0.9
			c29-2.1,55.2-6.6,67.3-7.5C429.3,360.5,452.4,367.3,442,400.5z"/>
		<path class="st2" d="M286,368.8c-1.5,8.1-6.1,20.7-12.3,18.5c-3-1.1-7.9-14.6-7.3-22.4c4,1.1,8.2,2.1,12.5,2.8
			C281.2,368.1,283.6,368.5,286,368.8z"/>
		<path class="st2" d="M313.3,370.4c-1.7,8-6.2,19-12,16.9c-2.5-0.9-6.2-10.1-7.1-17.6C300.4,370.1,306.9,370.4,313.3,370.4z"/>
		<path class="st2" d="M341.2,369.4c-1.6,8.1-6.2,20.1-12.2,17.9c-2.4-0.9-5.9-9.5-7-16.9C328.4,370.2,334.8,369.8,341.2,369.4z"/>
		<path class="st18" d="M373,438.4L373,438.4c-30.7,7.2-64.5,10.5-86.2,9.7c-9.3-0.3-18.1-1.2-26.3-2.5c1-10.8,9.8-22.3,18.5-24.6
			c13.1-3.5,28.6,4,28.6,4s9.6-14.6,32.4-14.1C362.7,411.4,380.3,422.6,373,438.4z"/>
		<g>
			<g>
				<path class="st48" d="M435.6,463.1c0.3,1.9,0.6,3.8,0.8,5.6c0.1,0.8,1.1,1.2,1.8,1c0.9-0.2,1.2-1,1-1.8
					c-0.3-1.9-0.6-3.8-0.8-5.6c-0.1-0.8-1.1-1.2-1.8-1C435.8,461.5,435.5,462.3,435.6,463.1L435.6,463.1z"/>
			</g>
			<g>
				<path class="st48" d="M440.6,454.4c0.1,2,0.2,4,0.3,5.9c0.1,1.9,3.1,1.9,3,0c-0.1-2-0.2-4-0.3-5.9
					C443.5,452.5,440.5,452.5,440.6,454.4L440.6,454.4z"/>
			</g>
			<g>
				<path class="st48" d="M431.7,451.8c0.2,0.8,0.4,1.6,0.6,2.4c0.2,0.8,1.1,1.3,1.8,1c0.8-0.2,1.2-1.1,1-1.8
					c-0.2-0.8-0.4-1.6-0.6-2.4c-0.2-0.8-1.1-1.3-1.8-1C432,450.2,431.5,451.1,431.7,451.8L431.7,451.8z"/>
			</g>
			<g>
				<path class="st48" d="M427.2,462.1c0.1,1.1,0.2,2.2,0.3,3.3c0.1,0.8,0.6,1.5,1.5,1.5c0.8,0,1.6-0.7,1.5-1.5
					c-0.1-1.1-0.2-2.2-0.3-3.3c-0.1-0.8-0.6-1.5-1.5-1.5C428,460.6,427.2,461.3,427.2,462.1L427.2,462.1z"/>
			</g>
			<g>
				<path class="st48" d="M447.8,446.2c0.3,1.1,0.6,2.2,0.9,3.3c0.5,1.9,3.4,1.1,2.9-0.8c-0.3-1.1-0.6-2.2-0.9-3.3
					C450.2,443.5,447.3,444.3,447.8,446.2L447.8,446.2z"/>
			</g>
			<g>
				<path class="st48" d="M438.5,441.3c0,0.6,0,1.2,0,1.8c0,0.8,0.7,1.5,1.5,1.5c0.8,0,1.5-0.7,1.5-1.5c0-0.6,0-1.2,0-1.8
					c0-0.8-0.7-1.5-1.5-1.5C439.2,439.9,438.5,440.5,438.5,441.3L438.5,441.3z"/>
			</g>
			<g>
				<path class="st48" d="M429.7,477.1c0.1,0.7,0.2,1.4,0.3,2.1c0.1,0.8,1.1,1.2,1.8,1c0.9-0.2,1.2-1,1-1.8
					c-0.1-0.7-0.2-1.4-0.3-2.1c-0.1-0.8-1.1-1.2-1.8-1C429.9,475.5,429.6,476.3,429.7,477.1L429.7,477.1z"/>
			</g>
			<g>
				<path class="st48" d="M442.7,473.5c0.4,1,0.8,2,1.2,3c0.3,0.8,1,1.3,1.8,1c0.7-0.2,1.4-1.1,1-1.8c-0.4-1-0.8-2-1.2-3
					c-0.3-0.8-1-1.3-1.8-1C443.1,471.9,442.4,472.8,442.7,473.5L442.7,473.5z"/>
			</g>
			<g>
				<path class="st48" d="M438.3,481.8c0.1,0.6,0.2,1.2,0.3,1.8c0.1,0.8,1.1,1.2,1.8,1c0.8-0.2,1.2-1,1-1.8
					c-0.1-0.6-0.2-1.2-0.3-1.8c-0.1-0.8-1.1-1.2-1.8-1C438.5,480.2,438.2,481,438.3,481.8L438.3,481.8z"/>
			</g>
			<g>
				<path class="st48" d="M450.2,462.2c0.2,0.5,0.4,1,0.6,1.5c0.3,0.8,1,1.3,1.8,1c0.7-0.2,1.4-1.1,1-1.8c-0.2-0.5-0.4-1-0.6-1.5
					c-0.3-0.8-1-1.3-1.8-1C450.5,460.6,449.9,461.5,450.2,462.2L450.2,462.2z"/>
			</g>
			<g>
				<path class="st48" d="M453.4,472.6c0.2,0.9,0.4,1.8,0.6,2.7c0.2,0.8,1.1,1.3,1.8,1c0.8-0.2,1.2-1.1,1-1.8
					c-0.2-0.9-0.4-1.8-0.6-2.7c-0.2-0.8-1.1-1.3-1.8-1C453.6,471,453.2,471.8,453.4,472.6L453.4,472.6z"/>
			</g>
			<g>
				<path class="st48" d="M460.3,457.5c0.2,1.6,0.7,3,1.3,4.5c0.3,0.7,1.4,0.9,2.1,0.5c0.8-0.5,0.9-1.3,0.5-2.1
					c-0.5-1.2-0.8-2.5-1-3.8c-0.1-0.8-1.1-1.2-1.8-1C460.4,455.9,460.1,456.7,460.3,457.5L460.3,457.5z"/>
			</g>
			<g>
				<path class="st48" d="M418.1,472.3c0.2,0.6,0.4,1.2,0.6,1.8c0.3,0.8,1,1.3,1.8,1c0.8-0.2,1.3-1.1,1-1.8
					c-0.2-0.6-0.4-1.2-0.6-1.8c-0.3-0.8-1-1.3-1.8-1C418.4,470.7,417.8,471.5,418.1,472.3L418.1,472.3z"/>
			</g>
			<g>
				<path class="st48" d="M419.8,485.3c0,0.2,0,0.4,0,0.6c0,0.8,0.7,1.5,1.5,1.5c0.8,0,1.5-0.7,1.5-1.5c0-0.2,0-0.4,0-0.6
					c0-0.8-0.7-1.5-1.5-1.5C420.5,483.8,419.8,484.4,419.8,485.3L419.8,485.3z"/>
			</g>
			<g>
				<path class="st48" d="M419.5,455.3c-0.1,1.7,0.2,3.3,0.9,4.9c0.3,0.7,1,1.3,1.8,1c0.7-0.2,1.4-1.1,1-1.8
					c-0.6-1.3-0.8-2.6-0.8-4.1C422.6,453.4,419.6,453.4,419.5,455.3L419.5,455.3z"/>
			</g>
			<g>
				<path class="st48" d="M427.2,440.3c0.3,0.6,0.6,1.2,0.9,1.8c0.4,0.7,1.4,0.9,2.1,0.5c0.7-0.4,0.9-1.3,0.5-2.1
					c-0.3-0.6-0.6-1.2-0.9-1.8c-0.4-0.7-1.4-0.9-2.1-0.5C427,438.7,426.8,439.6,427.2,440.3L427.2,440.3z"/>
			</g>
			<g>
				<path class="st48" d="M456.9,446.2c0.1,0.4,0.2,0.8,0.3,1.2c0.2,0.8,1.1,1.3,1.8,1c0.8-0.2,1.2-1.1,1-1.8
					c-0.1-0.4-0.2-0.8-0.3-1.2c-0.2-0.8-1.1-1.3-1.8-1C457.2,444.6,456.7,445.4,456.9,446.2L456.9,446.2z"/>
			</g>
			<g>
				<path class="st48" d="M449,435.2c0.2,0.6,0.4,1.2,0.6,1.8c0.3,0.8,1,1.3,1.8,1c0.8-0.2,1.3-1.1,1-1.8c-0.2-0.6-0.4-1.2-0.6-1.8
					c-0.3-0.8-1-1.3-1.8-1C449.3,433.6,448.7,434.4,449,435.2L449,435.2z"/>
			</g>
			<g>
				<path class="st48" d="M468.7,450.1c0.4,0.8,0.8,1.6,1.2,2.4c0.4,0.7,1.4,0.9,2.1,0.5c0.7-0.4,0.9-1.3,0.5-2.1
					c-0.4-0.8-0.8-1.6-1.2-2.4c-0.4-0.7-1.4-0.9-2.1-0.5C468.5,448.5,468.3,449.4,468.7,450.1L468.7,450.1z"/>
			</g>
			<g>
				<path class="st48" d="M462.3,437.6c0.1,0.6,0.2,1.2,0.3,1.8c0.1,0.8,1.1,1.2,1.8,1c0.8-0.2,1.2-1,1-1.8
					c-0.1-0.6-0.2-1.2-0.3-1.8c-0.1-0.8-1.1-1.2-1.8-1C462.5,436,462.2,436.8,462.3,437.6L462.3,437.6z"/>
			</g>
			<g>
				<path class="st48" d="M475.3,435.7c0,0.3,0,0.6,0,0.9c0,0.8,0.7,1.5,1.5,1.5c0.8,0,1.5-0.7,1.5-1.5c0-0.3,0-0.6,0-0.9
					c0-0.8-0.7-1.5-1.5-1.5C476,434.2,475.3,434.9,475.3,435.7L475.3,435.7z"/>
			</g>
			<g>
				<path class="st48" d="M470.1,463.7c0.1,0.4,0.2,0.8,0.3,1.2c0.2,0.8,1.1,1.3,1.8,1c0.8-0.2,1.2-1.1,1-1.8
					c-0.1-0.4-0.2-0.8-0.3-1.2c-0.2-0.8-1.1-1.3-1.8-1C470.3,462.1,469.9,462.9,470.1,463.7L470.1,463.7z"/>
			</g>
			<g>
				<path class="st48" d="M457.6,424.8c0.5,1.1,0.9,2.3,1.4,3.4c0.3,0.7,1,1.3,1.8,1c0.7-0.2,1.4-1.1,1-1.8
					c-0.5-1.1-0.9-2.3-1.4-3.4c-0.3-0.7-1-1.3-1.8-1C458,423.2,457.3,424.1,457.6,424.8L457.6,424.8z"/>
			</g>
			<g>
				<path class="st48" d="M466.3,427.9c1.9,0,1.9-3,0-3C464.3,424.9,464.3,427.9,466.3,427.9L466.3,427.9z"/>
			</g>
			<g>
				<path class="st48" d="M470.2,439.8c0,0.1,0,0.2,0,0.3c0,0.8,0.7,1.5,1.5,1.5c0.8,0,1.5-0.7,1.5-1.5c0-0.1,0-0.2,0-0.3
					c0-0.8-0.7-1.5-1.5-1.5C470.9,438.4,470.2,439,470.2,439.8L470.2,439.8z"/>
			</g>
			<g>
				<path class="st48" d="M480.6,448.5c0.2,0.9,0.6,1.7,1.2,2.4c0.5,0.6,1.6,0.5,2.1,0c0.6-0.6,0.5-1.5,0-2.1
					c0.1,0.1-0.1-0.1-0.1-0.2c-0.1-0.1-0.1-0.2-0.2-0.4c0.1,0.1,0-0.1,0-0.1c0-0.2-0.1-0.3-0.1-0.5c-0.1-0.8-1.1-1.2-1.8-1
					C480.8,446.9,480.4,447.7,480.6,448.5L480.6,448.5z"/>
			</g>
			<g>
				<path class="st48" d="M480.7,425.4c0.4,0.9,0.7,1.7,1.1,2.6c0.3,0.7,1.4,0.9,2.1,0.5c0.8-0.4,0.9-1.3,0.5-2.1
					c-0.4-0.9-0.7-1.7-1.1-2.6c-0.3-0.7-1.4-0.9-2.1-0.5C480.4,423.8,480.3,424.7,480.7,425.4L480.7,425.4z"/>
			</g>
			<g>
				<path class="st48" d="M440.4,429.1c0.5,0.8,1,1.5,1.4,2.3c0.4,0.7,1.3,1,2.1,0.5c0.7-0.4,1-1.4,0.5-2.1c-0.5-0.8-1-1.5-1.4-2.3
					c-0.4-0.7-1.3-1-2.1-0.5C440.3,427.5,440,428.5,440.4,429.1L440.4,429.1z"/>
			</g>
			<g>
				<path class="st48" d="M470.2,417.1c0.1,0.4,0.2,0.8,0.3,1.1c0.2,0.8,1.1,1.3,1.8,1c0.8-0.2,1.2-1.1,1-1.8
					c-0.1-0.4-0.2-0.8-0.3-1.1c-0.2-0.8-1.1-1.3-1.8-1C470.5,415.5,470,416.3,470.2,417.1L470.2,417.1z"/>
			</g>
			<g>
				<path class="st48" d="M484.8,412.8c0.2,0.6,0.4,1.1,0.6,1.7c0.3,0.8,1,1.3,1.8,1c0.7-0.2,1.3-1.1,1-1.8
					c-0.2-0.6-0.4-1.1-0.6-1.7c-0.3-0.8-1-1.3-1.8-1C485.1,411.2,484.5,412,484.8,412.8L484.8,412.8z"/>
			</g>
			<g>
				<path class="st48" d="M485.6,434.2c0.1,0.4,0.2,0.8,0.3,1.1c0.2,0.8,1.1,1.3,1.8,1c0.8-0.2,1.2-1.1,1-1.8
					c-0.1-0.4-0.2-0.8-0.3-1.1c-0.2-0.8-1.1-1.3-1.8-1C485.9,432.6,485.4,433.4,485.6,434.2L485.6,434.2z"/>
			</g>
			<g>
				<path class="st48" d="M477.3,409.5c0,0.1,0,0.2,0,0.3c0,0.8,0.7,1.5,1.5,1.5c0.8,0,1.5-0.7,1.5-1.5c0-0.1,0-0.2,0-0.3
					c0-0.8-0.7-1.5-1.5-1.5C478,408.1,477.3,408.7,477.3,409.5L477.3,409.5z"/>
			</g>
			<g>
				<path class="st48" d="M408.8,464.5c0.2,1,0.4,1.9,0.6,2.9c0.2,0.8,1.1,1.3,1.8,1c0.8-0.2,1.2-1,1-1.8c-0.2-1-0.4-1.9-0.6-2.9
					c-0.2-0.8-1.1-1.3-1.8-1C409.1,462.9,408.7,463.7,408.8,464.5L408.8,464.5z"/>
			</g>
			<g>
				<path class="st48" d="M410.2,480.2c0.2,0.8,0.4,1.5,0.6,2.3c0.2,0.8,1.1,1.3,1.8,1c0.8-0.2,1.2-1.1,1-1.8
					c-0.2-0.8-0.4-1.5-0.6-2.3c-0.2-0.8-1.1-1.3-1.8-1C410.5,478.6,410,479.4,410.2,480.2L410.2,480.2z"/>
			</g>
			<g>
				<path class="st48" d="M401.8,481.5c0.4,0.5,0.8,1,1.1,1.4c0.5,0.6,1.6,0.5,2.1,0c0.6-0.6,0.5-1.5,0-2.1c-0.4-0.5-0.8-1-1.1-1.4
					c-0.5-0.6-1.6-0.5-2.1,0C401.1,480,401.3,480.8,401.8,481.5L401.8,481.5z"/>
			</g>
			<g>
				<path class="st48" d="M136.7,427.2c-0.3,1.7-0.5,3.4-0.8,5.1c-0.1,0.8,0.2,1.6,1,1.8c0.7,0.2,1.7-0.2,1.8-1
					c0.3-1.7,0.5-3.4,0.8-5.1c0.1-0.8-0.2-1.6-1-1.8C137.9,425.9,136.8,426.4,136.7,427.2L136.7,427.2z"/>
			</g>
			<g>
				<path class="st48" d="M135,443.3c0.1,1.3,0.3,2.6,0.4,3.9c0.1,0.8,0.6,1.5,1.5,1.5c0.7,0,1.6-0.7,1.5-1.5
					c-0.1-1.3-0.3-2.6-0.4-3.9c-0.1-0.8-0.6-1.5-1.5-1.5C135.8,441.8,134.9,442.5,135,443.3L135,443.3z"/>
			</g>
			<g>
				<path class="st48" d="M148,435.4c-0.3,1.1-0.5,2.1-0.8,3.2c-0.4,1.9,2.4,2.7,2.9,0.8c0.3-1.1,0.5-2.1,0.8-3.2
					C151.3,434.3,148.5,433.5,148,435.4L148,435.4z"/>
			</g>
			<g>
				<path class="st48" d="M141.7,416.9c-0.1,0.7-0.3,1.3-0.4,2c-0.2,0.8,0.2,1.7,1,1.8c0.7,0.2,1.7-0.2,1.8-1c0.1-0.7,0.3-1.3,0.4-2
					c0.2-0.8-0.2-1.7-1-1.8C142.8,415.7,141.9,416.1,141.7,416.9L141.7,416.9z"/>
			</g>
			<g>
				<path class="st48" d="M127.9,424.8c0,1.1,0,2.1,0,3.2c0,1.9,3,1.9,3,0c0-1.1,0-2.1,0-3.2C130.9,422.9,127.9,422.9,127.9,424.8
					L127.9,424.8z"/>
			</g>
			<g>
				<path class="st48" d="M133,412.9c1.9,0,1.9-3,0-3C131,409.9,131,412.9,133,412.9L133,412.9z"/>
			</g>
			<g>
				<path class="st48" d="M149.2,424.4c-0.1,1.1-0.3,2.1-0.4,3.2c-0.1,0.8,0.8,1.5,1.5,1.5c0.9,0,1.4-0.7,1.5-1.5
					c0.1-1.1,0.3-2.1,0.4-3.2c0.1-0.8-0.8-1.5-1.5-1.5C149.8,422.9,149.3,423.6,149.2,424.4L149.2,424.4z"/>
			</g>
			<g>
				<path class="st48" d="M142.5,448c0,0.4,0,0.8,0,1.2c0,0.8,0.7,1.5,1.5,1.5c0.8,0,1.5-0.7,1.5-1.5c0-0.4,0-0.8,0-1.2
					c0-0.8-0.7-1.5-1.5-1.5C143.2,446.6,142.5,447.2,142.5,448L142.5,448z"/>
			</g>
			<g>
				<path class="st48" d="M127.5,440.6c0,0.3,0,0.5,0,0.8c0,0.8,0.7,1.5,1.5,1.5c0.8,0,1.5-0.7,1.5-1.5c0-0.3,0-0.5,0-0.8
					c0-0.8-0.7-1.5-1.5-1.5C128.2,439.1,127.5,439.7,127.5,440.6L127.5,440.6z"/>
			</g>
			<g>
				<path class="st48" d="M144.9,403.1c-0.1,0.5-0.3,1.1-0.4,1.6c-0.2,0.8,0.2,1.7,1,1.8c0.8,0.2,1.6-0.2,1.8-1
					c0.1-0.5,0.3-1.1,0.4-1.6c0.2-0.8-0.2-1.7-1-1.8C146,401.9,145.1,402.3,144.9,403.1L144.9,403.1z"/>
			</g>
			<g>
				<path class="st48" d="M157.5,433.5c-0.4,1.7-0.8,3.4-1.2,5.1c-0.4,1.9,2.5,2.7,2.9,0.8c0.4-1.7,0.8-3.4,1.2-5.1
					C160.8,432.4,158,431.6,157.5,433.5L157.5,433.5z"/>
			</g>
			<g>
				<path class="st48" d="M162.4,422.1c-0.4,0.8-0.8,1.6-1.2,2.4c-0.4,0.7-0.2,1.6,0.5,2.1c0.7,0.4,1.7,0.2,2.1-0.5
					c0.4-0.8,0.8-1.6,1.2-2.4c0.4-0.7,0.2-1.6-0.5-2.1C163.8,421.2,162.8,421.4,162.4,422.1L162.4,422.1z"/>
			</g>
			<g>
				<path class="st48" d="M152.8,451.2c-0.3,1.3-0.5,2.6-0.8,3.9c-0.2,0.8,0.2,1.6,1,1.8c0.7,0.2,1.7-0.2,1.8-1
					c0.3-1.3,0.5-2.6,0.8-3.9c0.2-0.8-0.2-1.6-1-1.8C153.9,450,153,450.4,152.8,451.2L152.8,451.2z"/>
			</g>
			<g>
				<path class="st48" d="M167.9,440.6c-0.5,1.2-1.1,2.4-1.6,3.5c-0.3,0.7-0.2,1.6,0.5,2.1c0.6,0.4,1.7,0.2,2.1-0.5
					c0.5-1.2,1.1-2.4,1.6-3.5c0.3-0.7,0.2-1.6-0.5-2.1C169.3,439.7,168.2,439.8,167.9,440.6L167.9,440.6z"/>
			</g>
			<g>
				<path class="st48" d="M141,458.7c-0.3,0.7-0.5,1.3-0.8,2c-0.3,0.7,0.3,1.7,1,1.8c0.9,0.2,1.5-0.3,1.8-1c0.3-0.7,0.5-1.3,0.8-2
					c0.3-0.7-0.3-1.7-1-1.8C142,457.4,141.3,457.9,141,458.7L141,458.7z"/>
			</g>
			<g>
				<path class="st48" d="M163.6,457.1c-0.8,1.3-1.3,2.8-1.4,4.3c-0.1,0.8,0.7,1.5,1.5,1.5c0.9,0,1.4-0.7,1.5-1.5
					c0.1-1,0.5-1.9,1-2.8C167.2,457,164.6,455.5,163.6,457.1L163.6,457.1z"/>
			</g>
			<g>
				<path class="st48" d="M150,469.7c0,0.5,0,1.1,0,1.6c0,0.8,0.7,1.5,1.5,1.5c0.8,0,1.5-0.7,1.5-1.5c0-0.5,0-1.1,0-1.6
					c0-0.8-0.7-1.5-1.5-1.5C150.7,468.3,150,468.9,150,469.7L150,469.7z"/>
			</g>
			<g>
				<path class="st48" d="M174.6,454.4c-0.9,1.6-1.3,3.3-1.4,5.1c-0.1,1.9,2.9,1.9,3,0c0.1-1.3,0.4-2.5,1-3.6
					C178.1,454.2,175.5,452.7,174.6,454.4L174.6,454.4z"/>
			</g>
			<g>
				<path class="st48" d="M170.1,473.7c-0.3,1.1-0.5,2.1-0.8,3.2c-0.5,1.9,2.4,2.7,2.9,0.8c0.3-1.1,0.5-2.1,0.8-3.2
					C173.5,472.6,170.6,471.8,170.1,473.7L170.1,473.7z"/>
			</g>
			<g>
				<path class="st48" d="M184.3,457.9c-0.1,0.8-0.3,1.6-0.4,2.4c-0.1,0.8,0.2,1.7,1,1.8c0.7,0.2,1.7-0.2,1.8-1
					c0.1-0.8,0.3-1.6,0.4-2.4c0.1-0.8-0.2-1.7-1-1.8C185.4,456.7,184.5,457.1,184.3,457.9L184.3,457.9z"/>
			</g>
			<g>
				<path class="st48" d="M162.5,474.4c1.9,0,1.9-3,0-3C160.6,471.4,160.6,474.4,162.5,474.4L162.5,474.4z"/>
			</g>
			<g>
				<path class="st48" d="M183.2,470.9c-0.1,0.7-0.3,1.3-0.4,2c-0.2,0.8,0.2,1.7,1,1.8c0.7,0.2,1.7-0.2,1.8-1c0.1-0.7,0.3-1.3,0.4-2
					c0.2-0.8-0.2-1.7-1-1.8C184.3,469.7,183.4,470.1,183.2,470.9L183.2,470.9z"/>
			</g>
			<g>
				<path class="st48" d="M198.1,464.6c-0.1,0.7-0.3,1.3-0.4,2c-0.2,0.8,0.2,1.7,1,1.8c0.7,0.2,1.7-0.2,1.8-1c0.1-0.7,0.3-1.3,0.4-2
					c0.2-0.8-0.2-1.7-1-1.8C199.2,463.4,198.3,463.8,198.1,464.6L198.1,464.6z"/>
			</g>
			<g>
				<path class="st48" d="M189.5,484.7c-0.3,1.2-0.5,2.4-0.8,3.5c-0.4,1.9,2.5,2.7,2.9,0.8c0.3-1.2,0.5-2.4,0.8-3.5
					C192.8,483.6,189.9,482.8,189.5,484.7L189.5,484.7z"/>
			</g>
			<g>
				<path class="st48" d="M180.7,445.3c0,0.7,0,1.3,0,2c0,0.8,0.7,1.5,1.5,1.5c0.8,0,1.5-0.7,1.5-1.5c0-0.7,0-1.3,0-2
					c0-0.8-0.7-1.5-1.5-1.5C181.4,443.8,180.7,444.4,180.7,445.3L180.7,445.3z"/>
			</g>
			<g>
				<path class="st48" d="M200.8,478.4c-0.1,1.1-0.3,2.1-0.4,3.2c-0.1,0.8,0.8,1.5,1.5,1.5c0.9,0,1.4-0.7,1.5-1.5
					c0.1-1.1,0.3-2.1,0.4-3.2c0.1-0.8-0.8-1.5-1.5-1.5C201.4,476.9,200.9,477.6,200.8,478.4L200.8,478.4z"/>
			</g>
			<g>
				<path class="st48" d="M212.2,473.7c0,0.4,0,0.8,0,1.2c0,0.8,0.7,1.5,1.5,1.5c0.8,0,1.5-0.7,1.5-1.5c0-0.4,0-0.8,0-1.2
					c0-0.8-0.7-1.5-1.5-1.5C212.9,472.2,212.2,472.8,212.2,473.7L212.2,473.7z"/>
			</g>
			<g>
				<path class="st48" d="M179.2,483.5c-0.3,0.8-0.5,1.6-0.8,2.4c-0.2,0.7,0.3,1.7,1,1.8c0.8,0.2,1.6-0.3,1.8-1
					c0.3-0.8,0.5-1.6,0.8-2.4c0.2-0.7-0.3-1.7-1-1.8C180.2,482.3,179.5,482.7,179.2,483.5L179.2,483.5z"/>
			</g>
			<g>
				<path class="st48" d="M262.9,279.2c-0.2,2.1-0.1,4.2,0.4,6.2c0.4,1.9,3.3,1.1,2.9-0.8c-0.4-1.8-0.5-3.6-0.3-5.4
					C266.1,277.3,263.1,277.3,262.9,279.2L262.9,279.2z"/>
			</g>
			<g>
				<path class="st48" d="M262.9,293.8c-0.1,1.7-0.3,3.3-0.4,5c-0.2,1.9,2.8,1.9,3,0c0.1-1.7,0.3-3.3,0.4-5
					C266.1,291.9,263.1,291.9,262.9,293.8L262.9,293.8z"/>
			</g>
			<g>
				<path class="st48" d="M255.8,289.6c0,0.7,0,1.4,0,2.1c0,0.8,0.7,1.5,1.5,1.5c0.8,0,1.5-0.7,1.5-1.5c0-0.7,0-1.4,0-2.1
					c0-0.8-0.7-1.5-1.5-1.5C256.5,288.2,255.8,288.8,255.8,289.6L255.8,289.6z"/>
			</g>
			<g>
				<path class="st48" d="M270.9,286.7c-0.2,1.3,0,2.5,0.6,3.7c0.4,0.7,1.4,0.9,2.1,0.5c0.7-0.4,0.9-1.3,0.5-2.1
					c-0.1-0.2-0.2-0.5-0.2-0.8c0,0.2,0-0.3,0-0.3c0,0,0-0.5,0-0.3c0.1-0.8-0.2-1.7-1-1.8C272,285.5,271,285.9,270.9,286.7
					L270.9,286.7z"/>
			</g>
			<g>
				<path class="st48" d="M271.2,278c0,0.6,0,1.1,0,1.7c0,0.8,0.7,1.5,1.5,1.5c0.8,0,1.5-0.7,1.5-1.5c0-0.6,0-1.1,0-1.7
					c0-0.8-0.7-1.5-1.5-1.5C271.9,276.5,271.2,277.1,271.2,278L271.2,278z"/>
			</g>
			<g>
				<path class="st48" d="M271.7,297.1c0,1.1,0,2.2,0,3.3c0,1.9,3,1.9,3,0c0-1.1,0-2.2,0-3.3C274.7,295.2,271.7,295.2,271.7,297.1
					L271.7,297.1z"/>
			</g>
			<g>
				<path class="st48" d="M280,284.6c0.1,1.2,0.3,2.5,0.4,3.7c0.1,0.8,0.6,1.5,1.5,1.5c0.7,0,1.6-0.7,1.5-1.5
					c-0.1-1.2-0.3-2.5-0.4-3.7c-0.1-0.8-0.6-1.5-1.5-1.5C280.7,283.1,279.9,283.8,280,284.6L280,284.6z"/>
			</g>
			<g>
				<path class="st48" d="M253.3,302.9c0,1,0,1.9,0,2.9c0,1.9,3,1.9,3,0c0-1,0-1.9,0-2.9C256.3,301,253.3,301,253.3,302.9
					L253.3,302.9z"/>
			</g>
			<g>
				<path class="st48" d="M266.7,313.8c0.1,0.8,0.3,1.7,0.4,2.5c0.1,0.8,1.1,1.2,1.8,1c0.8-0.2,1.2-1,1-1.8
					c-0.1-0.8-0.3-1.7-0.4-2.5c-0.1-0.8-1.1-1.2-1.8-1C266.9,312.1,266.5,313,266.7,313.8L266.7,313.8z"/>
			</g>
			<g>
				<path class="st48" d="M284.6,297.1c0,1.4,0,2.8,0,4.2c0,1.9,3,1.9,3,0c0-1.4,0-2.8,0-4.2C287.6,295.2,284.6,295.2,284.6,297.1
					L284.6,297.1z"/>
			</g>
			<g>
				<path class="st48" d="M293.3,282.5c-0.1,0.8-0.3,1.7-0.4,2.5c-0.1,0.8,0.2,1.7,1,1.8c0.7,0.2,1.7-0.2,1.8-1
					c0.1-0.8,0.3-1.7,0.4-2.5c0.1-0.8-0.2-1.7-1-1.8C294.4,281.3,293.4,281.7,293.3,282.5L293.3,282.5z"/>
			</g>
			<g>
				<path class="st48" d="M294.8,299.9c1.9,0,1.9-3,0-3C292.9,296.9,292.9,299.9,294.8,299.9L294.8,299.9z"/>
			</g>
			<g>
				<path class="st48" d="M280.5,312.9c0.1,0.4,0.3,0.8,0.4,1.2c0.3,0.8,1,1.3,1.8,1c0.7-0.2,1.3-1.1,1-1.8
					c-0.1-0.4-0.3-0.8-0.4-1.2c-0.3-0.8-1-1.3-1.8-1C280.8,311.3,280.2,312.1,280.5,312.9L280.5,312.9z"/>
			</g>
			<g>
				<path class="st48" d="M304.1,289.2c0,0.8,0,1.7,0,2.5c0,0.8,0.7,1.5,1.5,1.5c0.8,0,1.5-0.7,1.5-1.5c0-0.8,0-1.7,0-2.5
					c0-0.8-0.7-1.5-1.5-1.5C304.8,287.7,304.1,288.4,304.1,289.2L304.1,289.2z"/>
			</g>
			<g>
				<path class="st48" d="M314.1,277.1c0,0.1,0,0.3,0,0.4c0,0.8,0.7,1.5,1.5,1.5c0.8,0,1.5-0.7,1.5-1.5c0-0.1,0-0.3,0-0.4
					c0-0.8-0.7-1.5-1.5-1.5C314.8,275.7,314.1,276.3,314.1,277.1L314.1,277.1z"/>
			</g>
			<g>
				<path class="st48" d="M319.5,294.6c0,1.2,0,2.5,0,3.7c0,1.9,3,1.9,3,0c0-1.2,0-2.5,0-3.7C322.5,292.7,319.5,292.7,319.5,294.6
					L319.5,294.6z"/>
			</g>
			<g>
				<path class="st48" d="M314.5,286.3c0,0.4,0,0.8,0,1.2c0,0.8,0.7,1.5,1.5,1.5c0.8,0,1.5-0.7,1.5-1.5c0-0.4,0-0.8,0-1.2
					c0-0.8-0.7-1.5-1.5-1.5C315.2,284.8,314.5,285.4,314.5,286.3L314.5,286.3z"/>
			</g>
			<g>
				<path class="st48" d="M305,302.5c0.1,1.2,0.3,2.5,0.4,3.7c0.1,0.8,0.6,1.5,1.5,1.5c0.7,0,1.6-0.7,1.5-1.5
					c-0.1-1.2-0.3-2.5-0.4-3.7c-0.1-0.8-0.6-1.5-1.5-1.5C305.7,301,304.9,301.7,305,302.5L305,302.5z"/>
			</g>
			<g>
				<path class="st48" d="M327.6,283c-0.1,0.6-0.3,1.1-0.4,1.7c-0.2,0.8,0.2,1.7,1,1.8c0.8,0.2,1.6-0.2,1.8-1
					c0.1-0.6,0.3-1.1,0.4-1.7c0.2-0.8-0.2-1.7-1-1.8C328.6,281.8,327.8,282.2,327.6,283L327.6,283z"/>
			</g>
			<g>
				<path class="st48" d="M329.9,298.8c0,0.8,0,1.7,0,2.5c0,0.8,0.7,1.5,1.5,1.5c0.8,0,1.5-0.7,1.5-1.5c0-0.8,0-1.7,0-2.5
					c0-0.8-0.7-1.5-1.5-1.5C330.6,297.3,329.9,297.9,329.9,298.8L329.9,298.8z"/>
			</g>
			<g>
				<path class="st48" d="M315.2,301.1c1.9,0,1.9-3,0-3C313.3,298.1,313.3,301.1,315.2,301.1L315.2,301.1z"/>
			</g>
			<g>
				<path class="st48" d="M339.5,288.4c0.1,0.4,0.3,0.8,0.4,1.3c0.2,0.8,1,1.3,1.8,1c0.8-0.2,1.3-1.1,1-1.8
					c-0.1-0.4-0.3-0.8-0.4-1.3c-0.2-0.8-1-1.3-1.8-1C339.8,286.7,339.3,287.6,339.5,288.4L339.5,288.4z"/>
			</g>
			<g>
				<path class="st48" d="M343.3,303c-0.3,1.4-0.1,2.8,0.5,4.1c0.3,0.7,1.4,0.9,2.1,0.5c0.8-0.4,0.9-1.3,0.5-2.1
					c-0.2-0.5-0.3-1.2-0.2-1.8c0.2-0.8-0.2-1.6-1-1.8C344.5,301.7,343.5,302.2,343.3,303L343.3,303z"/>
			</g>
			<g>
				<path class="st48" d="M337.4,299.2c0,0.6,0,1.1,0,1.7c0,0.8,0.7,1.5,1.5,1.5c0.8,0,1.5-0.7,1.5-1.5c0-0.6,0-1.1,0-1.7
					c0-0.8-0.7-1.5-1.5-1.5C338.1,297.7,337.4,298.4,337.4,299.2L337.4,299.2z"/>
			</g>
			<g>
				<path class="st48" d="M323.7,311.7c0.1,1.2,0.3,2.5,0.4,3.7c0.1,0.8,0.6,1.5,1.5,1.5c0.7,0,1.6-0.7,1.5-1.5
					c-0.1-1.2-0.3-2.5-0.4-3.7c-0.1-0.8-0.6-1.5-1.5-1.5C324.5,310.2,323.6,310.9,323.7,311.7L323.7,311.7z"/>
			</g>
			<g>
				<path class="st48" d="M337.3,279c1.9,0,1.9-3,0-3C335.3,276,335.3,279,337.3,279L337.3,279z"/>
			</g>
		</g>
	</g>
</g>
</svg>
