<?xml version="1.0" encoding="utf-8"?>
<!-- Generator: Adobe Illustrator 22.0.0, SVG Export Plug-In . SVG Version: 6.00 Build 0)  -->
<svg version="1.1" xmlns="http://www.w3.org/2000/svg" xmlns:xlink="http://www.w3.org/1999/xlink" x="0px" y="0px"
	 viewBox="0 0 600 600" style="enable-background:new 0 0 600 600;" xml:space="preserve">
<style type="text/css">
	.st0{fill:#808739;}
	.st1{fill:#8E9B57;}
	.st2{fill:#FFFFFF;}
	.st3{fill:#282624;}
	.st4{fill:#E88B3F;}
	.st5{fill:#B6C176;}
	.st6{fill:#BF5D2C;}
	.st7{fill:#D36B31;}
	.st8{fill:#E8926D;}
	.st9{fill:#DD7D5B;}
	.st10{fill:#79599E;}
	.st11{fill:#ED9B85;}
	.st12{fill:#9B71BC;}
	.st13{fill:#44342C;}
	.st14{fill:#B899D6;}
	.st15{fill:#8865AA;}
	.st16{fill:#E583AB;}
	.st17{fill:#CE6F9A;}
	.st18{fill:#EDB254;}
	.st19{fill:#5984C1;}
	.st20{fill:#E09E3F;}
	.st21{fill:#426DA0;}
	.st22{fill:#EFA3C6;}
	.st23{fill:#4D527A;}
	.st24{fill:#3B4163;}
	.st25{fill:#F9CB8F;}
	.st26{fill:#D8983D;}
	.st27{fill:#DD9D40;}
	.st28{fill:#C44747;}
	.st29{fill:#D85959;}
	.st30{fill:#E87979;}
	.st31{fill:#A59C4A;}
	.st32{fill:#B7B15C;}
	.st33{fill:#D1C875;}
	.st34{fill:#8259AA;}
	.st35{fill:#87D8D5;}
	.st36{fill:#73C6C6;}
	.st37{fill:#66B5B3;}
	.st38{fill:#F9E9D4;}
	.st39{fill:#F7A4C9;}
	.st40{fill:#EF8854;}
	.st41{fill:#EA7DB1;}
	.st42{fill:#9B5072;}
	.st43{fill:#F7ADCF;}
	.st44{fill:#825B38;}
	.st45{fill:#92DDDB;}
	.st46{fill:#775E96;}
	.st47{fill:#655284;}
	.st48{fill:#755593;}
</style>
<g id="Monster_1">
</g>
<g id="Monster_2">
</g>
<g id="Monster_3">
</g>
<g id="Monster_4">
</g>
<g id="Monster_5">
</g>
<g id="Monster_6">
</g>
<g id="Monster_7">
</g>
<g id="Monster_8">
</g>
<g id="Monster_9">
</g>
<g id="Monster_10">
</g>
<g id="Monster_11">
</g>
<g id="Monster_12">
</g>
<g id="Monster_13">
</g>
<g id="Monster_14">
</g>
<g id="Monster_15">
	<g>
		<path class="st12" d="M139.2,292.1c-15-14.6-27.8-71.3-19-89.8c13-27.3,20.7-36.5,12.1-47.7c-6.1-7.9-14.8,15-14.8,15
			s-9-40.8-31.9-34.8c-13.9,3.7-18,23.9-6.6,34.9c11.4,11,16.7,20.7,18,32.1c1.3,11.4-6.4,86.3,10.2,109.8
			c16.6,23.5,47.7,15.4,46.2,4C152,304.3,144.6,297.3,139.2,292.1z"/>
		<path class="st12" d="M423.9,346c18.5-9.9,46.6-60.7,43.3-80.9c-4.9-29.8-9.7-40.8,1.7-49.2c8.1-5.9,10,18.5,10,18.5
			s20.1-36.7,40.3-24.5c12.4,7.4,10.6,28-3.4,35.3c-14,7.4-21.8,15.2-26.3,25.8c-4.5,10.6-18,84.7-40.5,102.6
			c-22.5,17.9-50.1,1.5-45.5-9C408.3,354.1,417.3,349.5,423.9,346z"/>
		<path class="st12" d="M288.3,463.2c1.1,8.4,2.8,82.6,7.1,86.5c4.3,4,58.7,4.1,62.1,0c3.4-4.1-5.5-19.9-18.8-20.6
			c-13.2-0.7-26.7,8.4-26.7,8.4s11.7-68.8,7.9-74.3C316.3,457.7,287.8,459.1,288.3,463.2z"/>
		<path class="st12" d="M196.6,425.1c-9.8,3.1-37.8,30.7-47.1,41.9c-9.3,11.3-15.9,70.4-18,72.1c-2.1,1.6-15-8.5-26.8-8.3
			c-11.8,0.2-21.5,12.6-22.6,18c-1.1,5.4,61.8,4.3,65.1,2.7c3.2-1.6,20.4-56.2,24.7-62.5c4.3-6.3,41.3-0.1,56.5-16
			C234.1,466.9,206.8,421.8,196.6,425.1z"/>
		<path class="st36" d="M286.4,111.4c-74.9,17.1-137.3,99.4-165.4,179c-28,79.6,22.8,144.4,62.8,167.1
			c53.5,30.4,206.8,58.4,241.3-26.7S423.3,80,286.4,111.4z"/>
		<g>
			
				<ellipse transform="matrix(0.7071 -0.7071 0.7071 0.7071 -93.2873 247.9601)" class="st2" cx="252.7" cy="236.6" rx="65.8" ry="65.8"/>
			
				<ellipse transform="matrix(0.7071 -0.7071 0.7071 0.7071 -86.2356 315.0945)" class="st2" cx="337.2" cy="261.6" rx="52.4" ry="52.4"/>
			<circle class="st3" cx="337.2" cy="261.6" r="31.1"/>
			
				<ellipse transform="matrix(0.1602 -0.9871 0.9871 0.1602 -18.8274 445.9649)" class="st3" cx="252.7" cy="234" rx="41.2" ry="41.2"/>
			
				<ellipse transform="matrix(0.9239 -0.3827 0.3827 0.9239 -83.3056 105.8405)" class="st2" cx="224.4" cy="262.3" rx="12.9" ry="12.9"/>
			
				<ellipse transform="matrix(0.7071 -0.7071 0.7071 0.7071 -107.0952 326.9946)" class="st2" cx="341.2" cy="292.8" rx="9.1" ry="9.1"/>
		</g>
		<path class="st3" d="M338.6,390.7c-0.3,0.3-0.6,0.5-0.9,0.8c-2.1,1.9-4.6,3.5-7.5,4.9c-7.8,3.8-18.2,6-29.8,6.7
			c-27.6,1.8-61.3-4.7-80-15.9c-1.6-1-3.1-1.9-4.4-3c-9.6-7.2-16.2-17-20-27.1c-1.8-4.8-2.9-9.7-3.4-14.3
			c-1.4-12.5,1.9-23.6,9.7-28.2c4.8-2.9,9.8-1.9,15.2,1.2c6.2,3.6,13.1,10,21.1,16.4c4.8,3.9,10.1,7.8,15.9,11
			c14.8,8.3,31.1,9.4,45.7,8.5c11-0.6,21-2.3,28.8-2.7c2.9-0.1,5.5-0.1,7.8,0.2C352.5,351.7,359.9,370.9,338.6,390.7z"/>
		<path class="st36" d="M239.3,154.6c-4.8-11.2-16.9-58.7-21.4-65.6c-4.5-6.8-15-8.1-19.4-13.8c-4.5-5.7-3-20,14.2-25.9
			c17.2-6,24.1,2.2,26.6,11.2c2.5,9-4.9,18.7-5.7,22.4c-0.7,3.7,20.8,62,18.6,68.8S243.2,163.6,239.3,154.6z"/>
		<path class="st36" d="M382.7,202.5c4.9-11.2,31.2-52.6,33.1-60.5c1.9-8-4.4-16.4-3.3-23.6c1.1-7.2,12.5-15.9,28.6-7.4
			c16.1,8.4,14.9,19.1,10.1,27.1c-4.8,8-17,9.2-20.2,11.2c-3.2,2-30.9,57.7-37.3,60.7C387.3,213,378.8,211.5,382.7,202.5z"/>
		<path class="st36" d="M231.9,139.8c-9.8,3.4-47.5,17.2-55.2,24.9c-7.7,7.7,14.2,5.4,30.3,0C223.1,159.4,234.7,138.9,231.9,139.8z"
			/>
		<path class="st36" d="M192.4,175.1c-9.3-0.6-50.4,17.6-65.8,31s0.8,9.6,9.6,8c8.8-1.5,30.6-8,44.1-10.7S199.7,175.6,192.4,175.1z"
			/>
		<path class="st36" d="M415.3,226.4c8.6,14.9,34.1,58.9,34.7,69.8c0.7,10.9-34.1-22.9-40-34.5C404.1,250,415.3,226.4,415.3,226.4z"
			/>
		<path class="st36" d="M424.4,276.3c10.1,12.9,34.1,49.3,36.7,70.2c2.6,21-48.5-15.8-56.4-35.1
			C396.9,292.1,420.2,270.8,424.4,276.3z"/>
		<path class="st36" d="M164.5,211.4c-15.6,4.8-32.1,19.2-31.2,22.7c0.9,3.4,19.8-2.4,29-7.6C171.6,221.2,170.7,209.5,164.5,211.4z"
			/>
		<path class="st36" d="M408.3,226.4c5,3.1,22.5,9.3,23.8,7.6c1.3-1.7-8.6-22.7-20.7-24.8C407,208.4,402.8,223,408.3,226.4z"/>
		<path class="st7" d="M300.4,403.1c-27.6,1.8-61.3-4.7-80-15.9c-1.2-10.9,5.8-22.4,16.9-23.1c14.6-0.9,25.1,14.2,25.1,14.2
			s16.5-11.9,31.4-6C307.4,377.8,306.8,393.7,300.4,403.1z"/>
		<path class="st2" d="M238.6,332.3c-6.1,1.9-13.2,4.4-19.8,7.3c-8.9,3.9-16.7,11-22.7,17.7c-7.2,8.1-11.6,15.6-11.6,15.6
			c0.8-11.2,3.8-21.3,8.2-29.9c6.5-12.9,15.9-22.3,24.9-27C223.8,319.5,230.6,325.9,238.6,332.3z"/>
		<path class="st2" d="M338.6,390.7c-0.6,7.3-2.2,14.9-5.2,22.5c0,0-0.6-7.4-3.2-16.8c-2.4-9.1-6.6-20-13.5-27.9
			c-5.3-6.1-11.4-12-16.4-16.6c11-0.6,21-2.3,28.8-2.7C335.6,358.9,339.9,373.9,338.6,390.7z"/>
		<path class="st45" d="M411.4,362.2c1.1,14.5,4.4,47.6,7.3,41.7c2.9-5.9,5.9-50.6,3.8-56.5C420.3,341.4,410.6,351.9,411.4,362.2z"
			/>
		<path class="st45" d="M411.3,303.6c4.6,7.6,17.9,27,20.9,22.1c2.9-4.9-10.6-37-14.2-41.3C414.5,280.1,407.1,296.6,411.3,303.6z"/>
		<path class="st45" d="M401.1,316.1c-3.5,12.8-1.8,32.8,0.5,29.7s7.6-18.6,8-23.4C409.9,317.6,402.9,309.6,401.1,316.1z"/>
		<circle class="st12" cx="218.3" cy="64.5" r="9.5"/>
		<circle class="st12" cx="432.6" cy="124.8" r="9.5"/>
		<path class="st35" d="M252.7,135.7c13.6-9.8,41-22.9,45.2-10.9c3.3,9.5-46.5,32.5-51.1,26.9C242.2,146.2,247.4,139.5,252.7,135.7z
			"/>
	</g>
</g>
<g id="Monster_16">
</g>
<g id="Monster_17">
</g>
<g id="Monster_18">
</g>
<g id="Monster_19">
</g>
<g id="Monster_20">
</g>
</svg>
