<?xml version="1.0" encoding="utf-8"?>
<!-- Generator: Adobe Illustrator 22.0.0, SVG Export Plug-In . SVG Version: 6.00 Build 0)  -->
<svg version="1.1" xmlns="http://www.w3.org/2000/svg" xmlns:xlink="http://www.w3.org/1999/xlink" x="0px" y="0px"
	 viewBox="0 0 600 600" style="enable-background:new 0 0 600 600;" xml:space="preserve">
<style type="text/css">
	.st0{fill:#808739;}
	.st1{fill:#8E9B57;}
	.st2{fill:#FFFFFF;}
	.st3{fill:#282624;}
	.st4{fill:#E88B3F;}
	.st5{fill:#B6C176;}
	.st6{fill:#BF5D2C;}
	.st7{fill:#D36B31;}
	.st8{fill:#E8926D;}
	.st9{fill:#DD7D5B;}
	.st10{fill:#79599E;}
	.st11{fill:#ED9B85;}
	.st12{fill:#9B71BC;}
	.st13{fill:#44342C;}
	.st14{fill:#B899D6;}
	.st15{fill:#8865AA;}
	.st16{fill:#E583AB;}
	.st17{fill:#CE6F9A;}
	.st18{fill:#EDB254;}
	.st19{fill:#5984C1;}
	.st20{fill:#E09E3F;}
	.st21{fill:#426DA0;}
	.st22{fill:#EFA3C6;}
	.st23{fill:#4D527A;}
	.st24{fill:#3B4163;}
	.st25{fill:#F9CB8F;}
	.st26{fill:#D8983D;}
	.st27{fill:#DD9D40;}
	.st28{fill:#C44747;}
	.st29{fill:#D85959;}
	.st30{fill:#E87979;}
	.st31{fill:#A59C4A;}
	.st32{fill:#B7B15C;}
	.st33{fill:#D1C875;}
	.st34{fill:#8259AA;}
	.st35{fill:#87D8D5;}
	.st36{fill:#73C6C6;}
	.st37{fill:#66B5B3;}
	.st38{fill:#F9E9D4;}
	.st39{fill:#F7A4C9;}
	.st40{fill:#EF8854;}
	.st41{fill:#EA7DB1;}
	.st42{fill:#9B5072;}
	.st43{fill:#F7ADCF;}
	.st44{fill:#825B38;}
	.st45{fill:#92DDDB;}
	.st46{fill:#775E96;}
	.st47{fill:#655284;}
	.st48{fill:#755593;}
</style>
<g id="Monster_1">
</g>
<g id="Monster_2">
</g>
<g id="Monster_3">
</g>
<g id="Monster_4">
</g>
<g id="Monster_5">
</g>
<g id="Monster_6">
</g>
<g id="Monster_7">
</g>
<g id="Monster_8">
</g>
<g id="Monster_9">
</g>
<g id="Monster_10">
</g>
<g id="Monster_11">
</g>
<g id="Monster_12">
</g>
<g id="Monster_13">
</g>
<g id="Monster_14">
</g>
<g id="Monster_15">
</g>
<g id="Monster_16">
</g>
<g id="Monster_17">
</g>
<g id="Monster_18">
</g>
<g id="Monster_19">
	<g>
		<path class="st27" d="M189.3,250.2c-9.1-25.1-76.1-4.1-84.4,5.5c-8.3,9.7,0.7,17.9,12.4,13.1c0,0-3.5,21,7.6,25.7
			c11,4.7,25.5-16.5,25.5-16.5s-5.5,25,10.4,27.2C176.7,307.5,195.1,266,189.3,250.2z"/>
		<path class="st27" d="M409.9,226.3c7-25.7,75.6-10.2,84.6-1.3c9,9,0.8,17.9-11.3,14.1c0,0,5.1,20.6-5.5,26.2
			c-10.6,5.6-26.8-14.4-26.8-14.4s7.5,24.5-8.1,28C427.1,282.4,405.5,242.6,409.9,226.3z"/>
		<path class="st18" d="M443.5,502.1c0,13.9-21,25.4-38.1,25.7c-4.2,0.1-8.2-0.5-11.5-1.9c-17-7.1-14.2-62.4-19.6-66.9
			c-5.4-4.5-106.6,7.3-123.2,11.3c-16.6,4-7.5,62.6-25.4,69c-1.9,0.7-4,1.2-6.2,1.7c-17.8,3.4-41.8-2.3-46.8-13.7
			c-5.7-12.8,8.5-34,23.4-34.5c0,0-72.9-218.6-7.6-293.1c31-35.4,184.1-69.5,234.2-20.7c50,48.8-9.5,295.7-9.5,295.7
			C431,467.6,443.5,484.8,443.5,502.1z"/>
		<g>
			<g>
				<path class="st18" d="M257.7,109.7c-0.1-11.6-12.4-31.4-40-21c-22.8,8.7-17.2,35.3-7.6,41.9c5.7,4,13.7,4.2,21.5,2.1
					c5.2,14.1,19.1,52.3,21.5,52.6c2.8,0.4,12.1-8,12.1-8s-13.8-36.7-20.6-50.2C252.1,122.4,257.7,115.9,257.7,109.7z"/>
				<path class="st18" d="M387,99c-20.4-13.3-38.6,6.9-38.3,18.6c0.2,6.9,4.7,13.5,10.9,18.6c-8.3,12.5-31,46.3-29.8,48.4
					c1.3,2.5,13.6,5,13.6,5s21.5-32.8,28.4-46.2c8.4,3.4,17,4,21.9,0.3C402.9,136.7,411.7,115.1,387,99z"/>
				<path class="st18" d="M336.4,96.8c4.2-13.1-2-40.1-37-38.7c-28.9,1.1-32.7,33.1-24.5,44.2c4.9,6.6,13.8,9.9,23.3,10.6
					c0.5,17.9,1.6,66.1,4.2,67.4c3,1.5,16.6-4.5,16.6-4.5s-1.6-46.5-4.1-64.3C325.4,109,334.1,103.8,336.4,96.8z"/>
			</g>
			<path class="st2" d="M300.9,65.2c-21.3,0.8-25.7,25.9-18,32.6c14,12.1,40.5,4.9,45.3-4C333,84.8,326.7,64.3,300.9,65.2z"/>
			<path class="st3" d="M302.5,76.7c-9,0.3-10.9,11-7.6,13.8c5.9,5.1,17.1,2.1,19.1-1.7C316,84.9,313.3,76.3,302.5,76.7z"/>
		</g>
		<path class="st2" d="M208.8,330.4c-9.3,4.4-5.6,20.6,0,22.5c5.6,1.9,15.9-1.4,15.4-8.9C223.8,336.5,217.7,326.2,208.8,330.4z"/>
		<path class="st2" d="M180.9,351.2c-9.3,6.3-6,24.4-0.4,27.1c5.6,2.7,15.9-2,15.4-12.7C195.5,354.9,189.8,345.2,180.9,351.2z"/>
		<path class="st2" d="M171.6,313.7c-1.5,10.5,0.9,20.4,7.5,23c6.6,2.7,17.3-1.3,16.8-11.5c-0.4-10.2-0.4-17.7-5.3-19.5
			C185.8,304,173.4,301.4,171.6,313.7z"/>
		<path class="st2" d="M419.3,299.2c-10.1,0.4-11.1,18.5-9.2,24.5c1.8,6,16.1,4.2,18.9-2.7C431.8,314,432.2,298.7,419.3,299.2z"/>
		<path class="st2" d="M413.3,337.6c-7,5.3-6.9,22,0,26.6c6.9,4.7,11.5-3.5,12.9-15.8C427.6,336.1,419.3,333,413.3,337.6z"/>
		<path class="st2" d="M388.8,327.3c-5.4,5.8-2.3,13.9,3.2,14.1c5.5,0.2,11.4,0.9,11-7.1C402.7,326.4,395.3,320.3,388.8,327.3z"/>
		<path class="st3" d="M390.2,240.2c-2.2,4-5.9,7.5-10.8,10.7c-19.6,12.8-57.6,19.5-86,20.8c-16.6,0.7-33.3-1.4-47.2-5.5
			c-15.8-4.6-28.1-11.8-32.5-20.2c-8.1-15.4,0-30.3,10.6-35.2c4.6-2.1,10.4-4.2,17.1-6.2c5.9-1.8,12.4-3.5,19.4-5.1
			c29.1-6.7,65.5-11.4,91-9.7c2.6,0.2,5,0.4,7.3,0.7c4.2,0.6,8,1.4,11.4,2.4C397.3,200.9,399.9,222.6,390.2,240.2z"/>
		<path class="st16" d="M379.4,250.9c-19.6,12.8-57.6,19.5-86,20.8c-16.6,0.7-33.3-1.4-47.2-5.5c10.2-11.6,34.6-25.7,57.3-30.4
			C333.3,229.7,369.2,237.7,379.4,250.9z"/>
		<path class="st2" d="M257.7,226.5c-4.2,1.2-14-13.7-16.3-21.9c5.9-1.8,12.4-3.5,19.4-5.1C261.8,208.2,261.5,225.4,257.7,226.5z"/>
		<path class="st2" d="M370.5,192.8c-3.3,8.6-9.1,19.9-12.5,19.4c-3.7-0.5-6.3-13.5-6.2-22.5c2.6,0.2,5,0.4,7.3,0.7
			C363.3,191,367.1,191.8,370.5,192.8z"/>
		<g>
			<path class="st2" d="M220.9,94.1c-16.8,6.4-13.6,27.6-5.6,30.9c14.4,5.9,33.7-7,35.1-15.4C251.7,101.1,241.2,86.4,220.9,94.1z"/>
			<path class="st3" d="M225.2,102.8c-7.1,2.7-5.7,11.7-2.4,13c6.1,2.5,14.2-3,14.8-6.5C238.2,105.8,233.7,99.5,225.2,102.8z"/>
		</g>
		<g>
			<path class="st2" d="M384.5,104.7c-15.1-9.8-30.3,5.4-28.2,13.7c3.8,15.1,25.5,23.1,33.1,19.2
				C397.1,133.8,402.8,116.6,384.5,104.7z"/>
			<path class="st3" d="M380,113.4c-6.4-4.1-12.8,2.3-11.9,5.8c1.6,6.4,10.8,9.7,14,8.1C385.3,125.6,387.7,118.4,380,113.4z"/>
		</g>
		<path class="st27" d="M405.4,527.9c-4.2,0.1-8.2-0.5-11.5-1.9c-17-7.1-14.2-62.4-19.6-66.9c-5.4-4.5-106.6,7.3-123.2,11.3
			c-16.6,4-7.5,62.6-25.4,69c-1.9,0.7-4,1.2-6.2,1.7c5.7-11.2,10.3-30.3,11.4-42.8c1.4-16.4,0-33.3,10.8-39.9
			c10.8-6.6,120.6-16.4,131.4-15.5c10.8,0.9,11,7,13,14.1C388.1,464,382.4,519.9,405.4,527.9z"/>
	</g>
</g>
<g id="Monster_20">
</g>
</svg>
