<?xml version="1.0" encoding="utf-8"?>
<!-- Generator: Adobe Illustrator 22.0.0, SVG Export Plug-In . SVG Version: 6.00 Build 0)  -->
<svg version="1.1" xmlns="http://www.w3.org/2000/svg" xmlns:xlink="http://www.w3.org/1999/xlink" x="0px" y="0px"
	 viewBox="0 0 600 600" style="enable-background:new 0 0 600 600;" xml:space="preserve">
<style type="text/css">
	.st0{fill:#808739;}
	.st1{fill:#8E9B57;}
	.st2{fill:#FFFFFF;}
	.st3{fill:#282624;}
	.st4{fill:#E88B3F;}
	.st5{fill:#B6C176;}
	.st6{fill:#BF5D2C;}
	.st7{fill:#D36B31;}
	.st8{fill:#E8926D;}
	.st9{fill:#DD7D5B;}
	.st10{fill:#79599E;}
	.st11{fill:#ED9B85;}
	.st12{fill:#9B71BC;}
	.st13{fill:#44342C;}
	.st14{fill:#B899D6;}
	.st15{fill:#8865AA;}
	.st16{fill:#E583AB;}
	.st17{fill:#CE6F9A;}
	.st18{fill:#EDB254;}
	.st19{fill:#5984C1;}
	.st20{fill:#E09E3F;}
	.st21{fill:#426DA0;}
	.st22{fill:#EFA3C6;}
	.st23{fill:#4D527A;}
	.st24{fill:#3B4163;}
	.st25{fill:#F9CB8F;}
	.st26{fill:#D8983D;}
	.st27{fill:#DD9D40;}
	.st28{fill:#C44747;}
	.st29{fill:#D85959;}
	.st30{fill:#E87979;}
	.st31{fill:#A59C4A;}
	.st32{fill:#B7B15C;}
	.st33{fill:#D1C875;}
	.st34{fill:#8259AA;}
	.st35{fill:#87D8D5;}
	.st36{fill:#73C6C6;}
	.st37{fill:#66B5B3;}
	.st38{fill:#F9E9D4;}
	.st39{fill:#F7A4C9;}
	.st40{fill:#EF8854;}
	.st41{fill:#EA7DB1;}
	.st42{fill:#9B5072;}
	.st43{fill:#F7ADCF;}
	.st44{fill:#825B38;}
	.st45{fill:#92DDDB;}
	.st46{fill:#775E96;}
	.st47{fill:#655284;}
	.st48{fill:#755593;}
</style>
<g id="Monster_1">
</g>
<g id="Monster_2">
</g>
<g id="Monster_3">
</g>
<g id="Monster_4">
</g>
<g id="Monster_5">
</g>
<g id="Monster_6">
</g>
<g id="Monster_7">
</g>
<g id="Monster_8">
</g>
<g id="Monster_9">
</g>
<g id="Monster_10">
</g>
<g id="Monster_11">
	<g>
		<path class="st16" d="M183,323.7c-36.8-6.5-61.9-22.2-73.6-61c-11.7-38.8-1.6-76.7-9.1-80.2c-10.3-4.8-13.8,15.3-13.8,15.3
			s-0.5-14.7-9.8-13.8c-7.9,0.7-5.2,18.3-5.2,18.3s-8.8-16.7-14.1-7.4C53,202.7,70.4,278,89.7,314.2c30.8,57.6,73.1,64.1,101.3,63
			C219.1,376.2,194.6,325.7,183,323.7z"/>
		<path class="st16" d="M417,279c36.8-6.5,61.9-22.2,73.6-61c11.7-38.8,1.6-76.7,9.1-80.2c10.3-4.8,13.8,15.3,13.8,15.3
			s0.5-14.7,9.8-13.8c7.9,0.7,5.2,18.3,5.2,18.3s8.8-16.7,14.1-7.4c4.4,7.8-12.9,83.2-32.3,119.4c-30.8,57.6-73.1,64.1-101.3,63
			C380.9,331.4,405.4,281,417,279z"/>
		<path class="st36" d="M225.4,121c-14.8-19.1-33.4-31.5-28.2-47.8s26.3-19.1,28.2-18.2c1.9,1,0,7.2,5.7,9.6
			c5.7,2.4,19.4-1.4,16.4-13.4c-3-11.9-19.8-10.3-34.1-5.6c-18.2,6-30.9,18.7-33.4,35.2c-3.8,24.9,2.9,39.2,10,47.8
			C197.2,137.2,229.5,126.3,225.4,121z"/>
		<path class="st36" d="M325.8,109.2c9.5-22.2,24.5-38.9,15.3-53.3c-9.2-14.4-30.2-11.9-31.8-10.5c-1.6,1.4,1.8,6.9-3.2,10.7
			c-4.9,3.8-19.1,3.5-19.2-8.8c-0.1-12.3,16.5-15,31.6-14c19.2,1.2,34.6,10.3,41.2,25.7c9.9,23.2,7.1,38.7,2.3,48.8
			C357.1,117.8,323.1,115.3,325.8,109.2z"/>
		<path class="st16" d="M453.1,563.9c-2.4,3.1-21.4,3.5-38.8,2.8c-14.5-0.6-27.9-1.8-29.5-2.8c-2.3-1.4-7.5-38.2-9.9-66.3
			c-30.8,6.9-66.7,8.8-96,5.9c-2.5,27.1-7.2,59.1-9.3,60.4c-1.2,0.7-8.7,1.6-18.3,2.2c-19.3,1.3-47.2,1.6-50.1-2.2
			c-4.3-5.8-8.6-25.2,5.8-31.7c14.4-6.5,37.4,6.5,36,0c-0.7-3.2-6.1-16.4-11.4-28.8c-0.9-2.1-1.7-4.1-2.6-6.1
			c-4.2-9.8-7.7-17.9-7.7-17.9c-10.8-15.7-25.5-47.1-39.1-83.7c-21-56.2-39.8-124.6-39.2-166.8c1-75.5,22.5-97,69.4-118.4
			c47-21.4,179.6-37.8,214.3,6.1c22.1,28,32.4,128.3,30.5,216.9c-1,47.1-5.5,90.8-13.5,118.7c-1.3,6.5-3.5,13.7-6.1,20.9
			c-9.6,26.7-25.2,54.9-26.1,58.9c-1.4,6.5,21.6-6.5,36,0C461.7,538.7,457.4,558.1,453.1,563.9z"/>
		
			<ellipse transform="matrix(0.9909 -0.1348 0.1348 0.9909 -30.1647 43.5266)" class="st2" cx="306.2" cy="244.5" rx="77.6" ry="88.2"/>
		
			<ellipse transform="matrix(0.9909 -0.1348 0.1348 0.9909 -27.8254 39.8794)" class="st3" cx="280.5" cy="225.4" rx="35.4" ry="40.3"/>
		
			<ellipse transform="matrix(0.9909 -0.1349 0.1349 0.9909 -27.1356 37.4262)" class="st2" cx="262.7" cy="219" rx="10.3" ry="11.7"/>
		<path class="st42" d="M242.2,350.3c13.6,8.2,47.5,16.7,77.7,14c30.2-2.7,66.3-25.9,82-41.5c15.6-15.6,4.3,7.6-3.2,14.6
			c-7.6,7-27.5,27-58.2,33.4c-30.7,6.5-58.8,3.2-77.7-3.8c-18.9-7-34.5-21.2-29.7-21.1C237.9,346,238.3,347.9,242.2,350.3z"/>
		<path class="st43" d="M247.9,454.2c0,17.1-7.3,32.5-19,43.2c-4.2-9.8-7.7-17.9-7.7-17.9c-10.8-15.7-25.5-47.1-39.1-83.7
			c2.3-0.3,4.7-0.4,7.1-0.4C221.6,395.4,247.9,421.7,247.9,454.2z"/>
		<path class="st43" d="M457.1,333.7c-1,47.1-5.5,90.8-13.5,118.7c-1.3,6.5-3.5,13.7-6.1,20.9c-20.3-14.4-33.5-38-33.5-64.7
			C404,374,426.2,344.5,457.1,333.7z"/>
		<path class="st17" d="M414.3,566.7c-14.5-0.6-27.9-1.8-29.5-2.8c-2.3-1.4-7.5-38.2-9.9-66.3c-30.8,6.9-66.7,8.8-96,5.9
			c-2.5,27.1-7.2,59.1-9.3,60.4c-1.2,0.7-8.7,1.6-18.3,2.2c5.6-2.6,11-6.3,11.5-10.6c0.9-9.1,4.4-61.9,7.5-66.5
			c3-4.6,23.9,2.5,47.2,0c23.4-2.5,50.3-6.6,60.4-10.2c10.1-3.5,11.2,9.6,10.7,20.8c-0.5,11.2,3.9,54.3,7.5,58.9
			C397.9,560.9,406.5,564.1,414.3,566.7z"/>
	</g>
</g>
<g id="Monster_12">
</g>
<g id="Monster_13">
</g>
<g id="Monster_14">
</g>
<g id="Monster_15">
</g>
<g id="Monster_16">
</g>
<g id="Monster_17">
</g>
<g id="Monster_18">
</g>
<g id="Monster_19">
</g>
<g id="Monster_20">
</g>
</svg>
