<?xml version="1.0" encoding="utf-8"?>
<!-- Generator: Adobe Illustrator 22.0.0, SVG Export Plug-In . SVG Version: 6.00 Build 0)  -->
<svg version="1.1" xmlns="http://www.w3.org/2000/svg" xmlns:xlink="http://www.w3.org/1999/xlink" x="0px" y="0px"
	 viewBox="0 0 600 600" style="enable-background:new 0 0 600 600;" xml:space="preserve">
<style type="text/css">
	.st0{fill:#808739;}
	.st1{fill:#8E9B57;}
	.st2{fill:#FFFFFF;}
	.st3{fill:#282624;}
	.st4{fill:#E88B3F;}
	.st5{fill:#B6C176;}
	.st6{fill:#BF5D2C;}
	.st7{fill:#D36B31;}
	.st8{fill:#E8926D;}
	.st9{fill:#DD7D5B;}
	.st10{fill:#79599E;}
	.st11{fill:#ED9B85;}
	.st12{fill:#9B71BC;}
	.st13{fill:#44342C;}
	.st14{fill:#B899D6;}
	.st15{fill:#8865AA;}
	.st16{fill:#E583AB;}
	.st17{fill:#CE6F9A;}
	.st18{fill:#EDB254;}
	.st19{fill:#5984C1;}
	.st20{fill:#E09E3F;}
	.st21{fill:#426DA0;}
	.st22{fill:#EFA3C6;}
	.st23{fill:#4D527A;}
	.st24{fill:#3B4163;}
	.st25{fill:#F9CB8F;}
	.st26{fill:#D8983D;}
	.st27{fill:#DD9D40;}
	.st28{fill:#C44747;}
	.st29{fill:#D85959;}
	.st30{fill:#E87979;}
	.st31{fill:#A59C4A;}
	.st32{fill:#B7B15C;}
	.st33{fill:#D1C875;}
	.st34{fill:#8259AA;}
	.st35{fill:#87D8D5;}
	.st36{fill:#73C6C6;}
	.st37{fill:#66B5B3;}
	.st38{fill:#F9E9D4;}
	.st39{fill:#F7A4C9;}
	.st40{fill:#EF8854;}
	.st41{fill:#EA7DB1;}
	.st42{fill:#9B5072;}
	.st43{fill:#F7ADCF;}
	.st44{fill:#825B38;}
	.st45{fill:#92DDDB;}
	.st46{fill:#775E96;}
	.st47{fill:#655284;}
	.st48{fill:#755593;}
</style>
<g id="Monster_1">
</g>
<g id="Monster_2">
</g>
<g id="Monster_3">
</g>
<g id="Monster_4">
</g>
<g id="Monster_5">
</g>
<g id="Monster_6">
</g>
<g id="Monster_7">
</g>
<g id="Monster_8">
</g>
<g id="Monster_9">
</g>
<g id="Monster_10">
</g>
<g id="Monster_11">
</g>
<g id="Monster_12">
</g>
<g id="Monster_13">
</g>
<g id="Monster_14">
</g>
<g id="Monster_15">
</g>
<g id="Monster_16">
	<g>
		<g>
			<path class="st6" d="M135.5,363.5c-4.2,9.3,1.1,84.2,3.2,92.3c2.2,8.1,44.2,5.9,47.5,0c3.2-5.9,2.2-20-7-21.6
				c-9.2-1.6-17.5,0.5-17.5,0.5s8.3-70.7,5.6-75.5C164.7,354.4,138.2,357.6,135.5,363.5z"/>
			<path class="st6" d="M200.8,363.5c-4.2,9.3,1.1,84.2,3.2,92.3c2.2,8.1,44.2,5.9,47.5,0c3.2-5.9,2.2-20-7-21.6
				c-9.2-1.6-17.5,0.5-17.5,0.5s8.3-70.7,5.6-75.5C229.9,354.4,203.5,357.6,200.8,363.5z"/>
		</g>
		<g>
			<path class="st6" d="M333,363.5c-4.2,9.3,1.1,84.2,3.2,92.3c2.2,8.1,44.2,5.9,47.5,0c3.2-5.9,2.2-20-7-21.6
				c-9.2-1.6-17.5,0.5-17.5,0.5s8.3-70.7,5.6-75.5C362.1,354.4,335.7,357.6,333,363.5z"/>
			<path class="st6" d="M398.3,363.5c-4.2,9.3,1.1,84.2,3.2,92.3c2.2,8.1,44.2,5.9,47.5,0s2.2-20-7-21.6c-9.2-1.6-17.5,0.5-17.5,0.5
				s8.3-70.7,5.6-75.5C427.4,354.4,401,357.6,398.3,363.5z"/>
		</g>
		<path class="st7" d="M507,227.2c-2.2-5-4.8-9.8-7.6-14.1c-5.4-8.2-12-15.3-19.6-21.2c-20.1-15.4-47.5-22.5-80.4-20.2
			c3.1-5.9,5.1-12.4,3.7-16.8c-2.6-8.1-15.4,7.1-15.4,7.1s4.6-21.4-4-23.1c-8.7-1.7-14.9,24.9-14.9,24.9s-6.5-27-15.5-24.8
			c-9,2.2-3.7,30.7-3.7,30.7s-14.3-12.7-18-7.7c-2.8,3.7,0.5,15.7,7.6,22.3c-0.2,0.1-0.5,0.2-0.7,0.2
			c-68.2,23.1-188.6,12.5-235.3,79.5c-8.9,12.9-14.8,27.1-17.8,41.3c-0.8,3.8-1.4,7.6-1.7,11.3c-0.4,4.2-0.6,8.3-0.5,12.4
			c0,0.8,0,1.6,0.1,2.3c0.2,4.3,0.7,8.6,1.5,12.6c0.9,4.8,2.2,9.3,3.9,13.6c2.3,5.9,5.3,11.4,9,16.1c3.7,4.8,8.1,8.8,13.2,12
			c5.3,3.3,11.3,5.8,18,7c46.2,8.6,267.4,8,313.8-9.4C513.6,356.9,530.4,280.6,507,227.2z"/>
		<circle class="st2" cx="431.9" cy="253.1" r="46.6"/>
		<circle class="st3" cx="424" cy="254" r="30.8"/>
		<circle class="st2" cx="326.8" cy="265.2" r="41.9"/>
		<circle class="st3" cx="333.2" cy="262.1" r="30.8"/>
		<path class="st2" d="M414.3,258.7c0,3.1-2.5,5.7-5.7,5.7c-3.1,0-5.7-2.5-5.7-5.7c0-3.1,2.5-5.7,5.7-5.7
			C411.8,253.1,414.3,255.6,414.3,258.7z"/>
		<path class="st2" d="M356.8,262.1c0,3.1-2.5,5.7-5.7,5.7s-5.7-2.5-5.7-5.7c0-3.1,2.5-5.7,5.7-5.7S356.8,259,356.8,262.1z"/>
		<path class="st18" d="M462.5,193.2c-8.1-0.8-6.2,9.6,0,11.4C468.7,206.3,469.7,193.9,462.5,193.2z"/>
		<path class="st18" d="M499.3,213.1c-4.6,3.2-11.5,4.2-16.2,1.6c-6.6-3.6-11.4-16.1-3.4-22.8C487.4,197.8,493.9,204.8,499.3,213.1z
			"/>
		<path class="st18" d="M492,223.3c-11.9,1.7-8.7,13-3.7,15.7c5,2.7,13.9-1.3,12.2-7.3C498.8,225.6,496.7,222.7,492,223.3z"/>
		<path class="st3" d="M461.8,318.6c0.1,1-4.4,2.4-11.5,4c-3.6,0.8-7.9,1.7-12.6,2.6c-22.7,4.3-55.8,9-74.1,11.2
			c-4.2,0.5-8.6,0.9-12.8,1.2c-4.8,0.4-9.5,0.6-13.5,0.7c-7.8,0.2-13.1,0.1-12.5-0.5c1.3-1.1,3.5-2.9,9.7-3.6
			c0.8-0.1,1.9-0.2,3.2-0.4c2.6-0.4,6.3-0.9,10.6-1.5c22.3-3.2,63.7-9.4,89.9-12.5c3.8-0.4,7.2-0.8,10.3-1.1
			C456.5,318,461.7,317.8,461.8,318.6z"/>
		<path class="st2" d="M350.7,337.6c-4.8,0.4-9.5,0.6-13.5,0.7c0.1-1.4,0.2-2.9,0.4-4.5c0.6-5.5,1.6-11.4,3.1-11.9
			c1.3-0.5,4.8,5.1,7.5,10.4C349.1,334.2,350,336,350.7,337.6z"/>
		<path class="st2" d="M450.3,322.6c-3.6,0.8-7.9,1.7-12.6,2.6c0.1-1.6,0.3-3.5,0.5-5.3c0.6-5.2,1.5-10.5,3-11
			c1.3-0.5,4.5,4.7,7.2,9.9C449,320.1,449.7,321.4,450.3,322.6z"/>
		<path class="st18" d="M110.7,385.9c-5.1-3.2-9.5-7.3-13.2-12c-3.7-4.8-6.7-10.2-9-16.1c-1.7-4.3-2.9-8.9-3.9-13.6
			c-0.8-4.1-1.3-8.3-1.5-12.6c0-0.8-0.1-1.6-0.1-2.3c14.8,5.3,32.1,18,36.3,27.7C124.2,367.8,119.1,378.9,110.7,385.9z"/>
		<path class="st18" d="M118.4,304.2c-14.6,3.2-10.4,27,2.9,31.2c13.2,4.2,25.2-0.2,21-10.2C138.1,315.2,130.3,301.6,118.4,304.2z"
			/>
		<path class="st18" d="M143.1,350.5c-11.6,2.8-8.7,22.1,0,23.4C160.9,376.4,158,346.8,143.1,350.5z"/>
		<path class="st18" d="M160.9,330.1c-8.5,2.6-5.1,14.2,2.7,15.2C171.4,346.3,173.3,326.3,160.9,330.1z"/>
		<path class="st8" d="M149.4,245c13.5-9.6,34-16.7,58.4-20.4c24.4-3.7,32.6-3.3,32.1,2.8c-0.6,6.6-27.3,12.8-46.8,21.3
			c-15.6,6.8-33.5,14.3-40.3,11.8C146,258,143.1,249.5,149.4,245z"/>
		<path class="st8" d="M265.2,214.4c-5.7,0.6-11.9,6.6-9.4,10.5c2.5,3.9,13.3,0.5,16.9-2.6C276.2,219.1,272.9,213.6,265.2,214.4z"/>
	</g>
</g>
<g id="Monster_17">
</g>
<g id="Monster_18">
</g>
<g id="Monster_19">
</g>
<g id="Monster_20">
</g>
</svg>
