<?xml version="1.0" encoding="utf-8"?>
<!-- Generator: Adobe Illustrator 22.0.0, SVG Export Plug-In . SVG Version: 6.00 Build 0)  -->
<svg version="1.1" xmlns="http://www.w3.org/2000/svg" xmlns:xlink="http://www.w3.org/1999/xlink" x="0px" y="0px"
	 viewBox="0 0 600 600" style="enable-background:new 0 0 600 600;" xml:space="preserve">
<style type="text/css">
	.st0{fill:#808739;}
	.st1{fill:#8E9B57;}
	.st2{fill:#FFFFFF;}
	.st3{fill:#282624;}
	.st4{fill:#E88B3F;}
	.st5{fill:#B6C176;}
	.st6{fill:#BF5D2C;}
	.st7{fill:#D36B31;}
	.st8{fill:#E8926D;}
	.st9{fill:#DD7D5B;}
	.st10{fill:#79599E;}
	.st11{fill:#ED9B85;}
	.st12{fill:#9B71BC;}
	.st13{fill:#44342C;}
	.st14{fill:#B899D6;}
	.st15{fill:#8865AA;}
	.st16{fill:#E583AB;}
	.st17{fill:#CE6F9A;}
	.st18{fill:#EDB254;}
	.st19{fill:#5984C1;}
	.st20{fill:#E09E3F;}
	.st21{fill:#426DA0;}
	.st22{fill:#EFA3C6;}
	.st23{fill:#4D527A;}
	.st24{fill:#3B4163;}
	.st25{fill:#F9CB8F;}
	.st26{fill:#D8983D;}
	.st27{fill:#DD9D40;}
	.st28{fill:#C44747;}
	.st29{fill:#D85959;}
	.st30{fill:#E87979;}
	.st31{fill:#A59C4A;}
	.st32{fill:#B7B15C;}
	.st33{fill:#D1C875;}
	.st34{fill:#8259AA;}
	.st35{fill:#87D8D5;}
	.st36{fill:#73C6C6;}
	.st37{fill:#66B5B3;}
	.st38{fill:#F9E9D4;}
	.st39{fill:#F7A4C9;}
	.st40{fill:#EF8854;}
	.st41{fill:#EA7DB1;}
	.st42{fill:#9B5072;}
	.st43{fill:#F7ADCF;}
	.st44{fill:#825B38;}
	.st45{fill:#92DDDB;}
	.st46{fill:#775E96;}
	.st47{fill:#655284;}
	.st48{fill:#755593;}
</style>
<g id="Monster_1">
</g>
<g id="Monster_2">
</g>
<g id="Monster_3">
</g>
<g id="Monster_4">
</g>
<g id="Monster_5">
</g>
<g id="Monster_6">
	<g>
		<path class="st28" d="M211.7,448.3c0.1,9.3,4.5,61.3,3.5,73.1c-0.3,3.8-15.6,7.6-17.8,16c-2.2,8.4,15.2,6,30.7,5.9
			c17.9-0.2,25.1-1.9,22.9-7.6c-3.1-7.8-20-9.3-20.5-12.8c-1.5-10.6,6.9-77.3,6-81.5C235.5,437.1,211.6,443.1,211.7,448.3z"/>
		<path class="st28" d="M318.4,448.3c0.1,9.3,4.5,61.3,3.5,73.1c-0.3,3.8-15.6,7.6-17.8,16c-2.2,8.4,15.2,6,30.7,5.9
			c17.9-0.2,25.1-1.9,22.9-7.6c-3.1-7.8-20-9.3-20.5-12.8c-1.5-10.6,6.9-77.3,6-81.5C342.3,437.1,318.4,443.1,318.4,448.3z"/>
		<path class="st29" d="M462.3,160.8c-9.3,17-24.6,25.8-49.3,33.4c-2,0.6-3.9,1.3-5.6,2.2c-18.5,9-24.8,30.9-26.7,48.7
			c-3.5,33.9,77.6,50.9,50.7,145.9c-11.2,39.5-54.7,71.4-117.7,81.1c-13.2,2-27.3,3.1-42.2,3c-86.5-0.4-136.5-42-140.7-95.9
			c-4.3-56.4,34-90.3,47.6-106.8c24.4-29.5,34.8-73.1,5.9-80.7c-46.1-12.2-60.3-57.3-43.9-94.3c16.3-37.1,64.3-47.2,97.1-26.5
			c32.7,20.7,35.9,74.8,10.1,106.1c-16.9,20.6-19.6,73.7,22,83.6c32.2,7.6,69.2-17.5,74-49.9c6-40.6-28.9-56.4-14.2-108.6
			c12.4-44.1,60.8-54,94.8-38.8C472.2,84.2,476.9,134,462.3,160.8z"/>
		<circle class="st2" cx="396.8" cy="126" r="55.3"/>
		<g>
			<ellipse transform="matrix(0.7071 -0.7071 0.7071 0.7071 -30.8375 177.492)" class="st2" cx="198.8" cy="126" rx="51" ry="51"/>
			<g>
				<circle class="st3" cx="217.9" cy="130.2" r="21.7"/>
				<circle class="st2" cx="231.9" cy="116.8" r="6.7"/>
			</g>
		</g>
		<g>
			
				<ellipse transform="matrix(0.7071 -0.7071 0.7071 0.7071 41.2732 306.8407)" class="st3" cx="391" cy="103.6" rx="20.6" ry="20.6"/>
			<path class="st2" d="M410.6,90.8c0,3.5-2.8,6.3-6.3,6.3c-3.5,0-6.3-2.8-6.3-6.3c0-3.5,2.8-6.3,6.3-6.3
				C407.8,84.5,410.6,87.3,410.6,90.8z"/>
		</g>
		<path class="st2" d="M206.5,347.7c-8.3-0.8-15.6,30.2-10.5,33.3c7.7,4.6,31.7-16.7,32.1-21.6C228.4,354.5,210.5,348.1,206.5,347.7
			z"/>
		<path class="st2" d="M343,338.9c-4.7,6.8,18.6,28.5,23.9,25.5c7.8-4.4,1.1-35.8-3-38.5S345.3,335.6,343,338.9z"/>
		<path class="st3" d="M196.2,339c16.9,8.1,34.7,23.1,76.8,20.6c42.1-2.5,93.2-38,104-46.2c10.7-8.3-21.5,26.4-52.8,39.6
			c-31.4,13.2-58,16.5-85.5,11.6C211.1,359.6,187.7,335,196.2,339z"/>
		<path class="st28" d="M431.3,390.9c-11.2,39.5-54.7,71.4-117.7,81.1c53.3-19.9,71.6-44,84.3-74.8c13.4-32.4,7.9-78.8-6.9-98.1
			c-26.3-34.2-32.7-63.2-16.8-83.4c5.8-7.4,18.9-14,33.2-19.4c-18.5,9-24.8,30.9-26.7,48.7C377.1,278.9,458.3,295.9,431.3,390.9z"/>
		<path class="st28" d="M178.1,423.1c-1,8.3,0.9,11.6,2.7,10.3c1.3-1,3.5-9.3,2.6-11.5C182.3,419.8,178.6,419,178.1,423.1z"/>
		<path class="st28" d="M191.7,404c-1,8.3,0.9,11.6,2.7,10.3c1.3-1,3.5-9.3,2.6-11.5C196,400.6,192.2,399.9,191.7,404z"/>
		<path class="st28" d="M213.2,397.3c-1,8.3,0.9,11.6,2.7,10.3c1.3-1,3.5-9.3,2.6-11.5C217.5,393.9,213.8,393.1,213.2,397.3z"/>
		<path class="st28" d="M363.7,291.7c2.5,7.9,5.7,10.1,6.7,8.2c0.8-1.4-0.7-9.9-2.5-11.5C366.1,286.8,362.4,287.7,363.7,291.7z"/>
		<path class="st28" d="M391,356.6c-0.6,8.3,1.5,11.5,3.2,10.1c1.2-1,3.1-9.4,2-11.6C395.1,353,391.4,352.5,391,356.6z"/>
		<path class="st28" d="M386.7,390.8c0.5,8.3,3.1,11.2,4.6,9.6c1.1-1.2,1.7-9.8,0.3-11.7C390.2,386.7,386.4,386.6,386.7,390.8z"/>
		<path class="st28" d="M387.2,328.6c-0.6,8.3,1.5,11.5,3.2,10.1c1.2-1,3.1-9.4,2-11.6C391.2,325,387.5,324.4,387.2,328.6z"/>
		<path class="st28" d="M367,375.5c-0.6,8.3,1.5,11.5,3.2,10.1c1.2-1,3.1-9.4,2-11.6C371.1,371.9,367.3,371.4,367,375.5z"/>
		<path class="st28" d="M345.9,288.1c2.5,7.9,5.7,10.1,6.7,8.2c0.8-1.4-0.7-9.9-2.5-11.5C348.3,283.2,344.7,284.1,345.9,288.1z"/>
		<path class="st28" d="M354.9,263.2c2.5,7.9,5.7,10.1,6.7,8.2c0.8-1.4-0.7-9.9-2.5-11.5C357.3,258.4,353.7,259.3,354.9,263.2z"/>
		<path class="st28" d="M202.7,426c-1,8.3,0.9,11.6,2.7,10.3c1.3-1,3.5-9.3,2.6-11.5C207,422.7,203.2,421.9,202.7,426z"/>
		<path class="st28" d="M182.8,384.6c-1,8.3,0.9,11.6,2.7,10.3c1.3-1,3.5-9.3,2.6-11.5C187.1,381.2,183.4,380.5,182.8,384.6z"/>
		<path class="st28" d="M168.6,398.9c-1,8.3,0.9,11.6,2.7,10.3c1.3-1,3.5-9.3,2.6-11.5C172.8,395.5,169.1,394.8,168.6,398.9z"/>
		<path class="st30" d="M188.3,280.5c-7.6-2.9-26.9,34.6-28.3,43.4c-1.5,8.8,11.7-2.2,17.5-11.7C185.4,299.3,194.9,283,188.3,280.5z
			"/>
		<path class="st30" d="M154.8,336.8c-4.5-0.4-3.9,7.6-1.3,8.3c2.7,0.6,6.6-1.6,6.3-4.1C159.6,338.4,156.9,337,154.8,336.8z"/>
	</g>
</g>
<g id="Monster_7">
</g>
<g id="Monster_8">
</g>
<g id="Monster_9">
</g>
<g id="Monster_10">
</g>
<g id="Monster_11">
</g>
<g id="Monster_12">
</g>
<g id="Monster_13">
</g>
<g id="Monster_14">
</g>
<g id="Monster_15">
</g>
<g id="Monster_16">
</g>
<g id="Monster_17">
</g>
<g id="Monster_18">
</g>
<g id="Monster_19">
</g>
<g id="Monster_20">
</g>
</svg>
