<?xml version="1.0" encoding="utf-8"?>
<!-- Generator: Adobe Illustrator 22.0.0, SVG Export Plug-In . SVG Version: 6.00 Build 0)  -->
<svg version="1.1" xmlns="http://www.w3.org/2000/svg" xmlns:xlink="http://www.w3.org/1999/xlink" x="0px" y="0px"
	 viewBox="0 0 600 600" style="enable-background:new 0 0 600 600;" xml:space="preserve">
<style type="text/css">
	.st0{fill:#808739;}
	.st1{fill:#8E9B57;}
	.st2{fill:#FFFFFF;}
	.st3{fill:#282624;}
	.st4{fill:#E88B3F;}
	.st5{fill:#B6C176;}
	.st6{fill:#BF5D2C;}
	.st7{fill:#D36B31;}
	.st8{fill:#E8926D;}
	.st9{fill:#DD7D5B;}
	.st10{fill:#79599E;}
	.st11{fill:#ED9B85;}
	.st12{fill:#9B71BC;}
	.st13{fill:#44342C;}
	.st14{fill:#B899D6;}
	.st15{fill:#8865AA;}
	.st16{fill:#E583AB;}
	.st17{fill:#CE6F9A;}
	.st18{fill:#EDB254;}
	.st19{fill:#5984C1;}
	.st20{fill:#E09E3F;}
	.st21{fill:#426DA0;}
	.st22{fill:#EFA3C6;}
	.st23{fill:#4D527A;}
	.st24{fill:#3B4163;}
	.st25{fill:#F9CB8F;}
	.st26{fill:#D8983D;}
	.st27{fill:#DD9D40;}
	.st28{fill:#C44747;}
	.st29{fill:#D85959;}
	.st30{fill:#E87979;}
	.st31{fill:#A59C4A;}
	.st32{fill:#B7B15C;}
	.st33{fill:#D1C875;}
	.st34{fill:#8259AA;}
	.st35{fill:#87D8D5;}
	.st36{fill:#73C6C6;}
	.st37{fill:#66B5B3;}
	.st38{fill:#F9E9D4;}
	.st39{fill:#F7A4C9;}
	.st40{fill:#EF8854;}
	.st41{fill:#EA7DB1;}
	.st42{fill:#9B5072;}
	.st43{fill:#F7ADCF;}
	.st44{fill:#825B38;}
	.st45{fill:#92DDDB;}
	.st46{fill:#775E96;}
	.st47{fill:#655284;}
	.st48{fill:#755593;}
</style>
<g id="Monster_1">
</g>
<g id="Monster_2">
</g>
<g id="Monster_3">
</g>
<g id="Monster_4">
</g>
<g id="Monster_5">
</g>
<g id="Monster_6">
</g>
<g id="Monster_7">
</g>
<g id="Monster_8">
</g>
<g id="Monster_9">
</g>
<g id="Monster_10">
</g>
<g id="Monster_11">
</g>
<g id="Monster_12">
</g>
<g id="Monster_13">
</g>
<g id="Monster_14">
	<g>
		<path class="st44" d="M331.7,299.6c6,16.4,42.3,157.5,49.7,187.6c7.4,30.1,3,42.9,10.4,52c7.4,9,51,7.7,52.4-11.2
			c1.5-18.8-4.3-22.4-13.9-23.9c-9.6-1.5-20,6.4-20,6.4s-26.7-131.1-34.1-161.2c-7.4-30.1-21.5-49-30.4-49.7
			C336.9,298.8,329.1,292.4,331.7,299.6z"/>
		<path class="st44" d="M245.1,315.1c12.6,25.5,49.6,109.5,46.8,150.7c-2.8,41.2-46.8,49.6-58,45.9c-11.2-3.7-18.7,21.5-15.9,32.8
			c2.8,11.2,15,23.4,27.1,15.9c12.2-7.5,5.3-31.6,5.3-31.6s56.4,1.7,63-27.3c6.6-29-2.8-74.8-10.3-106.2
			c-7.5-31.4-26.2-86.4-31.8-94C265.7,293.5,240.8,306.4,245.1,315.1z"/>
		<path class="st32" d="M477.9,199.8c-5.2,3.1-14.3-0.2-22.6-5.1c-2.5,29.2-15.2,58.2-33.4,74.5c-10.5,9.3-22.3,21-35.9,32.4
			c0,0,0,0,0,0c-38,31.8-90.5,62.2-169.2,37.3c-26.8-8.5-49.2-33.8-63.6-64.2c-2,10.6-4.7,19.2-7.9,19.7c-7.4,1.2-7.4-24.7-9-29.4
			c-1.6-4.6-10.1,26.9-15.1,15.8c-4.9-11.1,9-56.9,9-61.2c0-4.3-5.2,9.6-8.6,0c-2.7-7.5,12.2-42.6,22-56.2c4.3-10,10.5-18.5,19-24.9
			c33.7-25.4,194.9-54.2,253.5-26.9c1.5,0.7,3,1.5,4.5,2.3c5,2.8,9.5,6.2,13.4,10.1c13.1,7.4,28.5,18.5,29,23.6c0.6,6.3-6,6.1-6,6.1
			s15.3,10.8,16.1,18c0.8,6.8-8.3,2.9-8.7,2.7C464.8,174.9,486.6,194.7,477.9,199.8z"/>
		<g>
			
				<ellipse transform="matrix(0.2355 -0.9719 0.9719 0.2355 -27.7965 414.74)" class="st2" cx="249.7" cy="225" rx="57.1" ry="57.1"/>
			
				<ellipse transform="matrix(0.2334 -0.9724 0.9724 0.2334 -27.3798 415.3481)" class="st3" cx="249.7" cy="225" rx="36.2" ry="36.2"/>
			
				<ellipse transform="matrix(0.9014 -0.433 0.433 0.9014 -75.6136 125.0391)" class="st2" cx="236.7" cy="228.5" rx="16.3" ry="16.3"/>
		</g>
		<g>
			<circle class="st2" cx="371.5" cy="174.2" r="49"/>
			
				<ellipse transform="matrix(0.3245 -0.9459 0.9459 0.3245 86.1428 469.0844)" class="st3" cx="371.5" cy="174.2" rx="31" ry="31"/>
			<circle class="st2" cx="360.3" cy="177.2" r="14"/>
		</g>
		<path class="st3" d="M366.4,283c-13.1,16.3-49.2,6.3-59,2.2c-10.6-4.5-14.6-11.2-5.8-10c6.1,0.8,17.7,2.1,29.8-0.4
			c4.8-1,9.7-2.6,14.4-5.2c0.1-0.1,0.2-0.1,0.3-0.2c0.4-0.2,0.8-0.4,1.1-0.7c4.2-2.6,7.9-6.2,11.2-10.1
			c8.7-10.2,14.1-22.2,17.1-21.6C379.7,238.1,379.5,266.7,366.4,283z"/>
		<path class="st2" d="M347.3,277.2c-0.8,3.1-4.5,4-7.4,4c-2,0-5.3-2.9-8.4-6.5c4.8-1,9.7-2.6,14.4-5.2c0.1-0.1,0.2-0.1,0.3-0.2
			C347.3,272.2,347.8,275.5,347.3,277.2z"/>
		<path class="st2" d="M362.5,270.5c-0.8,3.1-4.5,4-7.4,4c-1.9,0-4.9-2.5-7.8-5.8c4.2-2.6,7.9-6.2,11.2-10.1
			C361.6,260.9,363.2,267.7,362.5,270.5z"/>
		<g>
			<path class="st18" d="M205.9,137.6c-1,4.5-9.3,9.9-17.6,13c-7.7,2.9-15.3,3.8-16.9,0.5c-11.7-23.7-25.2-67.1-16.5-73.2
				C163.5,71.9,207.8,128.9,205.9,137.6z"/>
			<path class="st27" d="M205.9,137.6c-1,4.5-9.3,9.9-17.6,13c3.8-6.2,7.9-15.4,4.4-23c-5.8-12.5-37.8-49.7-37.8-49.7
				C163.5,71.9,207.8,128.9,205.9,137.6z"/>
			<path class="st25" d="M158.7,92.8c-4.2,0.2,2,16.5,3.9,17.7c1.9,1.2,5.6-0.9,4.6-4.3C166.2,102.8,161.8,92.6,158.7,92.8z"/>
		</g>
		<g>
			<path class="st18" d="M343.8,111.8c-2.5,3.8-12.3,5.8-21.2,5.6c-8.2-0.1-15.6-2-15.9-5.8c-2.2-26.3,1.2-71.7,11.5-74.1
				C328.4,35.1,348.7,104.4,343.8,111.8z"/>
			<path class="st27" d="M343.8,111.8c-2.5,3.8-12.3,5.8-21.2,5.6c5.8-4.3,13-11.4,12.5-19.8c-0.8-13.8-17-60.1-17-60.1
				C328.4,35.1,348.7,104.4,343.8,111.8z"/>
			<path class="st25" d="M316.3,52.8c-4-1.3-4.2,16.1-2.9,17.9c1.3,1.8,5.5,1.2,5.8-2.3C319.5,64.9,319.2,53.8,316.3,52.8z"/>
		</g>
		<path class="st31" d="M477.9,199.8c-5.2,3.1-14.3-0.2-22.6-5.1c-2.5,29.2-15.2,58.2-33.4,74.5c-10.5,9.3-22.3,21-35.9,32.4
			c14.8-16.7,51.2-51,53.5-114.8c1-29.2-18.9-72.9-18.9-72.9c5,2.8,9.5,6.2,13.4,10.1c13.1,7.4,28.5,18.5,29,23.6
			c0.6,6.3-6,6.1-6,6.1s15.3,10.8,16.1,18c0.8,6.8-8.3,2.9-8.7,2.7C464.8,174.9,486.6,194.7,477.9,199.8z"/>
		<path class="st33" d="M158.7,181.5c-8.1,15.7-6.1,39.3-1.4,44.1c4.7,4.8,8.8-21.3,12.1-35.2C172.8,176,163.3,172.4,158.7,181.5z"
			/>
		<path class="st33" d="M161.6,239.6c-8.1-0.9-6.8,13.3-1.3,13.3C165.9,252.9,169,240.4,161.6,239.6z"/>
	</g>
</g>
<g id="Monster_15">
</g>
<g id="Monster_16">
</g>
<g id="Monster_17">
</g>
<g id="Monster_18">
</g>
<g id="Monster_19">
</g>
<g id="Monster_20">
</g>
</svg>
