<?xml version="1.0" encoding="utf-8"?>
<!-- Generator: Adobe Illustrator 22.0.0, SVG Export Plug-In . SVG Version: 6.00 Build 0)  -->
<svg version="1.1" xmlns="http://www.w3.org/2000/svg" xmlns:xlink="http://www.w3.org/1999/xlink" x="0px" y="0px"
	 viewBox="0 0 600 600" style="enable-background:new 0 0 600 600;" xml:space="preserve">
<style type="text/css">
	.st0{fill:#808739;}
	.st1{fill:#8E9B57;}
	.st2{fill:#FFFFFF;}
	.st3{fill:#282624;}
	.st4{fill:#E88B3F;}
	.st5{fill:#B6C176;}
	.st6{fill:#BF5D2C;}
	.st7{fill:#D36B31;}
	.st8{fill:#E8926D;}
	.st9{fill:#DD7D5B;}
	.st10{fill:#79599E;}
	.st11{fill:#ED9B85;}
	.st12{fill:#9B71BC;}
	.st13{fill:#44342C;}
	.st14{fill:#B899D6;}
	.st15{fill:#8865AA;}
	.st16{fill:#E583AB;}
	.st17{fill:#CE6F9A;}
	.st18{fill:#EDB254;}
	.st19{fill:#5984C1;}
	.st20{fill:#E09E3F;}
	.st21{fill:#426DA0;}
	.st22{fill:#EFA3C6;}
	.st23{fill:#4D527A;}
	.st24{fill:#3B4163;}
	.st25{fill:#F9CB8F;}
	.st26{fill:#D8983D;}
	.st27{fill:#DD9D40;}
	.st28{fill:#C44747;}
	.st29{fill:#D85959;}
	.st30{fill:#E87979;}
	.st31{fill:#A59C4A;}
	.st32{fill:#B7B15C;}
	.st33{fill:#D1C875;}
	.st34{fill:#8259AA;}
	.st35{fill:#87D8D5;}
	.st36{fill:#73C6C6;}
	.st37{fill:#66B5B3;}
	.st38{fill:#F9E9D4;}
	.st39{fill:#F7A4C9;}
	.st40{fill:#EF8854;}
	.st41{fill:#EA7DB1;}
	.st42{fill:#9B5072;}
	.st43{fill:#F7ADCF;}
	.st44{fill:#825B38;}
	.st45{fill:#92DDDB;}
	.st46{fill:#775E96;}
	.st47{fill:#655284;}
	.st48{fill:#755593;}
</style>
<g id="Monster_1">
</g>
<g id="Monster_2">
	<g>
		<g>
			<path class="st6" d="M223.4,366.4c-1.3,7-4.6,33.2-4.6,37.4c0,4.2-20.2,8.3-24.9,17c-4.6,8.7,11,13.3,26,12.7s22.9-3.5,25.9-10.4
				c3-6.9,3.1-48.2,3.2-53.9C249.1,363.3,224.7,359.2,223.4,366.4z"/>
			<path class="st6" d="M376.6,366.4c1.3,7,4.6,33.2,4.6,37.4c0,4.2,20.2,8.3,24.9,17c4.6,8.7-11,13.3-26,12.7s-22.9-3.5-25.9-10.4
				c-3-6.9-3.1-48.2-3.2-53.9C350.9,363.3,375.3,359.2,376.6,366.4z"/>
		</g>
		<path class="st7" d="M421.6,381.4c-7,2.8-19.2,4.9-34.4,6.4h0c-48.9,5.1-127.9,4.8-157.4,3.4c-38.5-1.8-77.1-22.4-69.9-64.5
			c7.2-42,30.7-82.1,110.2-100.3c18.2-4.2,52.8-0.7,86.7,10.7c21.2,7.1,42.2,17.4,58.9,30.7C444.7,291.2,451.2,369.7,421.6,381.4z"
			/>
		<path class="st6" d="M421.6,381.4c-7,2.8-19.2,4.9-34.4,6.4c32.3-25.7,38.3-88.7,17.3-106.2c-21-17.5-55-32.9-55-32.9
			s3.5-5.4,7.4-11.5c21.2,7.1,42.2,17.4,58.9,30.7C444.7,291.2,451.2,369.7,421.6,381.4z"/>
		
			<ellipse transform="matrix(0.7071 -0.7071 0.7071 0.7071 -69.5688 284.1774)" class="st7" cx="308.2" cy="226.1" rx="51.2" ry="51.2"/>
		
			<ellipse transform="matrix(0.7071 -0.7071 0.7071 0.7071 -69.5688 284.1774)" class="st2" cx="308.2" cy="226.1" rx="41.3" ry="41.3"/>
		
			<ellipse transform="matrix(0.1612 -0.9869 0.9869 0.1612 44.3414 504.3033)" class="st3" cx="318.9" cy="226.1" rx="20.4" ry="20.4"/>
		<circle class="st2" cx="326.1" cy="220.4" r="4.4"/>
		<path class="st3" d="M329.4,337.3c-16.1,9.2-35.4,5.3-49.2,0c-13.8-5.3-26.4-24.8-24.8-30.7c1.7-6.2,6.5-6.4,15.2-3.3
			c2.6,0.9,5.5,2.1,8.6,3.3c4.6,1.7,9.8,3.4,15.5,4.4c0.8,0.1,1.5,0.3,2.3,0.4c5,0.7,10.4,0.8,16.1-0.1c0.6-0.1,1.2-0.2,1.8-0.3
			c0.1,0,0.1,0,0.2,0c5.5-1.1,10.5-2.6,15.1-4.2c11.2-3.8,19.1-7.9,21.9-5.8C361.9,308.6,345.6,328,329.4,337.3z"/>
		<path class="st2" d="M294.6,311c-0.4,1.7-0.9,3.2-1.6,4.1c-2.2,2.6-8.8,2.2-11.2,0c-1.4-1.3-2.2-4.8-2.7-8.5
			C283.7,308.3,288.9,310,294.6,311z"/>
		<path class="st2" d="M313,311.2c-0.3,3.3-0.9,7.2-2.2,8.8c-2.2,2.6-8.8,2.2-11.2,0c-1.4-1.3-2.2-4.9-2.7-8.7
			C301.9,312,307.3,312.1,313,311.2z"/>
		<path class="st2" d="M330.1,306.7c-0.3,3.2-0.9,6.8-2.2,8.3c-2.2,2.6-8.8,2.2-11.2,0c-0.8-0.7-1.4-2.3-1.9-4.1c0.1,0,0.1,0,0.2,0
			C320.5,309.8,325.5,308.3,330.1,306.7z"/>
		<path class="st8" d="M182.6,309.7c1.3-3.9,3.2-10.5,9.1-10.2c5.9,0.3,9.6,8.9,8.6,9.9c-1,1-4.1-5.3-7.5-5.6
			c-5-0.6-5.3,6.2-7.2,8.1C183.8,313.8,181.6,312.5,182.6,309.7z"/>
		<path class="st8" d="M262.9,365.7c2.9-2.5,7.5-7,12.1-4c4.6,3,3.6,11.6,2.3,12c-1.3,0.4-0.8-6.2-3.4-8.1c-3.8-2.8-7.2,2.5-9.6,3.2
			C261.9,369.5,260.8,367.5,262.9,365.7z"/>
		<path class="st8" d="M218.4,329.9c0.9-4.6,2-12.5,8.8-13.1c6.8-0.5,12.3,8.7,11.4,10c-1,1.3-5.5-5.4-9.4-5.3
			c-5.8,0.1-5.1,7.9-7,10.4C220.3,334.4,217.7,333.3,218.4,329.9z"/>
		<path class="st8" d="M364.1,363.9c4.2-2.1,11.2-6.1,15.8-1c4.6,5.1,0.7,15.1-1,15.1c-1.6,0,0.9-7.7-1.6-10.7
			c-3.7-4.5-9.3,0.8-12.5,0.8C361.7,368.2,361,365.5,364.1,363.9z"/>
		<path class="st8" d="M420.3,348.9c-1.5,0.6-1.7-7.5-5.1-9.6c-0.2-0.1-0.4-0.2-0.6-0.3c-4.6-2.1-8,4.2-10.9,5.3
			c-2.9,1.1-4.5-1.2-2.1-3.7c3.1-3.3,8.1-9.1,13.9-6.5c0.2,0.1,0.4,0.2,0.6,0.3C422.1,337.5,421.8,348.3,420.3,348.9z"/>
		<path class="st8" d="M369.8,313.7c3.2-3.4,8.5-9.5,14.5-6.2c6,3.2,5.7,14,4.2,14.6c-1.5,0.6-1.7-7.5-5.1-9.6c-5-3-8.5,3.9-11.5,5
			C369,318.5,367.4,316.2,369.8,313.7z"/>
		<path class="st8" d="M185.8,358.3c1.9-4.3,4.7-11.8,11.4-10.9c6.8,0.9,10.2,11.1,9,12.2c-1.2,1.1-4.2-6.4-8.1-7.2
			c-5.7-1.1-6.7,6.6-9,8.6C186.8,363.1,184.5,361.5,185.8,358.3z"/>
		<path class="st8" d="M417.6,292.8c-1.3,1-3.7-6.8-7.5-7.8c-0.9-0.2-1.7-0.3-2.4-0.1c-3.7,0.8-5.2,6.5-7.3,8
			c-2.5,1.9-4.7,0.1-3.1-3c1.4-2.7,3.4-6.8,6.5-8.9c1.6-1.1,3.5-1.6,5.8-1.1C416.3,281.4,418.9,291.8,417.6,292.8z"/>
		<path class="st9" d="M410.1,285c-0.9-0.2-1.7-0.3-2.4-0.1c-1-1.2-2-2.3-3.2-3.3c-0.2-0.2-0.5-0.4-0.7-0.6c1.6-1.1,3.5-1.6,5.8-1.1
			c6.7,1.5,9.3,11.9,8,12.9C416.3,293.8,413.9,286,410.1,285z"/>
		<path class="st9" d="M420.3,348.9c-1.5,0.6-1.7-7.5-5.1-9.6c-0.2-0.1-0.4-0.2-0.6-0.3c0.4-1.7,0.7-3.3,0.9-5
			c0.2,0.1,0.4,0.2,0.6,0.3C422.1,337.5,421.8,348.3,420.3,348.9z"/>
		<path class="st7" d="M267,199.1c-6-5.9-13.5-18-5.3-19.7c6.3-1.4,15.4,9.9,15.4,9.9S268.8,200.9,267,199.1z"/>
		<path class="st7" d="M280.5,186.8c-3.5-7.6-6.4-20.2,2-20.3c5.4-0.1,10.9,14.7,10.9,14.7S281.6,189.1,280.5,186.8z"/>
		<path class="st8" d="M222.4,269.4c8.4-8.2,22.1-14.7,31.3-15.9c9.2-1.2,9.8,2.7,7.7,5.8c-2.1,3.1-24,10.8-31.5,14.4
			C222.4,277.3,218.9,272.8,222.4,269.4z"/>
		<path class="st8" d="M207.3,277.3c-2.8,2.2-2.1,5.8,1.5,6.7c3.6,0.9,6.5-2.6,5.8-4.5C213.8,277.3,210.4,274.9,207.3,277.3z"/>
	</g>
</g>
<g id="Monster_3">
</g>
<g id="Monster_4">
</g>
<g id="Monster_5">
</g>
<g id="Monster_6">
</g>
<g id="Monster_7">
</g>
<g id="Monster_8">
</g>
<g id="Monster_9">
</g>
<g id="Monster_10">
</g>
<g id="Monster_11">
</g>
<g id="Monster_12">
</g>
<g id="Monster_13">
</g>
<g id="Monster_14">
</g>
<g id="Monster_15">
</g>
<g id="Monster_16">
</g>
<g id="Monster_17">
</g>
<g id="Monster_18">
</g>
<g id="Monster_19">
</g>
<g id="Monster_20">
</g>
</svg>
