<?xml version="1.0" encoding="utf-8"?>
<!-- Generator: Adobe Illustrator 22.0.0, SVG Export Plug-In . SVG Version: 6.00 Build 0)  -->
<svg version="1.1" xmlns="http://www.w3.org/2000/svg" xmlns:xlink="http://www.w3.org/1999/xlink" x="0px" y="0px"
	 viewBox="0 0 600 600" style="enable-background:new 0 0 600 600;" xml:space="preserve">
<style type="text/css">
	.st0{fill:#808739;}
	.st1{fill:#8E9B57;}
	.st2{fill:#FFFFFF;}
	.st3{fill:#282624;}
	.st4{fill:#E88B3F;}
	.st5{fill:#B6C176;}
	.st6{fill:#BF5D2C;}
	.st7{fill:#D36B31;}
	.st8{fill:#E8926D;}
	.st9{fill:#DD7D5B;}
	.st10{fill:#79599E;}
	.st11{fill:#ED9B85;}
	.st12{fill:#9B71BC;}
	.st13{fill:#44342C;}
	.st14{fill:#B899D6;}
	.st15{fill:#8865AA;}
	.st16{fill:#E583AB;}
	.st17{fill:#CE6F9A;}
	.st18{fill:#EDB254;}
	.st19{fill:#5984C1;}
	.st20{fill:#E09E3F;}
	.st21{fill:#426DA0;}
	.st22{fill:#EFA3C6;}
	.st23{fill:#4D527A;}
	.st24{fill:#3B4163;}
	.st25{fill:#F9CB8F;}
	.st26{fill:#D8983D;}
	.st27{fill:#DD9D40;}
	.st28{fill:#C44747;}
	.st29{fill:#D85959;}
	.st30{fill:#E87979;}
	.st31{fill:#A59C4A;}
	.st32{fill:#B7B15C;}
	.st33{fill:#D1C875;}
	.st34{fill:#8259AA;}
	.st35{fill:#87D8D5;}
	.st36{fill:#73C6C6;}
	.st37{fill:#66B5B3;}
	.st38{fill:#F9E9D4;}
	.st39{fill:#F7A4C9;}
	.st40{fill:#EF8854;}
	.st41{fill:#EA7DB1;}
	.st42{fill:#9B5072;}
	.st43{fill:#F7ADCF;}
	.st44{fill:#825B38;}
	.st45{fill:#92DDDB;}
	.st46{fill:#775E96;}
	.st47{fill:#655284;}
	.st48{fill:#755593;}
</style>
<g id="Monster_1">
</g>
<g id="Monster_2">
</g>
<g id="Monster_3">
</g>
<g id="Monster_4">
</g>
<g id="Monster_5">
</g>
<g id="Monster_6">
</g>
<g id="Monster_7">
</g>
<g id="Monster_8">
</g>
<g id="Monster_9">
</g>
<g id="Monster_10">
</g>
<g id="Monster_11">
</g>
<g id="Monster_12">
</g>
<g id="Monster_13">
	<g>
		<path class="st29" d="M101.6,445.5c27-10.8,57.3-23.7,65.2-50.1c7.9-26.4-31.6-75.8-40.8-141.9c-9.2-66.1,5.4-118.8,71.8-151.7
			s167.7-38.6,218.9,5.8c40.8,35.4,52.3,100.3,30.5,163.6c-21.4,62.2-58.3,64.5-70.4,87.6c-12.1,23.1,74.3,30,99.3,59
			c25,29,60.6,67.7,84.3,50.3c23.7-17.4,23.7,5.1-7.9,14.9c-31.6,9.8-79-17.5-98.7-37.4c-19.7-19.9-88.5-52.6-105.5-50.1
			c-17,2.6,26.4,56.5,47.5,67.7s89.5,20.4,81.6,33.6s-67.9,9.2-100.4-7.9c-32.5-17.1-51.2-55.3-66.9-71.1
			c-15.7-15.8-13.8,21.6-22.6,50.3c-8.8,28.7-28.1,30.8-67.8,48.9c-39.7,18-57.7-2.2-77.7,0c-20,2.2-15.2-15.1,12.1-11.2
			c27.2,3.9,73.5-12.2,89.3-29.5c15.9-17.4,12.4-61.1,3.8-69.5c-7.1-7-29.9-7-53.1,12.4c-16.3,13.6-66.9,39.5-92.5,44.1
			c-25.6,4.6-65.1,4.6-75.6-8.6c-10.5-13.2,6.5-12.9,21.7-9.1C62.8,449.3,93.2,448.8,101.6,445.5z"/>
		<circle class="st2" cx="296.9" cy="213.2" r="78.4"/>
		<circle class="st3" cx="277.8" cy="208.6" r="38"/>
		<circle class="st2" cx="260.7" cy="208.6" r="12.3"/>
		<path class="st28" d="M228.4,251.6c27.9,13.2,56.2,20.3,87.4,5.5c37.6-17.8,48.9-45.5,56.2-63.2c5.8-14.2,17.3,26.2,9.9,49.1
			s-29.6,47.6-61.3,53.5c-31.7,5.8-57.4,1.1-74.2-9.6C229.5,276,219.7,247.4,228.4,251.6z"/>
		<path class="st3" d="M340.2,321.2c-0.1,2.1-2.3,4.2-5.8,6.2c-2.8,1.7-6.5,3.3-10.7,4.7c-13.4,4.7-32.3,7.9-45.8,6.7
			c-10.6-0.9-21.6-3.1-30.5-5.9c-4-1.3-7.5-2.6-10.4-4.1c-4.7-2.3-7.7-4.8-8.1-7.3c-0.8-4.3,2.8-5.9,7.9-6.1
			c3.6-0.1,7.8,0.5,11.7,1.4c2.9,0.7,8.4,1.5,15.1,2.3c13,1.4,30.9,2.4,45,1.2h0c2.6-0.2,5-0.5,7.3-0.8c9.2-1.5,15.1-3,18.9-3.6
			C339.4,315.1,340.5,316.1,340.2,321.2z"/>
		<path class="st2" d="M263.4,319.1c-1.2,3.1-4.3,7.1-6.4,8.1c-2.5,1.2-4.1-4-4.7-5.9c-0.3-0.9-2.5,5-5,11.6
			c-2.8,7.3-6,15.4-7.5,15.4c-1.7,0-2.5-9.6-2.9-19.5c-0.2-4.7-0.3-9.5-0.3-13.4c3.6-0.1,7.8,0.5,11.7,1.4
			C251.3,317.5,256.7,318.3,263.4,319.1z"/>
		<path class="st2" d="M334.6,315.9c0,3.4-0.1,7.5-0.2,11.5c-0.4,10.4-1.2,20.8-3,20.8c-1.5,0-4.9-8.6-7.8-16.1
			c-2.4-6.2-4.4-11.7-4.7-10.8c-0.6,1.9-2.2,7.1-4.7,5.9c-1.9-0.9-4.4-4-5.8-6.9c2.6-0.2,5-0.5,7.3-0.8
			C325,318,330.9,316.4,334.6,315.9z"/>
		<path class="st28" d="M375.3,376.9c-11.4,2.8-4.1,7.2,3.5,10.8c7.6,3.6,16.8,4.8,14.4,0C390.8,382.9,379.5,375.8,375.3,376.9z"/>
		<path class="st28" d="M453.8,411.6c-10.2-2.7-10.8,4-9.6,8.4c1.2,4.4,16.8,27.1,23.2,21.6C473.8,436,463,414,453.8,411.6z"/>
		<path class="st28" d="M359.6,457.9c-5.6,5.8,10.9,20.4,21.8,22c10.9,1.6,17.7-4,14.5-7.2c-3.2-3.2-17.2-3.6-22.8-9.2
			C367.6,457.9,361.5,455.9,359.6,457.9z"/>
		<path class="st28" d="M417.9,289.5c6.6-7.8,12-14.4,13.6-8.8c1.6,5.6-4.8,20-13.6,25.9C409.1,312.6,412.4,296,417.9,289.5z"/>
		<path class="st28" d="M396.8,395.2c-4.4,0.4-3.6,6.4,0,6.8C400.4,402.4,401.1,394.8,396.8,395.2z"/>
		<path class="st28" d="M416.3,270.7c-6.4,2.8-2.1,8.7,1.5,7.9S421.6,268.3,416.3,270.7z"/>
		<path class="st28" d="M429.3,262.9c-3.9,3-1.8,12.1,3.9,10.8c5.6-1.3,9.2-5.4,7.7-9.3C439.4,260.6,433.2,260,429.3,262.9z"/>
		<path class="st28" d="M373.2,454.9c-1.3,2.3-1.3,5.7,1.1,5.3c2.4-0.4,3.8-2.8,2.5-4C375.5,455,373.9,453.7,373.2,454.9z"/>
		<path class="st28" d="M351.5,453.8c-1.4,2.3-2.4,5.4,0.4,5.3c2.8-0.1,5.7-3.6,4.4-5.3C355.1,452.1,352.4,452.3,351.5,453.8z"/>
		<path class="st28" d="M269.4,461.4c-4.8,9.6-13.2,16.7-17.1,22.5c-3.9,5.8,5.2,10.2,11.3,5.8c6.1-4.5,11.3-13.5,12.7-21.1
			C277.5,461.1,271,458.1,269.4,461.4z"/>
		<path class="st28" d="M281.3,453.6c-1.6,3.3-2.4,11.2,0,10.8c2.4-0.4,4.8-5.6,4.3-8.6C285,452.9,282.3,451.6,281.3,453.6z"/>
		<path class="st28" d="M257.3,463.1c-4.8,1.3-4.1,6.1,0,6.3C261.4,469.6,261.5,462,257.3,463.1z"/>
		<path class="st28" d="M178.2,514.3c-6.5,1.6-4.8,5.2-1.1,5.4C180.8,519.9,180.9,513.6,178.2,514.3z"/>
		<path class="st28" d="M185.8,507.8c-2.3,2.9-4.8,8.7,0,10c4.8,1.3,12.3-4.8,10.4-8.6C194.4,505.5,187.5,505.7,185.8,507.8z"/>
		<path class="st28" d="M177.2,413.5c-6,5.1-6.2,8-2,9.6s10.9-4.9,9.9-8.4C184.1,411.1,178.8,412.1,177.2,413.5z"/>
		<path class="st28" d="M165.6,412.2c-3.7,1.2-3.4,4.1,0,4.6C169,417.3,168.5,411.3,165.6,412.2z"/>
		<path class="st28" d="M154.6,424.3c-7.7,5.9-9.6,10.6-5.9,11.2c3.7,0.7,11.1-2.9,13.6-7.7C164.8,423,158.2,421.6,154.6,424.3z"/>
		<path class="st28" d="M39.5,452.5c-5.8,1-4.2,4.5-2,5.7c2.2,1.2,16.1,5.5,18.3,3.4c2.2-2.2,2.5-7.5-1-7.9
			C51.3,453.4,42.4,452,39.5,452.5z"/>
		<path class="st28" d="M64.7,450.7c-3.3,1.9-4.7,5.2-2.2,5.5c2.5,0.3,7.4-2.6,6.2-3.8C67.5,451.2,66.5,449.6,64.7,450.7z"/>
		<path class="st30" d="M166.8,146.9c-13,8.8-24.6,36.3-22.2,61.7c2.5,25.4,11.1,16.9,12.7,4.6c1.8-14.6,23.4-45.8,25.8-55.1
			C186.1,146.9,176.3,140.4,166.8,146.9z"/>
		<path class="st30" d="M199.9,120.5c-7.9,1.8-12.8,10.7-8.1,16.5c4.7,5.8,14.9-1.3,16.7-6.3S207,118.9,199.9,120.5z"/>
	</g>
</g>
<g id="Monster_14">
</g>
<g id="Monster_15">
</g>
<g id="Monster_16">
</g>
<g id="Monster_17">
</g>
<g id="Monster_18">
</g>
<g id="Monster_19">
</g>
<g id="Monster_20">
</g>
</svg>
