<?xml version="1.0" encoding="utf-8"?>
<!-- Generator: Adobe Illustrator 22.0.0, SVG Export Plug-In . SVG Version: 6.00 Build 0)  -->
<svg version="1.1" xmlns="http://www.w3.org/2000/svg" xmlns:xlink="http://www.w3.org/1999/xlink" x="0px" y="0px"
	 viewBox="0 0 600 600" style="enable-background:new 0 0 600 600;" xml:space="preserve">
<style type="text/css">
	.st0{fill:#808739;}
	.st1{fill:#8E9B57;}
	.st2{fill:#FFFFFF;}
	.st3{fill:#282624;}
	.st4{fill:#E88B3F;}
	.st5{fill:#B6C176;}
	.st6{fill:#BF5D2C;}
	.st7{fill:#D36B31;}
	.st8{fill:#E8926D;}
	.st9{fill:#DD7D5B;}
	.st10{fill:#79599E;}
	.st11{fill:#ED9B85;}
	.st12{fill:#9B71BC;}
	.st13{fill:#44342C;}
	.st14{fill:#B899D6;}
	.st15{fill:#8865AA;}
	.st16{fill:#E583AB;}
	.st17{fill:#CE6F9A;}
	.st18{fill:#EDB254;}
	.st19{fill:#5984C1;}
	.st20{fill:#E09E3F;}
	.st21{fill:#426DA0;}
	.st22{fill:#EFA3C6;}
	.st23{fill:#4D527A;}
	.st24{fill:#3B4163;}
	.st25{fill:#F9CB8F;}
	.st26{fill:#D8983D;}
	.st27{fill:#DD9D40;}
	.st28{fill:#C44747;}
	.st29{fill:#D85959;}
	.st30{fill:#E87979;}
	.st31{fill:#A59C4A;}
	.st32{fill:#B7B15C;}
	.st33{fill:#D1C875;}
	.st34{fill:#8259AA;}
	.st35{fill:#87D8D5;}
	.st36{fill:#73C6C6;}
	.st37{fill:#66B5B3;}
	.st38{fill:#F9E9D4;}
	.st39{fill:#F7A4C9;}
	.st40{fill:#EF8854;}
	.st41{fill:#EA7DB1;}
	.st42{fill:#9B5072;}
	.st43{fill:#F7ADCF;}
	.st44{fill:#825B38;}
	.st45{fill:#92DDDB;}
	.st46{fill:#775E96;}
	.st47{fill:#655284;}
	.st48{fill:#755593;}
</style>
<g id="Monster_1">
</g>
<g id="Monster_2">
</g>
<g id="Monster_3">
</g>
<g id="Monster_4">
	<g>
		<path class="st16" d="M410.9,513.6c-11.9,28.4-31.9-4.2-42.4-2.1c-10.4,2.1,0,0-20.9,12.5c-20.9,12.5-27.1-12.5-35.5-18.8
			c-8.4-6.3-14.6,10.4-31.3,22.9c-4.3,3.3-8.6,4-12.5,3.1c-11.2-2.5-20.4-17.8-25-23.9c-6.3-8.3-34.7,54.3-55.6,14.7
			c-20.9-39.6-11.3-262.9,14.1-328.7c27.6-71.8,97.3-85.8,156.9-45.4c27.9,18.9,44.9,63,54.4,114.4
			C431.5,360.6,422.5,485.9,410.9,513.6z"/>
		<path class="st17" d="M226.9,423.9c-1.5,8.5-0.3,15.9,5.5,15.9c4.8,0,6.6-6.1,6.3-14.5C238.4,416.9,227.9,418,226.9,423.9z"/>
		<path class="st17" d="M391.4,311.2c-0.7,8.9,1.4,16.5,7.5,15.8c5-0.5,6.2-7.1,4.9-15.7S391.9,305,391.4,311.2z"/>
		<path class="st17" d="M363.7,292.2c-0.7,8.9,1.4,16.5,7.5,15.8c5-0.5,6.2-7.1,4.9-15.7C374.9,283.7,364.2,286.1,363.7,292.2z"/>
		<path class="st17" d="M387.9,267.7c-0.7,8.9,1.4,16.5,7.5,15.8c5-0.5,6.2-7.1,4.9-15.7C399.1,259.2,388.3,261.5,387.9,267.7z"/>
		<path class="st17" d="M370.2,220.2c-0.7,8.9,1.4,16.5,7.5,15.8c5-0.5,6.2-7.1,4.9-15.7C381.4,211.7,370.7,214,370.2,220.2z"/>
		<path class="st17" d="M195.8,439.9c-1.5,8.5-0.3,15.9,5.5,15.9c4.8,0,6.6-6.1,6.3-14.5C207.4,433,196.9,434.1,195.8,439.9z"/>
		<path class="st17" d="M250.9,442.7c-1.5,8.5-0.3,15.9,5.5,15.9c4.8,0,6.6-6.1,6.3-14.5C262.4,435.7,251.9,436.8,250.9,442.7z"/>
		<path class="st17" d="M199.8,483.7c-1.5,8.5-0.3,15.9,5.5,15.9c4.8,0,6.6-6.1,6.3-14.5C211.4,476.7,200.9,477.8,199.8,483.7z"/>
		<path class="st17" d="M225.4,463.2c-1.5,8.5-0.3,15.9,5.5,15.9c4.8,0,6.6-6.1,6.3-14.5C236.9,456.2,226.4,457.3,225.4,463.2z"/>
		<path class="st17" d="M199.8,396.2c-1.5,8.5-0.3,15.9,5.5,15.9c4.8,0,6.6-6.1,6.3-14.5C211.4,389.2,200.9,390.3,199.8,396.2z"/>
		<path class="st2" d="M273.1,199c-35.8,10.5-47,54.4-25.5,74.2c21.5,19.8,101.4,19.1,114.1-10c12.7-29.1-3.7-55.1-25.2-62.4
			C314.9,193.4,291.2,193.7,273.1,199z"/>
		
			<ellipse transform="matrix(0.1602 -0.9871 0.9871 0.1602 24.5003 493.0239)" class="st13" cx="302" cy="232.1" rx="30.1" ry="30.1"/>
		<path class="st17" d="M239.7,230c0,0,28.8-12,61.7-11.1c32.9,0.9,62.9,11.1,62.9,11.1s-0.6-20.3-21.5-33.3
			c-19.9-12.3-35.6-14-57-9.8C264.4,191.2,242.4,207.7,239.7,230z"/>
		<g>
			<g>
				<path class="st18" d="M251.8,161.4c-5.2,7-12.4,12.1-19.2,8.5c-3.3-1.7-7.1-4.4-11.1-7.8c-4.2-3.6-8.5-8.1-12.5-13.3
					c-3.8-4.9-7.3-10.6-10.2-16.7c-2.4-5.2-4.4-10.7-5.6-16.6c-0.5-2.5-1-5.1-1.2-7.7c-0.3-2.4-0.4-4.9-0.4-7.4c0-1,0-2,0.1-3
					c0.3-5.5,1.5-10.6,3.1-15c3.5-10,9.1-16.8,11.8-17.6c2.5-0.8,3.6,7.6,6.2,17.8c0.8,3,1.7,6.2,2.8,9.4c1.2,3.6,2.8,7.1,4.7,10.4
					c0.4,0.6,0.7,1.2,1.1,1.9c1.8,2.8,3.8,5.6,5.9,8.3c3.9,4.8,8.3,9.3,12.7,13.4c2.7,2.5,5.4,4.8,8,6.8c3.8,3,7.4,5.5,10.2,7.3
					C261.4,142.1,258,153.1,251.8,161.4z"/>
				<path class="st19" d="M215.6,92.1c-6,2.2-15.4,4.7-23.8,5.4c0.3-5.5,1.5-10.6,3.1-15c6.7,0.6,13.2,0.7,18,0.2
					C213.6,85.8,214.5,89,215.6,92.1z"/>
				<path class="st19" d="M227.4,112.7c-5,4.9-13.5,11.9-21.8,16.5c-2.2,1.2-4.5,2.3-6.6,3c-2.4-5.2-4.4-10.7-5.6-16.6
					c0.9-0.2,1.9-0.5,2.8-0.8c9.7-2.8,19.6-6.9,25.3-10.4C223.2,107.2,225.2,110,227.4,112.7z"/>
				<path class="st19" d="M248.1,132.9c-3.2,5.4-9.3,13.6-15.8,20.4c-3.5,3.6-7.1,6.8-10.6,9c-4.2-3.6-8.5-8.1-12.5-13.3
					c3-1.5,6.1-3.2,9.2-5.1c9.6-6,18.5-13.3,21.7-17.7C242.8,128.6,245.5,130.9,248.1,132.9z"/>
				<path class="st20" d="M251.8,161.4c-5.2,7-12.4,12.1-19.2,8.5c-3.3-1.7-7.1-4.4-11.1-7.8c-4.2-3.6-8.5-8.1-12.5-13.3
					c-3.8-4.9-7.3-10.6-10.2-16.7c-2.4-5.2-4.4-10.7-5.6-16.6c-0.5-2.5-1-5.1-1.2-7.7c7.5,13.5,19.9,32.9,33.5,41.5
					C234,154.8,243.7,158.7,251.8,161.4z"/>
				<path class="st21" d="M196.1,114.9c2.8,4.6,6,9.6,9.5,14.3c-2.2,1.2-4.5,2.3-6.6,3c-2.4-5.2-4.4-10.7-5.6-16.6
					C194.3,115.4,195.2,115.1,196.1,114.9z"/>
				<path class="st21" d="M232.3,153.3c-3.5,3.6-7.1,6.8-10.6,9c-4.2-3.6-8.5-8.1-12.5-13.3c3-1.5,6.1-3.2,9.2-5.1
					c2.4,2.2,4.8,4.1,7.2,5.6C227.8,150.8,230,152.1,232.3,153.3z"/>
			</g>
			<g>
				<path class="st18" d="M337.6,161.4c5.2,7,12.4,12.1,19.2,8.5c3.3-1.7,7.1-4.4,11.1-7.8c4.1-3.6,8.4-8.1,12.5-13.3
					c3.8-4.9,7.3-10.6,10.2-16.7c2.4-5.2,4.4-10.7,5.6-16.6c0.5-2.5,1-5.1,1.2-7.7c0.3-2.4,0.4-4.9,0.4-7.4c0-1,0-2-0.1-3
					c-0.3-5.5-1.5-10.6-3.1-15c-3.5-10-9.1-16.8-11.8-17.6c-2.5-0.8-3.6,7.6-6.2,17.8c-0.8,3-1.7,6.2-2.8,9.4
					c-1.2,3.6-2.8,7.1-4.7,10.4c-0.4,0.6-0.7,1.2-1.1,1.9c-1.8,2.8-3.8,5.6-6,8.3c-3.9,4.8-8.3,9.3-12.7,13.4
					c-2.7,2.5-5.4,4.8-8,6.8c-3.8,3-7.4,5.5-10.2,7.3C327.9,142.1,331.4,153.1,337.6,161.4z"/>
				<path class="st19" d="M373.7,92.1c6,2.2,15.4,4.7,23.8,5.4c-0.3-5.5-1.5-10.6-3.1-15c-6.7,0.6-13.2,0.7-18,0.2
					C375.7,85.8,374.8,89,373.7,92.1z"/>
				<path class="st19" d="M362,112.7c5,4.9,13.5,11.9,21.8,16.5c2.2,1.2,4.5,2.3,6.6,3c2.4-5.2,4.4-10.7,5.6-16.6
					c-0.9-0.2-1.9-0.5-2.8-0.8c-9.7-2.8-19.6-6.9-25.3-10.4C366.2,107.2,364.1,110,362,112.7z"/>
				<path class="st19" d="M341.3,132.9c3.2,5.4,9.3,13.6,15.8,20.4c3.5,3.6,7.1,6.8,10.6,9c4.1-3.6,8.5-8.1,12.5-13.3
					c-3-1.5-6.1-3.2-9.2-5.1c-9.6-6-18.5-13.3-21.7-17.7C346.6,128.6,343.9,130.9,341.3,132.9z"/>
				<path class="st20" d="M337.6,161.4c5.2,7,12.4,12.1,19.2,8.5c3.3-1.7,7.1-4.4,11.1-7.8c4.1-3.6,8.4-8.1,12.5-13.3
					c3.8-4.9,7.3-10.6,10.2-16.7c2.4-5.2,4.4-10.7,5.6-16.6c0.5-2.5,1-5.1,1.2-7.7c-7.5,13.5-20,32.9-33.5,41.5
					C355.3,154.8,345.7,158.7,337.6,161.4z"/>
				<path class="st21" d="M393.2,114.9c-2.8,4.6-6,9.6-9.5,14.3c2.2,1.2,4.5,2.3,6.6,3c2.4-5.2,4.4-10.7,5.6-16.6
					C395.1,115.4,394.2,115.1,393.2,114.9z"/>
				<path class="st21" d="M357.1,153.3c3.5,3.6,7.1,6.8,10.6,9c4.1-3.6,8.5-8.1,12.5-13.3c-3-1.5-6.1-3.2-9.2-5.1
					c-2.4,2.2-4.8,4.1-7.2,5.6C361.6,150.8,359.3,152.1,357.1,153.3z"/>
			</g>
		</g>
		<path class="st17" d="M410.9,513.6c-11.9,28.4-31.9-4.2-42.4-2.1c-10.4,2.1,0,0-20.9,12.5c-20.9,12.5-27.1-12.5-35.5-18.8
			c-8.4-6.3-14.6,10.4-31.3,22.9c-4.3,3.3-8.6,4-12.5,3.1c11.5-10.5,18.2-31.3,31.6-41.9c15.5-12.3,17,0,32,9.9
			c15,9.9,14.1-15.5,34.1-20.1c20-4.6,39.4-17.8,47.1-67c7.5-48.5,0.2-146.8,0-149.8C431.5,360.6,422.5,485.9,410.9,513.6z"/>
		<path class="st22" d="M221.7,188.3c-6.6,2.1-10.7,20.7-12.6,33.1c-1.9,12.4,2.2,13.3,3.5,11.2c2.8-4.5,12-25.2,14.7-33
			C230.1,191.8,228.5,186.2,221.7,188.3z"/>
		<path class="st22" d="M207.9,245.6c-3.7-0.4-4.7,6.4-4.3,10.2c0.3,3.8,5.1,3.1,5.6-0.7C209.8,251.3,211.2,245.9,207.9,245.6z"/>
		<path class="st2" d="M294.1,232.1c0,2.9-2.4,5.3-5.3,5.3c-2.9,0-5.3-2.4-5.3-5.3c0-2.9,2.4-5.3,5.3-5.3
			C291.7,226.8,294.1,229.2,294.1,232.1z"/>
	</g>
</g>
<g id="Monster_5">
</g>
<g id="Monster_6">
</g>
<g id="Monster_7">
</g>
<g id="Monster_8">
</g>
<g id="Monster_9">
</g>
<g id="Monster_10">
</g>
<g id="Monster_11">
</g>
<g id="Monster_12">
</g>
<g id="Monster_13">
</g>
<g id="Monster_14">
</g>
<g id="Monster_15">
</g>
<g id="Monster_16">
</g>
<g id="Monster_17">
</g>
<g id="Monster_18">
</g>
<g id="Monster_19">
</g>
<g id="Monster_20">
</g>
</svg>
