<?xml version="1.0" encoding="utf-8"?>
<!-- Generator: Adobe Illustrator 22.0.0, SVG Export Plug-In . SVG Version: 6.00 Build 0)  -->
<svg version="1.1" xmlns="http://www.w3.org/2000/svg" xmlns:xlink="http://www.w3.org/1999/xlink" x="0px" y="0px"
	 viewBox="0 0 600 600" style="enable-background:new 0 0 600 600;" xml:space="preserve">
<style type="text/css">
	.st0{fill:#808739;}
	.st1{fill:#8E9B57;}
	.st2{fill:#FFFFFF;}
	.st3{fill:#282624;}
	.st4{fill:#E88B3F;}
	.st5{fill:#B6C176;}
	.st6{fill:#BF5D2C;}
	.st7{fill:#D36B31;}
	.st8{fill:#E8926D;}
	.st9{fill:#DD7D5B;}
	.st10{fill:#79599E;}
	.st11{fill:#ED9B85;}
	.st12{fill:#9B71BC;}
	.st13{fill:#44342C;}
	.st14{fill:#B899D6;}
	.st15{fill:#8865AA;}
	.st16{fill:#E583AB;}
	.st17{fill:#CE6F9A;}
	.st18{fill:#EDB254;}
	.st19{fill:#5984C1;}
	.st20{fill:#E09E3F;}
	.st21{fill:#426DA0;}
	.st22{fill:#EFA3C6;}
	.st23{fill:#4D527A;}
	.st24{fill:#3B4163;}
	.st25{fill:#F9CB8F;}
	.st26{fill:#D8983D;}
	.st27{fill:#DD9D40;}
	.st28{fill:#C44747;}
	.st29{fill:#D85959;}
	.st30{fill:#E87979;}
	.st31{fill:#A59C4A;}
	.st32{fill:#B7B15C;}
	.st33{fill:#D1C875;}
	.st34{fill:#8259AA;}
	.st35{fill:#87D8D5;}
	.st36{fill:#73C6C6;}
	.st37{fill:#66B5B3;}
	.st38{fill:#F9E9D4;}
	.st39{fill:#F7A4C9;}
	.st40{fill:#EF8854;}
	.st41{fill:#EA7DB1;}
	.st42{fill:#9B5072;}
	.st43{fill:#F7ADCF;}
	.st44{fill:#825B38;}
	.st45{fill:#92DDDB;}
	.st46{fill:#775E96;}
	.st47{fill:#655284;}
	.st48{fill:#755593;}
</style>
<g id="Monster_1">
</g>
<g id="Monster_2">
</g>
<g id="Monster_3">
	<g>
		<path class="st10" d="M244.9,469.9c-7.6,10.3-0.8,40.8,6.1,45.2c6.9,4.4,20.2,3.4,25.5,0c5.4-3.4,11-26.4,12-32.8
			C289.5,476,248.3,465.3,244.9,469.9z"/>
		<path class="st10" d="M373,469.9c7.6,10.3,0.8,40.8-6.1,45.2c-6.9,4.4-20.2,3.4-25.5,0c-5.4-3.4-11-26.4-12-32.8
			C328.4,476,369.6,465.3,373,469.9z"/>
		<g>
			<path class="st11" d="M283.5,210.6c-14.1-21.2-35.7-47.3-57.8-55.8c-22.1-8.5-35.7,26-36.6,28.5c-0.9,2.6-7.2,5.1-2.1-9.8
				c5.1-14.9,18.3-32.3,36.2-28.9c17.9,3.4,55.4,40.6,65.8,55.8C299.3,215.7,287,215.9,283.5,210.6z"/>
			
				<ellipse transform="matrix(0.7071 -0.7071 0.7071 0.7071 -75.4818 186.6231)" class="st11" cx="187.5" cy="184.4" rx="9" ry="9"/>
		</g>
		<g>
			<path class="st11" d="M335,205c-0.4-25.4,10.6-85.2,24-104.8c13.4-19.5,42.1,0,44.2,1.6c2.1,1.6,8.9,0.1-3.8-9.3
				c-12.6-9.4-33.9-16.8-46.2-3.4c-22.7,24.8-28.6,92.1-28.5,110.5C324.9,218.1,335.1,211.4,335,205z"/>
			<path class="st11" d="M397.7,107c2.8,4.1,8.4,5.1,12.5,2.3c4.1-2.8,5.1-8.4,2.3-12.5c-2.8-4.1-8.4-5.1-12.5-2.3
				C396,97.3,394.9,102.9,397.7,107z"/>
		</g>
		<path class="st12" d="M421.4,385.3c0,51.3-34.4,94.6-81.4,108.1c0,0,0,0,0,0c-9.9,2.8-20.3,4.4-31.1,4.4
			c-62.1,0-112.5-50.4-112.5-112.5c0-28,10.2-53.6,27.2-73.3c-3-9-4.7-18.6-4.7-28.7c0-49.7,40.3-90,90-90s90,40.3,90,90
			c0,10-1.6,19.7-4.7,28.7C411.2,331.7,421.4,357.3,421.4,385.3z"/>
		<ellipse class="st2" cx="326.8" cy="304.9" rx="45.2" ry="57.3"/>
		
			<ellipse transform="matrix(0.7071 -0.7071 0.7071 0.7071 -118.721 312.8558)" class="st13" cx="318.3" cy="299.7" rx="22.1" ry="22.1"/>
		<path class="st2" d="M318.3,293.3c0,3.5-2.9,6.4-6.4,6.4c-3.5,0-6.4-2.9-6.4-6.4s2.9-6.4,6.4-6.4
			C315.4,286.9,318.3,289.8,318.3,293.3z"/>
		<g>
			<path class="st10" d="M238.4,328.2c0.1,1.7,0.3,3.5,0.4,5.2c0.2,2.6,2.2,5.1,5,5c2.5-0.1,5.2-2.2,5-5c-0.1-1.7-0.3-3.5-0.4-5.2
				c-0.2-2.6-2.2-5.1-5-5C240.8,323.3,238.2,325.4,238.4,328.2L238.4,328.2z"/>
		</g>
		<g>
			<path class="st10" d="M255.7,357.5c0.2,1.1,0.5,2.2,0.7,3.3c0.6,2.6,3.7,4.3,6.2,3.5c2.7-0.9,4.1-3.4,3.5-6.2
				c-0.2-1.1-0.5-2.2-0.7-3.3c-0.6-2.6-3.7-4.3-6.2-3.5C256.5,352.3,255.1,354.8,255.7,357.5L255.7,357.5z"/>
		</g>
		<g>
			<path class="st10" d="M221.4,355.3c0.1,1.2,0.2,2.5,0.4,3.7c0.1,1.4,0.5,2.5,1.5,3.5c0.9,0.9,2.3,1.5,3.5,1.5
				c1.3-0.1,2.6-0.5,3.5-1.5c0.8-0.9,1.6-2.2,1.5-3.5c-0.1-1.2-0.2-2.5-0.4-3.7c-0.1-1.4-0.5-2.5-1.5-3.5c-0.9-0.9-2.3-1.5-3.5-1.5
				c-1.3,0.1-2.6,0.5-3.5,1.5C222,352.7,221.2,354,221.4,355.3L221.4,355.3z"/>
		</g>
		<g>
			<path class="st10" d="M271.9,400.6c0.1,1.2,0.2,2.5,0.4,3.7c0.1,1.4,0.5,2.5,1.5,3.5c0.9,0.9,2.3,1.5,3.5,1.5
				c1.3-0.1,2.6-0.5,3.5-1.5c0.8-0.9,1.6-2.2,1.5-3.5c-0.1-1.2-0.2-2.5-0.4-3.7c-0.1-1.4-0.5-2.5-1.5-3.5c-0.9-0.9-2.3-1.5-3.5-1.5
				c-1.3,0.1-2.6,0.5-3.5,1.5C272.6,398,271.8,399.3,271.9,400.6L271.9,400.6z"/>
		</g>
		<g>
			<path class="st10" d="M240.3,392c0,1.1,0,2.2,0,3.3c0,2.6,2.3,5.1,5,5c2.7-0.1,5-2.2,5-5c0-1.1,0-2.2,0-3.3c0-2.6-2.3-5.1-5-5
				C242.6,387.1,240.3,389.2,240.3,392L240.3,392z"/>
		</g>
		<g>
			<path class="st10" d="M386.5,354.2c0.1,1.2,0.3,2.5,0.4,3.7c0.1,1.4,0.5,2.5,1.5,3.5c0.9,0.9,2.3,1.5,3.5,1.5
				c1.3-0.1,2.6-0.5,3.5-1.5c0.8-0.9,1.6-2.2,1.5-3.5c-0.1-1.2-0.3-2.5-0.4-3.7c-0.1-1.4-0.5-2.5-1.5-3.5c-0.9-0.9-2.3-1.5-3.5-1.5
				c-1.3,0.1-2.6,0.5-3.5,1.5C387.1,351.6,386.3,352.9,386.5,354.2L386.5,354.2z"/>
		</g>
		<g>
			<path class="st10" d="M386.9,393.1c0,0.7,0,1.5,0,2.2c0,1.3,0.6,2.6,1.5,3.5c0.9,0.9,2.3,1.5,3.5,1.5c1.3-0.1,2.6-0.5,3.5-1.5
				c0.9-1,1.5-2.2,1.5-3.5c0-0.7,0-1.5,0-2.2c0-1.3-0.6-2.6-1.5-3.5c-0.9-0.9-2.3-1.5-3.5-1.5c-1.3,0.1-2.6,0.5-3.5,1.5
				C387.5,390.6,386.9,391.8,386.9,393.1L386.9,393.1z"/>
		</g>
		<g>
			<path class="st10" d="M366.5,376.4c0.1,1.5,0.2,3,0.4,4.5c0.2,2.6,2.1,5.1,5,5c2.5-0.1,5.2-2.2,5-5c-0.1-1.5-0.2-3-0.4-4.5
				c-0.2-2.6-2.1-5.1-5-5C369,371.5,366.2,373.6,366.5,376.4L366.5,376.4z"/>
		</g>
		<g>
			<path class="st10" d="M215.3,401.6c0,1.7,0,3.5,0,5.2c0,2.6,2.3,5.1,5,5c2.7-0.1,5-2.2,5-5c0-1.7,0-3.5,0-5.2c0-2.6-2.3-5.1-5-5
				C217.6,396.7,215.3,398.8,215.3,401.6L215.3,401.6z"/>
		</g>
		<g>
			<path class="st10" d="M313.2,390.2c0,1.3,0,2.6,0,3.9c0,2.6,2.3,5.1,5,5c2.7-0.1,5-2.2,5-5c0-1.3,0-2.6,0-3.9c0-2.6-2.3-5.1-5-5
				C315.5,385.4,313.2,387.4,313.2,390.2L313.2,390.2z"/>
		</g>
		<g>
			<path class="st10" d="M245.8,435c0,1.3,0,2.6,0,3.9c0,2.6,2.3,5.1,5,5c2.7-0.1,5-2.2,5-5c0-1.3,0-2.6,0-3.9c0-2.6-2.3-5.1-5-5
				C248.1,430.1,245.8,432.2,245.8,435L245.8,435z"/>
		</g>
		<path class="st14" d="M265.3,224.6c-8.6,1.2-20.9,21.9-21.9,31.2c-1,9.3,6.1,6.4,9.8,2.2c3.7-4.2,15.3-16.2,17.5-22.3
			C272.8,229.6,270.8,223.9,265.3,224.6z"/>
		<path class="st14" d="M239.1,271.2c-4.6,0.4-4,7.7-1.9,8.6c2.9,1.3,6.5-0.1,7.3-3.6C245.3,272.6,242.4,270.9,239.1,271.2z"/>
		<path class="st15" d="M421.4,385.3c0,51.3-34.4,94.6-81.4,108.1c50.5-24.5,70-85.7,70.6-114.8c0.6-29.1-16.4-66.6-16.4-66.6
			C411.2,331.7,421.4,357.3,421.4,385.3z"/>
	</g>
</g>
<g id="Monster_4">
</g>
<g id="Monster_5">
</g>
<g id="Monster_6">
</g>
<g id="Monster_7">
</g>
<g id="Monster_8">
</g>
<g id="Monster_9">
</g>
<g id="Monster_10">
</g>
<g id="Monster_11">
</g>
<g id="Monster_12">
</g>
<g id="Monster_13">
</g>
<g id="Monster_14">
</g>
<g id="Monster_15">
</g>
<g id="Monster_16">
</g>
<g id="Monster_17">
</g>
<g id="Monster_18">
</g>
<g id="Monster_19">
</g>
<g id="Monster_20">
</g>
</svg>
