<?xml version="1.0" encoding="utf-8"?>
<!-- Generator: Adobe Illustrator 22.0.0, SVG Export Plug-In . SVG Version: 6.00 Build 0)  -->
<svg version="1.1" xmlns="http://www.w3.org/2000/svg" xmlns:xlink="http://www.w3.org/1999/xlink" x="0px" y="0px"
	 viewBox="0 0 600 600" style="enable-background:new 0 0 600 600;" xml:space="preserve">
<style type="text/css">
	.st0{fill:#808739;}
	.st1{fill:#8E9B57;}
	.st2{fill:#FFFFFF;}
	.st3{fill:#282624;}
	.st4{fill:#E88B3F;}
	.st5{fill:#B6C176;}
	.st6{fill:#BF5D2C;}
	.st7{fill:#D36B31;}
	.st8{fill:#E8926D;}
	.st9{fill:#DD7D5B;}
	.st10{fill:#79599E;}
	.st11{fill:#ED9B85;}
	.st12{fill:#9B71BC;}
	.st13{fill:#44342C;}
	.st14{fill:#B899D6;}
	.st15{fill:#8865AA;}
	.st16{fill:#E583AB;}
	.st17{fill:#CE6F9A;}
	.st18{fill:#EDB254;}
	.st19{fill:#5984C1;}
	.st20{fill:#E09E3F;}
	.st21{fill:#426DA0;}
	.st22{fill:#EFA3C6;}
	.st23{fill:#4D527A;}
	.st24{fill:#3B4163;}
	.st25{fill:#F9CB8F;}
	.st26{fill:#D8983D;}
	.st27{fill:#DD9D40;}
	.st28{fill:#C44747;}
	.st29{fill:#D85959;}
	.st30{fill:#E87979;}
	.st31{fill:#A59C4A;}
	.st32{fill:#B7B15C;}
	.st33{fill:#D1C875;}
	.st34{fill:#8259AA;}
	.st35{fill:#87D8D5;}
	.st36{fill:#73C6C6;}
	.st37{fill:#66B5B3;}
	.st38{fill:#F9E9D4;}
	.st39{fill:#F7A4C9;}
	.st40{fill:#EF8854;}
	.st41{fill:#EA7DB1;}
	.st42{fill:#9B5072;}
	.st43{fill:#F7ADCF;}
	.st44{fill:#825B38;}
	.st45{fill:#92DDDB;}
	.st46{fill:#775E96;}
	.st47{fill:#655284;}
	.st48{fill:#755593;}
</style>
<g id="Monster_1">
</g>
<g id="Monster_2">
</g>
<g id="Monster_3">
</g>
<g id="Monster_4">
</g>
<g id="Monster_5">
</g>
<g id="Monster_6">
</g>
<g id="Monster_7">
</g>
<g id="Monster_8">
</g>
<g id="Monster_9">
</g>
<g id="Monster_10">
</g>
<g id="Monster_11">
</g>
<g id="Monster_12">
</g>
<g id="Monster_13">
</g>
<g id="Monster_14">
</g>
<g id="Monster_15">
</g>
<g id="Monster_16">
</g>
<g id="Monster_17">
</g>
<g id="Monster_18">
	<g>
		<path class="st16" d="M203.4,442c-10,27.1-7.1,75.1,11.3,85c18.4,9.9,32.5-1.7,38.2-21.5c5.8-19.8,14.1-54.5,9.9-63.5
			C258.7,433,208.4,428.7,203.4,442z"/>
		<path class="st16" d="M396.6,442c10,27.1,7.1,75.1-11.3,85c-18.4,9.9-32.5-1.7-38.2-21.5c-5.8-19.8-14.1-54.5-9.9-63.5
			C341.3,433,391.6,428.7,396.6,442z"/>
		<path class="st46" d="M154,384.5c-5.2,24.3,26.6,69,77.6,83.1c67.1,18.6,130.9,6.5,172.9-20.2c42-26.7,68.7-75.1,63.8-98.6
			c-4.8-23.4-62.2-37.2-118.8-29.1C293.1,327.8,163.8,339.1,154,384.5z"/>
		<path class="st16" d="M425.8,169.9c-27.6-35.1-65.6-56.1-109.6-57.7c3.6-11.3,5.3-25.7-0.8-27c-7.6-1.6-16,16.2-20.7,27.6
			c1.8-15.1,0.6-44.3-7.1-43.3c-8.3,1-12.1,32.6-13,46.7c-0.5,0.1-1.1,0.2-1.6,0.4c-6.1-14.4-20-37-26-32.8
			c-5.5,3.9,1,23.9,6.8,38.3c-6.5,2.2-13,4.8-19.7,7.8c-78.4,35.7-114.2,181.4-118,240.3c-2.6,39.1,26.8,51.4,52.7,46.3
			c25.8-5.1,37.1-50.1,37.1-50.1s11.8,60.2,47.8,60.2c50.2,0,65.7-64.3,65.7-64.3s9.9,56,54.9,44.2c36.3-9.5,38.8-53.1,38.8-53.1
			s31.4,40.9,65.2,8.9C499.6,342.1,457,209.5,425.8,169.9z"/>
		<path class="st22" d="M179.1,213.2c-22.7,42.9-24.3,72.9-14.5,76.3c9.8,3.4,33.8-54.6,37.5-71.2
			C205.8,201.6,187.1,197.9,179.1,213.2z"/>
		<g>
			<circle class="st2" cx="305.7" cy="215.4" r="77.6"/>
			<circle class="st3" cx="286.9" cy="210.9" r="37.5"/>
			<circle class="st2" cx="269.9" cy="210.9" r="12.2"/>
		</g>
		<path class="st3" d="M223.4,306.3c11.5,9.8,45.2,38.1,85.7,34.6c40.5-3.5,67.6-50.5,67.6-50.5s-27.3,32-55.4,39
			C268.8,342.4,223.4,306.3,223.4,306.3z"/>
		<path class="st47" d="M194.3,423c-9.1-2.1-5.3,11.6,6.3,17.9c11.6,6.3,21.6,6.8,16.6,0C212.1,434.1,200.5,424.4,194.3,423z"/>
		<path class="st47" d="M203.8,400.4c-6.8,2.6-2.6,17,4.4,17.5c7,0.5,11.7-5.1,9.5-10.9C215.5,401.2,210.2,398,203.8,400.4z"/>
		<path class="st47" d="M224.2,422.8c-3.5,2.8-1.8,8.1,2.2,9.6c4,1.5,8.8-2.1,7.3-5.8C232.2,422.8,226.5,420.9,224.2,422.8z"/>
		<path class="st47" d="M226.4,445.8c-3.8,4.4-0.7,11.5,6.6,13.5c7.3,2,20.1-4.2,19.4-11.3C251.6,440.8,229.8,441.8,226.4,445.8z"/>
		<path class="st22" d="M202.6,176.5c-7.3,4.3-3.7,14.8,0,16.8c3.7,1.9,12.7,0.2,13.2-8.4C216.3,176.2,209.6,172.3,202.6,176.5z"/>
	</g>
</g>
<g id="Monster_19">
</g>
<g id="Monster_20">
</g>
</svg>
