<?xml version="1.0" encoding="utf-8"?>
<!-- Generator: Adobe Illustrator 22.0.0, SVG Export Plug-In . SVG Version: 6.00 Build 0)  -->
<svg version="1.1" xmlns="http://www.w3.org/2000/svg" xmlns:xlink="http://www.w3.org/1999/xlink" x="0px" y="0px"
	 viewBox="0 0 600 600" style="enable-background:new 0 0 600 600;" xml:space="preserve">
<style type="text/css">
	.st0{fill:#808739;}
	.st1{fill:#8E9B57;}
	.st2{fill:#FFFFFF;}
	.st3{fill:#282624;}
	.st4{fill:#E88B3F;}
	.st5{fill:#B6C176;}
	.st6{fill:#BF5D2C;}
	.st7{fill:#D36B31;}
	.st8{fill:#E8926D;}
	.st9{fill:#DD7D5B;}
	.st10{fill:#79599E;}
	.st11{fill:#ED9B85;}
	.st12{fill:#9B71BC;}
	.st13{fill:#44342C;}
	.st14{fill:#B899D6;}
	.st15{fill:#8865AA;}
	.st16{fill:#E583AB;}
	.st17{fill:#CE6F9A;}
	.st18{fill:#EDB254;}
	.st19{fill:#5984C1;}
	.st20{fill:#E09E3F;}
	.st21{fill:#426DA0;}
	.st22{fill:#EFA3C6;}
	.st23{fill:#4D527A;}
	.st24{fill:#3B4163;}
	.st25{fill:#F9CB8F;}
	.st26{fill:#D8983D;}
	.st27{fill:#DD9D40;}
	.st28{fill:#C44747;}
	.st29{fill:#D85959;}
	.st30{fill:#E87979;}
	.st31{fill:#A59C4A;}
	.st32{fill:#B7B15C;}
	.st33{fill:#D1C875;}
	.st34{fill:#8259AA;}
	.st35{fill:#87D8D5;}
	.st36{fill:#73C6C6;}
	.st37{fill:#66B5B3;}
	.st38{fill:#F9E9D4;}
	.st39{fill:#F7A4C9;}
	.st40{fill:#EF8854;}
	.st41{fill:#EA7DB1;}
	.st42{fill:#9B5072;}
	.st43{fill:#F7ADCF;}
	.st44{fill:#825B38;}
	.st45{fill:#92DDDB;}
	.st46{fill:#775E96;}
	.st47{fill:#655284;}
	.st48{fill:#755593;}
</style>
<g id="Monster_1">
</g>
<g id="Monster_2">
</g>
<g id="Monster_3">
</g>
<g id="Monster_4">
</g>
<g id="Monster_5">
</g>
<g id="Monster_6">
</g>
<g id="Monster_7">
</g>
<g id="Monster_8">
	<g>
		<g>
			<path class="st12" d="M277.2,397.9c-0.3,10.7-22.4,104-30.1,124.9c-0.8,2.1-1.4,3.5-1.9,4c-1.4,1.4-5.6,2.2-11,2.5
				c-14.1,0.7-36.8-2-41.8-6.9c-0.2-0.2-0.3-0.4-0.5-0.6c-0.1-0.1-0.2-0.2-0.2-0.3c-6.9-11.3-17.9-87.5-17.9-87.5l-0.5-6.1l-3.8-43
				C168.7,377.9,277.6,386.1,277.2,397.9z"/>
			<path class="st34" d="M277.2,397.9c-0.3,10.7-22.4,104-30.1,124.9c-0.3,2.1-1.3,4.1-3,5.3c-1.3,0.9-5,1.6-10,1.9
				c0-0.2,0-0.5,0.1-0.7c0.5-5.5,0.9-11.4,1.3-17.4c1.2-18.5,1.7-37-0.4-43.2c-3.5-10.2-41.3-30.5-61.9-40.8l-3.8-43
				C168.7,377.9,277.6,386.1,277.2,397.9z"/>
			<path class="st35" d="M247,522.8c-0.3,2.1-1.3,4.1-3,5.3c-1.3,0.9-5,1.6-10,1.9c-13.6,0.8-36.4-1-41.9-7.8
				c-0.1-0.1-0.2-0.3-0.3-0.4c-0.1-0.1-0.2-0.2-0.2-0.3c-2.1-3.6,0.6-12.1,6-14.1c5.3-2,10.6,10.2,10.6,10.2s4.5-9.3,11.8-9.4
				c7.3-0.1,7.3,9.8,7.3,9.8s3.3-4.8,8.1-6c1.6-0.4,3.3-0.4,5.1,0.3C245.5,513.9,247.6,518.7,247,522.8z"/>
			<path class="st36" d="M247,522.8c-0.3,2.1-1.3,4.1-3,5.3c-1.3,0.9-5,1.6-10,1.9c0-0.2,0-0.5,0.1-0.7c0.5-5.5,0.9-11.4,1.3-17.4
				c1.6-0.4,3.3-0.4,5.1,0.3C245.5,513.9,247.6,518.7,247,522.8z"/>
		</g>
		<g>
			<path class="st12" d="M318.7,397.9c0.3,10.7,22.4,104,30.1,124.9c0.8,2.1,1.4,3.5,1.9,4c1.4,1.4,5.6,2.2,11,2.5
				c14.1,0.7,36.8-2,41.8-6.9c0.2-0.2,0.3-0.4,0.5-0.6c0.1-0.1,0.2-0.2,0.2-0.3c6.9-11.3,17.9-87.5,17.9-87.5l0.5-6.1l3.8-43
				C427.2,377.9,318.4,386.1,318.7,397.9z"/>
			<path class="st34" d="M318.7,397.9c0.3,10.7,22.4,104,30.1,124.9c0.3,2.1,1.3,4.1,3,5.3c1.3,0.9,5,1.6,10,1.9
				c0-0.2,0-0.5-0.1-0.7c-0.5-5.5-0.9-11.4-1.3-17.4c-1.2-18.5-1.7-37,0.4-43.2c3.5-10.2,41.3-30.5,61.9-40.8l3.8-43
				C427.2,377.9,318.4,386.1,318.7,397.9z"/>
			<path class="st35" d="M348.9,522.8c0.3,2.1,1.3,4.1,3,5.3c1.3,0.9,5,1.6,10,1.9c13.6,0.8,36.4-1,41.9-7.8
				c0.1-0.1,0.2-0.3,0.3-0.4c0.1-0.1,0.2-0.2,0.2-0.3c2.1-3.6-0.6-12.1-6-14.1c-5.3-2-10.6,10.2-10.6,10.2s-4.5-9.3-11.8-9.4
				c-7.3-0.1-7.3,9.8-7.3,9.8s-3.3-4.8-8.1-6c-1.6-0.4-3.3-0.4-5.1,0.3C350.4,513.9,348.3,518.7,348.9,522.8z"/>
			<path class="st36" d="M348.9,522.8c0.3,2.1,1.3,4.1,3,5.3c1.3,0.9,5,1.6,10,1.9c0-0.2,0-0.5-0.1-0.7c-0.5-5.5-0.9-11.4-1.3-17.4
				c-1.6-0.4-3.3-0.4-5.1,0.3C350.4,513.9,348.3,518.7,348.9,522.8z"/>
		</g>
		<g>
			<g>
				<path class="st12" d="M49.7,390.4c0,0,0,16.6,6.6,14.1C63,402,65.5,386,65.5,386s-1,12.1,1.9,14.3c0.9,0.7,2.1,0.4,3.9-1.6
					c7.5-8.3,28.2-61.8,67.5-92.4c55-42.8,71.4-72.4,61.4-75.9l-4.9-4l-7.9-6.4c-38.1,3.3-92.9,66.1-112.8,94.2
					c-19.9,28.2-37.3,65.8-38.9,80.9C34,410.3,49.7,390.4,49.7,390.4z"/>
				<path class="st34" d="M67.3,400.3c0.9,0.7,2.1,0.4,3.9-1.6c7.5-8.3,28.2-61.8,67.5-92.4c55-42.8,71.4-72.4,61.4-75.9l-4.9-4
					C168.4,252.4,79.8,341.8,67.3,400.3z"/>
			</g>
			<g>
				<path class="st12" d="M550.3,390.4c0,0,0,16.6-6.6,14.1c-6.6-2.5-9.1-18.5-9.1-18.5s1,12.1-1.9,14.3c-0.9,0.7-2.1,0.4-3.9-1.6
					c-7.5-8.3-28.2-61.8-67.5-92.4c-55-42.8-71.4-72.4-61.4-75.9l4.9-4l7.9-6.4c38.1,3.3,92.9,66.1,112.8,94.2
					c19.9,28.2,37.3,65.8,38.9,80.9C566,410.3,550.3,390.4,550.3,390.4z"/>
				<path class="st34" d="M532.7,400.3c-0.9,0.7-2.1,0.4-3.9-1.6c-7.5-8.3-28.2-61.8-67.5-92.4c-55-42.8-71.4-72.4-61.4-75.9l4.9-4
					C431.6,252.4,520.2,341.8,532.7,400.3z"/>
			</g>
		</g>
		<path class="st36" d="M456.8,425.6c-4.7,3.5-10.2,6.7-16.4,9.6c-10.4,4.9-22.6,8.9-35.5,12.1c-36.6,9.2-79.3,12.4-104.9,12.4
			c-25.7,0-68.3-3.2-104.9-12.4c-20.6-5.2-39.2-12.2-51.9-21.7c-31.3-23.4-44.5-95.6-7.4-165c23.5-43.9,60.4-46.8,60.4-46.8
			s6.2-66.3,36.7-94.5c25.5-23.6,55.4-25.5,64.5-25.5c1.7,0,2.7,0.1,2.7,0.1s36.7-2.7,67.2,25.4c30.5,28.2,36.7,94.5,36.7,94.5
			s36.9,2.9,60.4,46.8C501.3,329.9,488.1,402.1,456.8,425.6z"/>
		<path class="st35" d="M427.8,391.8c0,20.6-8.5,39.8-22.9,55.5c-36.6,9.2-79.2,12.4-104.9,12.4c-25.7,0-68.3-3.2-104.9-12.4
			c-14.4-15.7-22.9-34.9-22.9-55.5c0-53.7,57.2-97.2,127.8-97.2C370.6,294.6,427.8,338.1,427.8,391.8z"/>
		<g>
			
				<ellipse transform="matrix(0.9195 -0.3931 0.3931 0.9195 -48.6232 101.8536)" class="st36" cx="224.4" cy="169.7" rx="45.5" ry="45.5"/>
			
				<ellipse transform="matrix(0.1667 -0.986 0.986 0.1667 19.7047 362.624)" class="st2" cx="224.4" cy="169.7" rx="39.2" ry="39.2"/>
			
				<ellipse transform="matrix(0.8915 -0.453 0.453 0.8915 -52.5105 120.0637)" class="st3" cx="224.4" cy="169.7" rx="19.4" ry="19.4"/>
			<circle class="st2" cx="220.1" cy="152.4" r="6.5"/>
		</g>
		<g>
			
				<ellipse transform="matrix(0.2382 -0.9712 0.9712 0.2382 121.3599 494.0345)" class="st36" cx="375.6" cy="169.7" rx="45.5" ry="45.5"/>
			
				<ellipse transform="matrix(0.2493 -0.9684 0.9684 0.2493 117.6753 491.1124)" class="st2" cx="375.6" cy="169.7" rx="39.2" ry="39.2"/>
			
				<ellipse transform="matrix(0.236 -0.9718 0.9718 0.236 122.1194 494.6284)" class="st3" cx="375.6" cy="169.7" rx="19.4" ry="19.4"/>
			<path class="st2" d="M377.8,152.4c0,3.6-2.9,6.5-6.5,6.5c-3.6,0-6.5-2.9-6.5-6.5c0-3.6,2.9-6.5,6.5-6.5
				C374.9,145.9,377.8,148.8,377.8,152.4z"/>
		</g>
		<path class="st3" d="M335.2,211.1c0,0-9.1,30-37.3,30c-27.1,0-37.2-30-37.2-30H335.2z"/>
		<path class="st2" d="M295.8,211.1c-0.2,3-0.5,6.2-1,6.9c-1,1.2-6.9,1.6-9.1,0.1c-1.4-0.9-2-3.9-2-7H295.8z"/>
		<path class="st2" d="M312.2,211.1c0,3.1-0.6,6.1-2,7c-2.2,1.4-8.1,1.1-9.1-0.1c-0.5-0.7-0.8-3.9-1-6.9H312.2z"/>
		<path class="st12" d="M285.4,101.6c-3.1-6.7-7.1-19.8-2-21.4c5.1-1.6,12.9,12.2,12.9,12.2s2.4-19.8,11-22.4
			c8.6-2.5,7.3,20.2,7.3,20.2s8.2-13.9,14.7-10.6c6.5,3.3-4.9,21.6-7.6,23.9C319,105.9,288.1,107.4,285.4,101.6z"/>
		<path class="st37" d="M456.8,425.6c-4.7,3.5-10.2,6.7-16.4,9.6c10.7-33.7,21.3-76.7,18.4-107.6c-5.6-58.5-54.9-113.8-54.9-113.8
			s36.9,2.9,60.4,46.8C501.3,329.9,488.1,402.1,456.8,425.6z"/>
		<path class="st35" d="M143.5,283.9c6.8-13.2,15-23.6,23.4-28.3c8.5-4.7,14.6,3.5,13,8.3s-19.4,20.3-27.6,35.9
			c-6.9,13.1-5.5,20.5-7.9,26.7c-1.8,4.7-7.3-0.9-7.9-10.6C135.6,300.1,140.7,289.2,143.5,283.9z"/>
		<path class="st36" d="M206,392.2c-3.5-12.9-4.6-39.6,0-38.8c4.6,0.8,10.8,34.6,8.8,38.8S207.2,396.7,206,392.2z"/>
		<path class="st36" d="M283.6,428.9c-1.2-13.3,2.4-39.8,6.8-38.2c4.4,1.6,4.5,36,1.9,39.8C289.7,434.3,284,433.5,283.6,428.9z"/>
		<path class="st36" d="M258.4,391.7c-1.8-13.3,0.5-39.9,5-38.5c4.5,1.4,6.2,35.7,3.8,39.7C264.7,396.8,259,396.3,258.4,391.7z"/>
		<path class="st36" d="M254.6,444.8c-1.1-13.3,2-34.5,6.4-32.9c4.4,1.6,5,30.6,2.3,34.5C260.7,450.3,255,449.5,254.6,444.8z"/>
		<path class="st36" d="M228,367.8c-1.3-13.3,2.2-39.8,6.6-38.3s4.7,35.9,2.1,39.8C234.1,373.1,228.4,372.4,228,367.8z"/>
		<path class="st36" d="M311.6,398.6c0.4-13.4,7.2-39.2,11.4-37.1c4.2,2.1,0.2,36.2-2.9,39.7C317,404.6,311.4,403.2,311.6,398.6z"/>
		<path class="st36" d="M290.8,367.8c-1.3-13.3,2.2-39.8,6.6-38.3s4.7,35.9,2.1,39.8C296.9,373.1,291.2,372.4,290.8,367.8z"/>
		<path class="st36" d="M343.6,357.1c1.9-13.2,11.6-38.2,15.5-35.6s-3.9,36-7.4,39.1S342.9,361.7,343.6,357.1z"/>
		<path class="st36" d="M258.8,336.2c-2.5-13.1-0.5-32.2,4-31.1c4.5,1.1,7,27.7,4.8,31.8C265.3,341,259.6,340.8,258.8,336.2z"/>
		<path class="st36" d="M372,377.8c0.1-13.4,5.8-31.7,10.1-29.7c4.2,2,1.4,28.5-1.5,32.1C377.5,383.7,372,382.4,372,377.8z"/>
		<path class="st36" d="M397.2,410c2-13.2,10.2-30.6,14.1-28c3.9,2.6-2.6,28.5-6,31.6S396.5,414.5,397.2,410z"/>
		<path class="st36" d="M315.1,337.6c-0.9-13.3,3.6-32,7.9-30.4c4.4,1.7,3.5,28.4,0.7,32.1C321.1,343.1,315.4,342.2,315.1,337.6z"/>
		<path class="st36" d="M313.3,446.7c-2.5-13.1-0.5-32.2,4-31.1c4.5,1.1,7,27.7,4.8,31.8C319.9,451.4,314.2,451.2,313.3,446.7z"/>
		<path class="st36" d="M225.5,428.4c0.1-13.4,6.2-39.4,10.4-37.4c4.2,2,1.1,36.2-1.9,39.8C231,434.4,225.5,433.1,225.5,428.4z"/>
		<path class="st36" d="M339.4,428.3c0.1-13.4,6.2-39.4,10.4-37.4c4.2,2,1.1,36.2-1.9,39.8C344.9,434.2,339.3,432.9,339.4,428.3z"/>
		<path class="st36" d="M201.2,432c-8.9-10-18.4-27.6-13.9-29c4.5-1.4,21.6,20.4,21.8,25.1C209.3,432.6,204.3,435.4,201.2,432z"/>
		<path class="st36" d="M366.5,436.3c0.6-13.4,6.2-32.6,10.4-30.5c4.2,2.1,1.2,29.7-2,33.2S366.3,440.9,366.5,436.3z"/>
	</g>
</g>
<g id="Monster_9">
</g>
<g id="Monster_10">
</g>
<g id="Monster_11">
</g>
<g id="Monster_12">
</g>
<g id="Monster_13">
</g>
<g id="Monster_14">
</g>
<g id="Monster_15">
</g>
<g id="Monster_16">
</g>
<g id="Monster_17">
</g>
<g id="Monster_18">
</g>
<g id="Monster_19">
</g>
<g id="Monster_20">
</g>
</svg>
